<svg width="36" height="32" viewBox="0 0 36 32" fill="none" xmlns="http://www.w3.org/2000/svg">
<path fill-rule="evenodd" clip-rule="evenodd" d="M16.6906 0.0983513C15.6866 0.321192 14.5548 0.933591 13.7992 1.66269C11.2479 4.12448 11.2446 8.24327 13.7919 10.7316C14.9673 11.8798 16.3298 12.4297 17.999 12.4297C19.6682 12.4297 21.0307 11.8798 22.2061 10.7316C24.712 8.28368 24.764 4.30893 22.3227 1.82287C21.4214 0.905028 20.4397 0.351478 19.2673 0.0997867C18.6502 -0.0326259 17.2842 -0.0334154 16.6906 0.0983513ZM4.52129 4.72045C2.97179 5.17309 1.86791 6.6015 1.76978 8.28095C1.70233 9.43585 2.07296 10.4321 2.88436 11.2772C4.43822 12.8956 7.01682 12.8319 8.49605 11.1386C9.41669 10.0847 9.71972 8.58029 9.28128 7.24031C8.88286 6.02254 7.82949 5.01197 6.62516 4.69196C6.08542 4.54849 5.06258 4.56242 4.52129 4.72045ZM29.2818 4.72045C27.7323 5.17309 26.6284 6.6015 26.5303 8.28095C26.4628 9.43585 26.8334 10.4321 27.6448 11.2772C29.1987 12.8956 31.7773 12.8319 33.2565 11.1386C34.1772 10.0847 34.4802 8.58029 34.0418 7.24031C33.6433 6.02254 32.59 5.01197 31.3856 4.69196C30.8459 4.54849 29.823 4.56242 29.2818 4.72045ZM4.27573 14.9149C3.13871 15.0371 2.25508 15.4782 1.38987 16.3555C0.896344 16.856 0.729281 17.085 0.490962 17.5873C-0.0143066 18.6522 -0.0152211 18.6639 0.00693674 23.6986L0.0265622 28.1608L0.185254 28.4638C0.434196 28.939 0.741169 29.2506 1.17441 29.4677L1.57409 29.6679H3.96573H6.35737L6.39936 26.1513C6.44431 22.3912 6.48166 21.9252 6.84821 20.5533C7.2505 19.0479 7.94823 17.7206 8.95939 16.5377L9.42675 15.991L9.2637 15.8524C8.94723 15.5835 8.15173 15.2009 7.62064 15.0623C7.00318 14.9011 5.15908 14.8199 4.27573 14.9149ZM16.3811 14.8976C14.1471 15.1417 12.2203 16.1082 10.6961 17.7492C9.52966 19.0051 8.9193 20.378 8.59186 22.4823C8.41825 23.5977 8.42613 29.5414 8.60192 30.1585C8.75498 30.6957 9.11042 31.1969 9.56321 31.5142C10.2803 32.0166 10.0155 32.0005 17.539 31.9998C21.5784 31.9995 24.5492 31.9703 24.9277 31.9273C26.3256 31.7686 26.8187 31.4795 27.2404 30.5714L27.46 30.0985L27.4813 26.5101C27.4994 23.4538 27.4855 22.8166 27.3875 22.2129C27.0837 20.3404 26.2831 18.7708 24.9303 17.3955C23.4048 15.8448 21.8141 15.0766 19.804 14.9202C18.9298 14.8521 16.9188 14.8389 16.3811 14.8976ZM29.2186 14.9139C28.9091 14.9447 28.4659 15.026 28.2338 15.0947C27.7871 15.2268 27.0064 15.6211 26.7352 15.8517L26.573 15.9896L27.0527 16.5561C28.3129 18.044 29.0452 19.6375 29.4007 21.6657C29.5446 22.4866 29.5614 22.8648 29.5993 26.1154L29.6406 29.6679H31.9971C34.3288 29.6679 34.3574 29.6661 34.7243 29.497C34.9533 29.3914 35.2287 29.1768 35.4449 28.9355C36.0326 28.2793 36.0159 28.4529 35.9906 23.2696C35.9686 18.7662 35.9684 18.7584 35.806 18.2926C35.5253 17.4875 35.1753 16.9277 34.5669 16.3111C33.939 15.6746 33.1947 15.2367 32.3851 15.0274C31.8872 14.8987 30.0375 14.8324 29.2186 14.9139Z" fill="#8800FF"/>
</svg>
