<svg width="39" height="39" viewBox="0 0 39 39" fill="none" xmlns="http://www.w3.org/2000/svg">
<rect width="39" height="39" rx="4" fill="#F7F4FF"/>
<path fill-rule="evenodd" clip-rule="evenodd" d="M19.1271 8.06762C18.4578 8.22082 17.7032 8.64184 17.1994 9.1431C15.4986 10.8356 15.4964 13.6672 17.1946 15.3779C17.9782 16.1673 18.8865 16.5454 19.9993 16.5454C21.1122 16.5454 22.0205 16.1673 22.8041 15.3779C24.4747 13.695 24.5094 10.9624 22.8818 9.25323C22.2809 8.62221 21.6265 8.24164 20.8449 8.0686C20.4335 7.97757 19.5228 7.97703 19.1271 8.06762ZM11.0142 11.2453C9.9812 11.5565 9.24527 12.5385 9.17986 13.6932C9.13488 14.4871 9.38197 15.1721 9.9229 15.7531C10.9588 16.8657 12.6779 16.8219 13.664 15.6578C14.2778 14.9332 14.4798 13.899 14.1875 12.9777C13.9219 12.1405 13.2197 11.4457 12.4168 11.2257C12.0569 11.1271 11.3751 11.1367 11.0142 11.2453ZM27.5212 11.2453C26.4882 11.5565 25.7523 12.5385 25.6868 13.6932C25.6419 14.4871 25.889 15.1721 26.4299 15.7531C27.4658 16.8657 29.1849 16.8219 30.171 15.6578C30.7848 14.9332 30.9868 13.899 30.6945 12.9777C30.4289 12.1405 29.7266 11.4457 28.9238 11.2257C28.5639 11.1271 27.882 11.1367 27.5212 11.2453ZM10.8505 18.254C10.0925 18.338 9.50338 18.6413 8.92658 19.2444C8.59756 19.5885 8.48619 19.7459 8.32731 20.0913C7.99046 20.8234 7.98985 20.8314 8.00462 24.2928L8.01771 27.3605L8.1235 27.5689C8.28946 27.8956 8.49411 28.1098 8.78294 28.259L9.04939 28.3967H10.6438H12.2382L12.2662 25.979C12.2962 23.3939 12.3211 23.0736 12.5655 22.1304C12.8337 21.0954 13.2988 20.1829 13.9729 19.3697L14.2845 18.9938L14.1758 18.8986C13.9648 18.7136 13.4345 18.4506 13.0804 18.3553C12.6688 18.2445 11.4394 18.1887 10.8505 18.254ZM18.9208 18.2421C17.4314 18.4099 16.1469 19.0744 15.1308 20.2026C14.3531 21.066 13.9462 22.0099 13.7279 23.4566C13.6122 24.2234 13.6174 28.3097 13.7346 28.734C13.8367 29.1033 14.0736 29.4479 14.3755 29.666C14.8535 30.0114 14.677 30.0003 19.6926 29.9999C22.3856 29.9996 24.3661 29.9796 24.6185 29.95C25.5504 29.8409 25.8791 29.6422 26.1603 29.0178L26.3067 28.6927L26.3209 26.2257C26.3329 24.1245 26.3237 23.6864 26.2583 23.2714C26.0558 21.984 25.5221 20.9049 24.6202 19.9594C23.6032 18.8933 22.5427 18.3652 21.2027 18.2576C20.6199 18.2108 19.2792 18.2017 18.9208 18.2421ZM27.4791 18.2533C27.2727 18.2745 26.9773 18.3304 26.8225 18.3776C26.5247 18.4684 26.0043 18.7395 25.8234 18.8981L25.7153 18.9928L26.0351 19.3823C26.8753 20.4052 27.3635 21.5008 27.6005 22.8952C27.6964 23.4596 27.7076 23.7195 27.7329 25.9543L27.7604 28.3967H29.3314C30.8859 28.3967 30.905 28.3955 31.1495 28.2792C31.3022 28.2066 31.4858 28.0591 31.6299 27.8932C32.0217 27.4421 32.0106 27.5614 31.9937 23.9979C31.9791 20.9017 31.9789 20.8964 31.8707 20.5762C31.6835 20.0226 31.4502 19.6378 31.0446 19.2139C30.626 18.7763 30.1298 18.4753 29.59 18.3313C29.2582 18.2429 28.025 18.1973 27.4791 18.2533Z" fill="#11002C"/>
</svg>
