<svg width="19" height="19" viewBox="0 0 19 19" fill="none" xmlns="http://www.w3.org/2000/svg">
<path d="M9.5 0C10.2495 0 10.8574 0.607892 10.8574 1.35742V8.14258H17.6426C18.3921 8.14258 19 8.75047 19 9.5C19 10.2495 18.3921 10.8574 17.6426 10.8574H10.8574V17.6426C10.8574 18.3921 10.2495 19 9.5 19C8.75047 19 8.14258 18.3921 8.14258 17.6426V10.8574H1.35742C0.607893 10.8574 2.22807e-07 10.2495 0 9.5C3.2763e-08 8.75047 0.607892 8.14258 1.35742 8.14258H8.14258V1.35742C8.14258 0.607893 8.75047 1.93277e-07 9.5 0Z" fill="#F7F4FF"/>
</svg>
