<svg width="23" height="24" viewBox="0 0 23 24" fill="none" xmlns="http://www.w3.org/2000/svg">
<g clip-path="url(#clip0_123_418)">
<path d="M5.36442 0.323979H11.0208L8.32178 3.30052H5.36442C5.03063 3.30078 4.70019 3.37073 4.39212 3.50632C4.08405 3.64191 3.80445 3.84048 3.56942 4.09058C3.33241 4.3386 3.14424 4.63365 3.01574 4.95874C2.88725 5.28382 2.82097 5.63252 2.82072 5.98475V21.0235H17.0722C17.406 21.0235 17.7365 20.9536 18.0446 20.818C18.3527 20.6824 18.6323 20.4837 18.8672 20.2335C19.1044 19.9856 19.2926 19.6905 19.4212 19.3654C19.5497 19.0403 19.6158 18.6915 19.6159 18.3393V15.2679L22.4366 12.1591V18.3393C22.4357 19.0815 22.2962 19.8162 22.0261 20.5014C21.756 21.1867 21.3606 21.8091 20.8625 22.333V22.3429C19.8603 23.4025 18.5002 23.9986 17.0815 24.0001H2.15251C1.58352 23.999 1.03821 23.7595 0.636393 23.3344C0.435423 23.1237 0.275777 22.8732 0.166581 22.5974C0.0573852 22.3215 0.000779654 22.0256 0 21.7267L0 5.98475C0.000939028 5.24287 0.140449 4.50847 0.410552 3.82353C0.680655 3.13859 1.07605 2.51655 1.57414 1.99298L1.5835 1.9752C2.07959 1.45019 2.66883 1.03345 3.31757 0.748776C3.9663 0.464102 4.66183 0.31707 5.36442 0.316079V0.323979ZM13.6637 15.104L8.15706 16.2891L8.95256 10.1049L13.6637 15.104ZM10.6933 8.23246L18.0249 0.179794C18.1036 0.0887204 18.2093 0.0287048 18.3247 0.00967004C18.4401 -0.00936473 18.5582 0.0137213 18.6594 0.075111L22.8671 4.37303C22.9121 4.41991 22.9472 4.47632 22.97 4.53855C22.9928 4.60077 23.0029 4.6674 22.9995 4.73403C22.9962 4.80066 22.9794 4.86578 22.9505 4.9251C22.9215 4.98441 22.881 5.03658 22.8315 5.07816L15.4007 13.2335L10.6933 8.23246Z" fill="#8800FF"/>
</g>
<defs>
<clipPath id="clip0_123_418">
<rect width="23" height="24" fill="white"/>
</clipPath>
</defs>
</svg>
