<svg width="28" height="28" viewBox="0 0 28 28" fill="none" xmlns="http://www.w3.org/2000/svg">
<path fill-rule="evenodd" clip-rule="evenodd" d="M21.2974 17.1086L21.6035 14.9094C21.6977 14.2328 21.7837 13.6142 21.8603 13.0468C22.0175 11.8807 22.0961 11.2977 21.7475 10.8989C21.3989 10.5 20.7997 10.5 19.6012 10.5H8.39897C7.20054 10.5 6.60133 10.5 6.25269 10.8989C5.90405 11.2977 5.98267 11.8807 6.13992 13.0468C6.21647 13.6144 6.30249 14.2326 6.39669 14.9094L6.70275 17.1087C7.03539 19.4988 7.20171 20.6939 7.55436 21.6538C8.21382 23.4486 9.35376 24.7855 10.7143 25.3597C11.4419 25.6667 12.2947 25.6667 14.0001 25.6667C15.7055 25.6667 16.5583 25.6667 17.2858 25.3597C18.6464 24.7855 19.7864 23.4486 20.4458 21.6538C20.7985 20.6939 20.9648 19.4988 21.2974 17.1086ZM12.5417 12.8334C12.5417 12.3501 12.15 11.9584 11.6667 11.9584C11.1835 11.9584 10.7917 12.3501 10.7917 12.8334V22.1667C10.7917 22.65 11.1835 23.0417 11.6667 23.0417C12.15 23.0417 12.5417 22.65 12.5417 22.1667V12.8334ZM17.2084 12.8334C17.2084 12.3501 16.8167 11.9584 16.3334 11.9584C15.8502 11.9584 15.4584 12.3501 15.4584 12.8334V22.1667C15.4584 22.65 15.8502 23.0417 16.3334 23.0417C16.8167 23.0417 17.2084 22.65 17.2084 22.1667V12.8334Z" fill="#F7F4FF"/>
<path d="M14.0001 1.45837C10.9395 1.45837 8.45842 3.93946 8.45842 7.00004V7.29171H4.66675C4.1835 7.29171 3.79175 7.68346 3.79175 8.16671C3.79175 8.64996 4.1835 9.04171 4.66675 9.04171H23.3334C23.8167 9.04171 24.2084 8.64996 24.2084 8.16671C24.2084 7.68346 23.8167 7.29171 23.3334 7.29171H19.5417V7.00004C19.5417 3.93946 17.0607 1.45837 14.0001 1.45837Z" fill="#F7F4FF"/>
</svg>
