<svg width="798" height="595" viewBox="0 0 798 595" fill="none" xmlns="http://www.w3.org/2000/svg">
<path d="M798 522.53H0V522.929H798V522.53Z" fill="#EBEBEB"/>
<path d="M708.448 537.724H655.589V538.123H708.448V537.724Z" fill="#EBEBEB"/>
<path d="M289.403 543.135H209.826V543.534H289.403V543.135Z" fill="#EBEBEB"/>
<path d="M653.993 552.551H606.863V552.95H653.993V552.551Z" fill="#EBEBEB"/>
<path d="M118.2 549.87H83.7261V550.269H118.2V549.87Z" fill="#EBEBEB"/>
<path d="M193.643 549.87H132.404V550.269H193.643V549.87Z" fill="#EBEBEB"/>
<path d="M528.627 533.399H379.114V533.798H528.627V533.399Z" fill="#EBEBEB"/>
<path d="M378.252 451.349H70.0804C67.6662 451.345 65.3523 450.383 63.6467 448.674C61.9411 446.965 60.9832 444.65 60.9832 442.236V9.03336C61.0042 6.63302 61.9714 4.33789 63.6747 2.64652C65.378 0.955139 67.6799 0.00411191 70.0804 0H378.252C380.669 0 382.987 0.960134 384.696 2.66918C386.405 4.37823 387.365 6.6962 387.365 9.11316V442.236C387.365 444.653 386.405 446.971 384.696 448.68C382.987 450.389 380.669 451.349 378.252 451.349ZM70.0804 0.319201C67.772 0.323429 65.5596 1.24339 63.9288 2.87715C62.2981 4.51092 61.3822 6.72498 61.3822 9.03336V442.236C61.3822 444.544 62.2981 446.758 63.9288 448.392C65.5596 450.026 67.772 450.946 70.0804 450.95H378.252C380.562 450.946 382.776 450.026 384.409 448.393C386.042 446.76 386.962 444.546 386.966 442.236V9.03336C386.962 6.72352 386.042 4.50949 384.409 2.87618C382.776 1.24287 380.562 0.32342 378.252 0.319201H70.0804Z" fill="#EBEBEB"/>
<path d="M723.483 451.349H415.295C412.879 451.345 410.564 450.383 408.856 448.675C407.148 446.967 406.186 444.651 406.182 442.236V9.03336C406.207 6.63156 407.178 4.33645 408.884 2.64552C410.59 0.954581 412.893 0.00406707 415.295 0H723.483C725.88 0.00830638 728.178 0.96119 729.878 2.65212C731.578 4.34305 732.543 6.63577 732.564 9.03336V442.236C732.564 444.647 731.608 446.96 729.906 448.668C728.204 450.376 725.894 451.34 723.483 451.349ZM415.295 0.319201C412.985 0.32342 410.771 1.24287 409.138 2.87618C407.505 4.50949 406.585 6.72352 406.581 9.03336V442.236C406.585 444.546 407.505 446.76 409.138 448.393C410.771 450.026 412.985 450.946 415.295 450.95H723.483C725.792 450.946 728.007 450.026 729.64 448.393C731.273 446.76 732.193 444.546 732.197 442.236V9.03336C732.193 6.72352 731.273 4.50949 729.64 2.87618C728.007 1.24287 725.792 0.32342 723.483 0.319201H415.295Z" fill="#EBEBEB"/>
<path d="M299.824 292.339H474.283L474.283 43.8741L299.824 43.8741V292.339Z" fill="#E6E6E6"/>
<path d="M293.153 292.339H467.612L467.612 43.8741L293.153 43.8741V292.339Z" fill="#F5F5F5"/>
<path d="M455.626 281.151V55.062L305.139 55.062V281.151H455.626Z" fill="white"/>
<path d="M310.198 281.136V55.0461H305.155V281.136H310.198Z" fill="#E6E6E6"/>
<path d="M298.117 229.026L462.665 229.026V214.008L298.117 214.008V229.026Z" fill="#F5F5F5"/>
<path d="M298.117 89.7908L462.665 89.7908V74.7724L298.117 74.7724V89.7908Z" fill="#F5F5F5"/>
<path d="M87.3332 292.339H261.792L261.792 43.8741L87.3332 43.8741L87.3332 292.339Z" fill="#E6E6E6"/>
<path d="M80.6618 292.339H255.121L255.121 43.8741L80.6618 43.8741L80.6618 292.339Z" fill="#F5F5F5"/>
<path d="M243.135 281.136V55.0461L92.6479 55.0461V281.136H243.135Z" fill="white"/>
<path d="M97.6912 281.151L97.6912 55.062H92.6478L92.6478 281.151H97.6912Z" fill="#E6E6E6"/>
<path d="M85.6094 229.026L250.157 229.026V214.008L85.6094 214.008V229.026Z" fill="#F5F5F5"/>
<path d="M85.6094 89.7908L250.157 89.7908V74.7724L85.6094 74.7724V89.7908Z" fill="#F5F5F5"/>
<path d="M678.619 371.581C687.588 366.25 694.212 357.217 693.063 336.469C691.116 301.788 664.59 297.75 658.589 282.731C660.783 280.275 662.532 277.456 663.76 274.4C672.586 254.035 653.259 246.566 663.106 235.49C669.059 228.787 664.702 219.833 657.679 215.364C650.657 210.895 646.667 209.762 650.146 202.708C653.865 195.143 645.247 179.582 632.127 180.859C617.444 182.295 617.317 172.224 607.533 176.15C597.75 180.077 609.049 189.988 594.494 195.622C593.117 196.068 591.842 196.785 590.746 197.731C589.65 198.676 588.754 199.831 588.11 201.128C578.789 197.026 567.553 196.34 557.786 202.516C533.702 217.678 524.781 200.426 511.31 215.651C497.84 230.877 525.898 238.171 505.66 260.467C492.158 275.358 502.197 289.61 516.673 297.255C500.713 298.053 493.228 318.178 499.005 326.542C504.4 334.362 499.963 336.373 492.238 343.012C484.513 349.652 481.066 361.063 489.317 368.022C503.043 379.513 481.337 391.866 495.414 414.641C515.396 446.816 546.885 391.435 562.446 447.359C564.473 454.652 561.074 473.453 566.484 474.826C576.555 487.849 602.314 483.189 614.907 476.693C616.311 476.023 614.125 465.824 615.385 464.915C620.317 461.635 624.683 457.577 628.313 452.897C641.975 445.842 651.854 469.288 668.995 448.923C683.359 431.941 666.92 419.237 679.545 411.449C687.174 406.661 685.625 396.941 680.119 390.621C674.613 384.301 671.182 382.098 676.528 376.257C677.625 374.91 678.347 373.297 678.619 371.581Z" fill="#EAE5FF"/>
<path d="M549.471 463.893C549.471 463.893 550.62 522.53 595.467 522.53C640.315 522.53 641.448 463.893 641.448 463.893H549.471Z" fill="#F0F0F0"/>
<path d="M240.597 522.53V315.657H111.72V522.53H240.597Z" fill="#F0F0F0"/>
<path d="M233.511 381.747V320.844H118.79V381.747H233.511Z" fill="#E6E6E6"/>
<path d="M233.511 448.109V387.206H118.79V448.109H233.511Z" fill="#E6E6E6"/>
<path d="M233.511 514.47V453.567H118.79V514.47H233.511Z" fill="#E6E6E6"/>
<path d="M163.909 381.747V320.844H118.79V381.747H163.909Z" fill="#E0E0E0"/>
<path d="M163.909 448.109V387.206H118.79V448.109H163.909Z" fill="#E0E0E0"/>
<path d="M184.115 448.109H215.38V423.786H184.115V448.109Z" fill="#F0F0F0"/>
<path d="M228.579 423.77H215.38V448.093H228.579V423.77Z" fill="#E0E0E0"/>
<path d="M133.617 448.109H164.883V423.786H133.617V448.109Z" fill="#F0F0F0"/>
<path d="M178.082 423.77H164.883V448.093H178.082V423.77Z" fill="#E0E0E0"/>
<path d="M163.909 514.471V453.567H118.79V514.471H163.909Z" fill="#E0E0E0"/>
<path d="M275.581 522.53V315.657H240.581V522.53H275.581Z" fill="#F5F5F5"/>
<path d="M149.258 514.471H219.737V462.345H149.258V514.471Z" fill="#F0F0F0"/>
<path d="M233.527 462.345H219.737V514.471H233.527V462.345Z" fill="#E0E0E0"/>
<path d="M126.563 381.731H219.721V329.606H126.563V381.731Z" fill="#FAFAFA"/>
<path d="M233.527 329.622H219.737V381.747H233.527V329.622Z" fill="#F0F0F0"/>
<path d="M379.034 522.514V315.641H250.157V522.514H379.034Z" fill="#F0F0F0"/>
<path d="M371.948 381.747V320.844H257.227V381.747H371.948Z" fill="#E6E6E6"/>
<path d="M371.948 448.109V387.206H257.227V448.109H371.948Z" fill="#E6E6E6"/>
<path d="M371.948 514.471V453.567H257.227V514.471H371.948Z" fill="#E6E6E6"/>
<path d="M302.362 381.747V320.844H257.243V381.747H302.362Z" fill="#E0E0E0"/>
<path d="M302.362 448.109V387.206H257.243V448.109H302.362Z" fill="#E0E0E0"/>
<path d="M274.432 381.747H305.698V357.424H274.432V381.747Z" fill="#F0F0F0"/>
<path d="M318.897 357.408H305.698V381.731H318.897V357.408Z" fill="#E0E0E0"/>
<path d="M312.305 381.731H352.445V350.481H312.305V381.731Z" fill="#F0F0F0"/>
<path d="M369.394 350.498H352.445V381.747H369.394V350.498Z" fill="#E0E0E0"/>
<path d="M302.362 514.471V453.567H257.243V514.471H302.362Z" fill="#E0E0E0"/>
<path d="M414.018 522.53V315.657H379.018V522.53H414.018Z" fill="#F5F5F5"/>
<path d="M270.091 514.455H355.302V501.128H270.091V514.455Z" fill="#F0F0F0"/>
<path d="M371.964 501.144H355.302V514.47H371.964V501.144Z" fill="#E0E0E0"/>
<path d="M285.046 448.109H360.76V405.751H285.046V448.109Z" fill="#FAFAFA"/>
<path d="M371.964 405.735H360.76V448.093H371.964V405.735Z" fill="#F0F0F0"/>
<path d="M399 594.606C569.904 594.606 708.448 586.517 708.448 576.539C708.448 566.561 569.904 558.472 399 558.472C228.096 558.472 89.5515 566.561 89.5515 576.539C89.5515 586.517 228.096 594.606 399 594.606Z" fill="#EAE5FF"/>
<path d="M445.795 547.157L434.271 543.741L439.091 516.13L450.63 519.53L445.795 547.157Z" fill="#FFBE9D"/>
<path d="M545.928 564.25H533.894L530.893 536.4H542.927L545.928 564.25Z" fill="#FFBE9D"/>
<path d="M532.904 562.862H547.572C547.81 562.857 548.043 562.935 548.229 563.084C548.416 563.233 548.545 563.442 548.593 563.675L550.971 574.369C551.029 574.629 551.028 574.899 550.966 575.159C550.904 575.418 550.784 575.66 550.615 575.866C550.446 576.072 550.232 576.237 549.989 576.348C549.747 576.459 549.482 576.514 549.215 576.507C544.427 576.428 541.044 576.156 535.107 576.156C531.452 576.156 520.424 576.539 515.38 576.539C510.337 576.539 509.667 571.544 511.725 571.097C520.998 569.07 527.989 566.309 530.957 563.596C531.493 563.118 532.187 562.856 532.904 562.862Z" fill="#263238"/>
<path d="M434.734 542.432L447.343 546.167C447.57 546.235 447.767 546.377 447.904 546.571C448.04 546.766 448.106 547 448.093 547.236L447.327 558.169C447.314 558.436 447.241 558.697 447.112 558.931C446.983 559.166 446.803 559.367 446.584 559.521C446.365 559.675 446.115 559.777 445.851 559.82C445.586 559.862 445.316 559.843 445.06 559.765C440.544 558.345 434.064 556.126 428.35 554.45C421.663 552.471 415.79 551.131 407.954 548.816C403.166 547.412 403.325 542.241 405.432 542.432C415.008 543.135 422.477 545.098 431.702 542.592C432.679 542.261 433.728 542.205 434.734 542.432Z" fill="#263238"/>
<path d="M518.54 197.01C512.364 201.399 506.171 205.421 499.771 209.347C493.372 213.273 486.892 216.96 480.141 220.423L477.603 221.716L476.901 222.067L475.736 222.61C474.945 222.928 474.135 223.195 473.31 223.408C470.296 224.152 467.147 224.152 464.133 223.408C459.585 222.192 455.351 220.015 451.716 217.024C445.514 211.97 440.191 205.925 435.963 199.133L442.938 193.403C448.062 197.94 453.622 201.96 459.536 205.405C461.852 206.792 464.416 207.714 467.085 208.118C467.691 208.213 468.312 208.112 468.857 207.831C468.917 207.797 468.971 207.754 469.017 207.703L469.096 207.623L469.591 207.32L471.873 205.9C477.938 202.085 484.003 198.111 490.036 194.089L508.166 182.072L518.54 197.01Z" fill="#FFBE9D"/>
<path d="M484.019 193.419L497.106 221.668C555.025 202.516 537.182 158.004 484.019 193.419Z" fill="#263238"/>
<path opacity="0.2" d="M514.774 194.856C507.344 202.085 501.888 211.096 498.926 221.03C510.704 216.944 519.163 211.773 524.717 206.522L514.774 194.856Z" fill="black"/>
<path d="M444.231 196.053L439.969 183.955L429.787 193.531C430.512 195.198 431.581 196.693 432.923 197.92C434.265 199.146 435.85 200.076 437.575 200.649L444.231 196.053Z" fill="#FFBE9D"/>
<path d="M433.075 180.715L425.143 189.509L429.787 193.515L439.969 183.955L433.075 180.715Z" fill="#FFBE9D"/>
<path opacity="0.2" d="M439.091 516.13L436.602 530.367L448.141 533.782L450.63 519.546L439.091 516.13Z" fill="black"/>
<path opacity="0.2" d="M542.927 536.4H530.893L532.441 550.764H544.475L542.927 536.4Z" fill="black"/>
<path d="M573.475 190.499C574.354 190.816 575.16 191.306 575.847 191.94C576.535 192.573 577.088 193.338 577.476 194.188C577.864 195.038 578.079 195.957 578.107 196.891C578.135 197.825 577.976 198.756 577.64 199.628C573.725 210.014 570.416 220.619 567.729 231.388C565.447 240.501 563.659 249.247 562.223 257.196C558.871 275.837 557.435 290.185 556.318 294.957L493.164 282.492C504.959 188.663 513.992 180.604 513.992 180.604C519.147 180.281 524.318 180.281 529.473 180.604C530.537 180.667 531.638 180.763 532.777 180.891C541.82 182.131 550.783 183.895 559.622 186.174C561.218 186.588 562.989 187.051 564.633 187.546C567.873 188.552 570.937 189.589 573.475 190.499Z" fill="#263238"/>
<path opacity="0.2" d="M562.015 208.246C560.676 218.002 562.212 227.936 566.436 236.831C566.835 235.027 567.282 233.224 567.729 231.404C569.453 224.557 571.464 217.503 573.826 210.417L562.015 208.246Z" fill="black"/>
<path d="M562.957 155.498L543.693 166.319C544.06 173.358 542.895 180.54 532.809 180.939C530.59 183.492 528.372 189.509 535.649 194.856L534.053 199.819C548.417 198.766 556.605 190.93 559.589 186.237C554.738 179.279 559.558 163.797 562.957 155.498Z" fill="#FFBE9D"/>
<path d="M515.508 287.28C515.405 287.264 515.312 287.209 515.249 287.125C515.186 287.041 515.159 286.937 515.173 286.833C522.083 233.335 535.123 195.063 535.25 194.68C535.29 194.582 535.363 194.503 535.457 194.456C535.551 194.409 535.659 194.398 535.761 194.425C535.861 194.461 535.943 194.534 535.991 194.629C536.038 194.724 536.047 194.834 536.016 194.935C535.873 195.318 522.865 233.527 515.955 286.929C515.951 286.982 515.936 287.034 515.911 287.082C515.886 287.129 515.851 287.171 515.809 287.204C515.767 287.237 515.719 287.261 515.667 287.274C515.615 287.287 515.561 287.289 515.508 287.28Z" fill="white"/>
<path d="M526.281 199.5C529.226 197.617 532.367 196.06 535.649 194.856C533.926 193.02 532.872 184.402 534.197 180.412H531.005C531.005 180.412 523.695 183.013 526.281 199.5Z" fill="white"/>
<path d="M546.805 204.623C545.726 201.95 543.931 199.625 541.618 197.904C546.805 196.308 555.679 191.871 558.696 183.987C559.925 184.992 561.888 186.397 561.888 186.397C561.888 186.397 564.984 198.239 546.805 204.623Z" fill="white"/>
<path d="M537.485 203.634C537.277 204.623 536.623 205.421 536.032 205.421C535.442 205.421 535.107 204.607 535.298 203.618C535.49 202.628 536.144 201.83 536.75 201.83C537.357 201.83 537.676 202.692 537.485 203.634Z" fill="white"/>
<path opacity="0.2" d="M555.105 159.919L543.709 166.303C543.817 167.947 543.779 169.597 543.597 171.235C547.38 171.426 553.173 168.394 554.386 164.611C554.905 163.103 555.148 161.514 555.105 159.919Z" fill="black"/>
<path d="M543.63 119.493C535.394 121.488 531.468 138.357 541.778 144.071C561.904 139.539 566.851 113.859 543.63 119.493Z" fill="#263238"/>
<path d="M569.389 141.932C565.989 153.376 564.601 160.239 557.339 164.851C546.454 171.778 533.399 163.143 533.255 150.918C533.176 139.906 538.746 123.036 551.179 121.041C553.918 120.591 556.727 120.848 559.339 121.788C561.951 122.728 564.28 124.32 566.104 126.413C567.928 128.506 569.188 131.03 569.762 133.746C570.337 136.462 570.209 139.28 569.389 141.932Z" fill="#FFBE9D"/>
<path d="M571.671 126.084C559.972 123.259 556.461 147.853 566.755 153.567C590.52 148.189 583.992 129.005 571.671 126.084Z" fill="#263238"/>
<path d="M568.846 119.157C555.999 116.763 548.098 106.389 548.098 106.389C548.098 106.389 537.357 114.689 540.422 121.136C543.486 127.584 557.882 134.846 564.792 135.117C564.792 135.117 561.6 150.311 575.278 141.757C593.616 130.345 580.944 121.424 568.846 119.157Z" fill="#263238"/>
<path d="M579.683 134.958C582.926 136.73 585.432 139.598 586.753 143.049C587.759 134.064 581.534 134.718 579.683 134.958Z" fill="#263238"/>
<path d="M549.662 127.68C543.837 125.889 538.844 122.074 535.585 116.923C536.894 131.686 546.757 128.622 549.662 127.68Z" fill="#263238"/>
<path d="M543.949 152.913C545.312 153.254 546.737 153.266 548.105 152.946C549.473 152.627 550.746 151.987 551.817 151.077C551.871 151.019 551.901 150.942 551.901 150.862C551.901 150.782 551.871 150.705 551.817 150.647C551.789 150.618 551.755 150.595 551.718 150.58C551.681 150.565 551.642 150.557 551.602 150.557C551.562 150.557 551.522 150.565 551.485 150.58C551.448 150.595 551.414 150.618 551.386 150.647C550.387 151.479 549.207 152.064 547.939 152.355C546.672 152.646 545.355 152.635 544.093 152.322C544.02 152.321 543.949 152.345 543.892 152.39C543.835 152.434 543.794 152.497 543.777 152.568C543.761 152.639 543.769 152.713 543.8 152.779C543.831 152.844 543.884 152.897 543.949 152.929V152.913Z" fill="#263238"/>
<path d="M570.442 153.791C568.68 155.709 566.257 156.89 563.659 157.094C560.388 157.27 559.861 153.902 561.696 151.045C563.292 148.428 567.059 145.204 569.9 146.401C572.741 147.598 572.709 151.349 570.442 153.791Z" fill="#FFBE9D"/>
<path d="M433.059 526.425L452.61 532.202C452.61 532.202 472.161 465.649 484.306 424.392C487.498 413.46 492.446 398.074 498.303 381.763C505.693 361.207 514.502 339.086 521.621 321.785C529.106 303.559 534.692 290.695 534.692 290.695L493.164 282.492C493.164 282.492 458.307 377.773 450.599 413.683C442.619 451.046 433.059 526.425 433.059 526.425Z" fill="#8800FF"/>
<path opacity="0.2" d="M498.303 381.763C505.692 361.207 514.502 339.086 521.621 321.786L518.429 311.875C506.506 322.919 498.909 360.696 498.303 381.763Z" fill="black"/>
<path d="M515.508 286.929C515.508 286.929 507.161 390.015 507.129 425.27C507.129 463.862 526.824 547.987 526.824 547.987H548.864C548.864 547.987 540.246 473.549 540.07 435.692C539.879 392.824 556.254 294.973 556.254 294.973L515.508 286.929Z" fill="#8800FF"/>
<path d="M524.254 548.45H550.205V540.709L521.19 540.198L524.254 548.45Z" fill="#263238"/>
<path d="M431.702 526.52L453.759 533.048L457.095 525.467L431.958 517.998L431.702 526.52Z" fill="#263238"/>
<path d="M551.019 141.103C550.812 142.044 550.125 142.699 549.503 142.555C548.88 142.411 548.561 141.533 548.785 140.592C549.008 139.65 549.678 138.996 550.301 139.139C550.923 139.283 551.242 140.161 551.019 141.103Z" fill="#263238"/>
<path d="M540.342 138.629C540.118 139.586 539.448 140.225 538.826 140.081C538.203 139.937 537.884 139.06 538.107 138.118C538.331 137.176 539.001 136.522 539.608 136.666C540.214 136.809 540.549 137.687 540.342 138.629Z" fill="#263238"/>
<path d="M543.63 139.889C541.835 142.517 539.687 144.886 537.246 146.928C538.554 148.875 541.746 148.62 541.746 148.62L543.63 139.889Z" fill="#EB996E"/>
<path d="M555.137 138.421C555.032 138.413 554.932 138.377 554.845 138.319C554.759 138.26 554.689 138.18 554.642 138.086C554.367 137.414 553.933 136.819 553.377 136.352C552.82 135.885 552.159 135.56 551.45 135.405C551.303 135.377 551.172 135.294 551.086 135.171C550.999 135.049 550.964 134.898 550.987 134.75C551.011 134.6 551.093 134.465 551.216 134.376C551.338 134.286 551.491 134.249 551.642 134.271C552.524 134.471 553.346 134.877 554.039 135.458C554.733 136.038 555.279 136.774 555.632 137.607C555.692 137.747 555.696 137.905 555.642 138.048C555.589 138.191 555.482 138.307 555.344 138.373C555.278 138.398 555.208 138.414 555.137 138.421Z" fill="#263238"/>
<path d="M536.607 133.888C536.488 133.88 536.372 133.842 536.272 133.777C536.156 133.678 536.083 133.538 536.068 133.386C536.053 133.234 536.098 133.083 536.192 132.963C536.752 132.235 537.48 131.655 538.314 131.271C539.148 130.887 540.063 130.712 540.98 130.76C541.062 130.757 541.144 130.772 541.219 130.803C541.295 130.834 541.364 130.881 541.42 130.941C541.476 131.001 541.519 131.072 541.545 131.149C541.572 131.227 541.581 131.309 541.573 131.391C541.565 131.472 541.54 131.551 541.498 131.622C541.457 131.693 541.402 131.755 541.335 131.802C541.268 131.85 541.192 131.883 541.111 131.898C541.031 131.914 540.948 131.912 540.868 131.893C540.154 131.877 539.445 132.031 538.802 132.341C538.158 132.652 537.597 133.111 537.166 133.681C537.1 133.763 537.014 133.826 536.915 133.863C536.817 133.899 536.71 133.908 536.607 133.888Z" fill="#263238"/>
<path d="M528.93 564.984C528.111 565.048 527.294 564.828 526.616 564.362C526.401 564.18 526.234 563.948 526.131 563.686C526.028 563.424 525.992 563.141 526.026 562.861C526.025 562.695 526.069 562.532 526.153 562.389C526.238 562.246 526.359 562.128 526.505 562.047C527.845 561.361 531.723 563.755 532.154 564.026C532.203 564.055 532.241 564.098 532.264 564.15C532.287 564.201 532.293 564.259 532.282 564.314C532.275 564.37 532.251 564.422 532.214 564.465C532.177 564.507 532.129 564.538 532.075 564.553C531.045 564.81 529.991 564.955 528.93 564.984ZM527.143 562.494C527.022 562.466 526.897 562.466 526.776 562.494C526.715 562.525 526.664 562.574 526.63 562.633C526.596 562.693 526.58 562.761 526.584 562.829C526.563 563.022 526.589 563.216 526.658 563.397C526.727 563.577 526.839 563.738 526.983 563.867C528.326 564.474 529.849 564.548 531.245 564.074C529.993 563.282 528.6 562.74 527.143 562.478V562.494Z" fill="#8800FF"/>
<path d="M532.011 564.537H531.867C530.622 563.867 528.212 561.217 528.468 559.877C528.514 559.67 528.63 559.485 528.795 559.351C528.96 559.218 529.165 559.144 529.377 559.143C529.594 559.11 529.815 559.127 530.025 559.19C530.235 559.254 530.428 559.363 530.59 559.51C531.995 560.643 532.282 564.122 532.298 564.298C532.3 564.337 532.294 564.376 532.281 564.412C532.267 564.449 532.247 564.483 532.22 564.511C532.193 564.54 532.16 564.562 532.124 564.578C532.088 564.593 532.05 564.601 532.011 564.601V564.537ZM529.585 559.653H529.457C529.074 559.653 529.042 559.861 529.042 559.941C528.883 560.739 530.415 562.718 531.66 563.659C531.569 562.291 531.075 560.98 530.239 559.893C530.053 559.743 529.823 559.659 529.585 559.653Z" fill="#8800FF"/>
<path d="M433.138 543.693C431.175 543.518 427.728 542.991 426.754 541.491C426.617 541.275 426.533 541.028 426.511 540.772C426.489 540.517 426.528 540.26 426.627 540.023C426.677 539.874 426.765 539.741 426.883 539.638C427 539.534 427.143 539.463 427.297 539.432C428.893 539.081 432.867 542.784 433.314 543.199C433.347 543.248 433.364 543.307 433.364 543.366C433.364 543.426 433.347 543.484 433.314 543.534C433.3 543.573 433.276 543.608 433.246 543.635C433.215 543.663 433.178 543.683 433.138 543.693ZM427.504 539.975H427.425C427.365 539.989 427.31 540.018 427.265 540.06C427.22 540.102 427.187 540.155 427.169 540.214C427.087 540.366 427.044 540.536 427.044 540.709C427.044 540.882 427.087 541.052 427.169 541.204C427.696 542.034 429.563 542.704 432.229 543.039C430.712 541.603 428.446 539.879 427.504 539.975Z" fill="#8800FF"/>
<path d="M433.138 543.694C433.072 543.721 432.997 543.721 432.931 543.694C431.734 542.656 429.739 539.352 430.298 538.108C430.441 537.804 430.776 537.501 431.542 537.645C431.822 537.692 432.089 537.797 432.325 537.954C432.562 538.111 432.763 538.315 432.915 538.554C434.032 540.15 433.426 543.342 433.394 543.534C433.387 543.582 433.367 543.626 433.336 543.663C433.305 543.7 433.264 543.727 433.218 543.741L433.138 543.694ZM431.111 538.108C431.05 538.108 430.99 538.124 430.936 538.155C430.883 538.186 430.839 538.23 430.808 538.283C430.457 539.033 431.75 541.475 432.915 542.816C433.182 541.465 433.02 540.064 432.452 538.81C432.218 538.463 431.857 538.222 431.447 538.139C431.337 538.116 431.224 538.105 431.111 538.108Z" fill="#8800FF"/>
<path d="M576.156 193.754C577.082 194.68 577.752 195.35 578.454 196.132C579.156 196.914 579.843 197.728 580.513 198.463C581.854 200.059 583.162 201.655 584.423 203.251C586.943 206.503 589.282 209.892 591.43 213.401C593.611 216.968 595.556 220.673 597.255 224.493C599.014 228.412 600.414 232.483 601.437 236.655L601.82 238.251L602.187 240.118C602.346 241.347 602.506 242.576 602.554 243.773C602.66 246.09 602.58 248.412 602.314 250.716C601.804 254.989 600.836 259.194 599.426 263.26C596.732 270.986 592.972 278.297 588.254 284.982L580.274 280.625L581.997 275.486C582.572 273.746 583.051 271.974 583.593 270.235C584.561 266.792 585.354 263.303 585.971 259.781C586.571 256.479 586.875 253.13 586.881 249.774C586.88 248.266 586.752 246.76 586.498 245.273C586.397 244.591 586.258 243.914 586.083 243.246L585.812 242.321L585.429 241.188C583.111 234.784 579.995 228.698 576.156 223.073C574.209 220.168 572.118 217.311 569.932 214.534C568.868 213.13 567.75 211.757 566.58 210.417L564.984 208.438L563.388 206.634L576.156 193.754Z" fill="#FFBE9D"/>
<path d="M558.297 211.167C562.047 221.748 566.42 229.792 572.581 235.713L595.675 213.704C574.56 172.48 552.567 195.031 558.297 211.167Z" fill="#263238"/>
<path d="M581.822 278.725L572.804 286.961L586.945 292.962C586.945 292.962 593.073 284.248 588.812 280.481L581.822 278.725Z" fill="#FFBE9D"/>
<path d="M571.065 296.856L582.987 301.261L586.945 292.962L572.804 286.961L571.065 296.856Z" fill="#FFBE9D"/>
<path d="M357.376 63.5843L263.835 86.5667L257.706 73.5433C257.45 72.9932 257.011 72.5492 256.463 72.2872C255.916 72.0252 255.295 71.9614 254.706 72.1069L196.771 86.3433C196.182 86.4898 195.662 86.835 195.299 87.3207C194.935 87.8063 194.751 88.4025 194.776 89.0086L195.382 103.373L158.004 112.566C156.96 112.826 156.061 113.489 155.505 114.411C154.949 115.332 154.78 116.436 155.035 117.481L185.87 242.943C185.995 243.462 186.222 243.952 186.538 244.384C186.853 244.815 187.25 245.18 187.707 245.458C188.164 245.735 188.671 245.919 189.2 246C189.728 246.08 190.267 246.056 190.786 245.927L390.126 196.93C391.173 196.673 392.076 196.011 392.635 195.09C393.195 194.168 393.366 193.062 393.111 192.014L362.292 66.5529C362.032 65.5086 361.368 64.6101 360.447 64.0538C359.526 63.4974 358.422 63.3286 357.376 63.5843Z" fill="#8800FF"/>
<path opacity="0.5" d="M357.376 63.5843L263.835 86.5667L257.706 73.5433C257.45 72.9932 257.011 72.5492 256.463 72.2872C255.916 72.0252 255.295 71.9614 254.706 72.1069L196.771 86.3433C196.182 86.4898 195.662 86.835 195.299 87.3207C194.935 87.8063 194.751 88.4025 194.776 89.0086L195.382 103.373L158.004 112.566C156.96 112.826 156.061 113.489 155.505 114.411C154.949 115.332 154.78 116.436 155.035 117.481L185.87 242.943C185.995 243.462 186.222 243.952 186.538 244.384C186.853 244.815 187.25 245.18 187.707 245.458C188.164 245.735 188.671 245.919 189.2 246C189.728 246.08 190.267 246.056 190.786 245.927L390.126 196.93C391.173 196.673 392.076 196.011 392.635 195.09C393.195 194.168 393.366 193.062 393.111 192.014L362.292 66.5529C362.032 65.5086 361.368 64.6101 360.447 64.0538C359.526 63.4974 358.422 63.3286 357.376 63.5843Z" fill="white"/>
<path d="M250.971 77.9671L202.802 89.8076L204.375 96.2086L252.545 84.368L250.971 77.9671Z" fill="white"/>
<path d="M360.169 105.336L259.621 130.042L253.493 117.018C253.237 116.468 252.797 116.024 252.25 115.762C251.703 115.5 251.081 115.436 250.492 115.582L192.558 129.818C191.97 129.962 191.451 130.304 191.087 130.787C190.723 131.27 190.538 131.864 190.563 132.468L191.169 146.832L160.845 154.285C159.798 154.542 158.895 155.204 158.336 156.125C157.776 157.047 157.605 158.153 157.86 159.201L188.695 284.662C188.952 285.709 189.614 286.612 190.536 287.171C191.457 287.731 192.563 287.902 193.611 287.647L392.967 238.649C393.485 238.522 393.973 238.294 394.403 237.978C394.833 237.662 395.196 237.265 395.472 236.808C395.748 236.351 395.931 235.845 396.01 235.317C396.09 234.79 396.065 234.252 395.936 233.734L365.117 108.272C364.85 107.227 364.179 106.33 363.251 105.78C362.323 105.229 361.215 105.069 360.169 105.336Z" fill="#8800FF"/>
<path opacity="0.4" d="M360.169 105.336L259.621 130.042L253.493 117.018C253.237 116.468 252.797 116.024 252.25 115.762C251.703 115.5 251.081 115.436 250.492 115.582L192.558 129.818C191.97 129.962 191.451 130.304 191.087 130.787C190.723 131.27 190.538 131.864 190.563 132.468L191.169 146.832L160.845 154.285C159.798 154.542 158.895 155.204 158.336 156.125C157.776 157.047 157.605 158.153 157.86 159.201L188.695 284.662C188.952 285.709 189.614 286.612 190.536 287.171C191.457 287.731 192.563 287.902 193.611 287.647L392.967 238.649C393.485 238.522 393.973 238.294 394.403 237.978C394.833 237.662 395.196 237.265 395.472 236.808C395.748 236.351 395.931 235.845 396.01 235.317C396.09 234.79 396.065 234.252 395.936 233.734L365.117 108.272C364.85 107.227 364.179 106.33 363.251 105.78C362.323 105.229 361.215 105.069 360.169 105.336Z" fill="white"/>
<path d="M246.756 121.385L198.586 133.225L200.16 139.626L248.33 127.785L246.756 121.385Z" fill="white"/>
<path d="M362.978 146.959L255.36 173.389L249.232 160.366C248.975 159.816 248.536 159.372 247.989 159.11C247.442 158.848 246.82 158.784 246.231 158.929L188.328 173.166C187.738 173.309 187.216 173.654 186.852 174.14C186.488 174.626 186.305 175.224 186.333 175.831L186.94 190.195L163.622 195.925C162.575 196.181 161.673 196.843 161.113 197.765C160.553 198.687 160.382 199.793 160.638 200.84L191.52 326.318C191.777 327.365 192.439 328.267 193.361 328.827C194.282 329.386 195.388 329.557 196.436 329.302L395.808 280.305C396.328 280.18 396.817 279.953 397.249 279.638C397.681 279.322 398.046 278.925 398.323 278.468C398.6 278.011 398.785 277.504 398.865 276.976C398.946 276.447 398.921 275.908 398.793 275.389L367.958 149.928C367.833 149.402 367.604 148.906 367.285 148.47C366.965 148.034 366.561 147.667 366.096 147.39C365.632 147.113 365.117 146.932 364.581 146.858C364.046 146.784 363.501 146.819 362.978 146.959Z" fill="#8800FF"/>
<path opacity="0.3" d="M362.978 146.959L255.36 173.389L249.232 160.366C248.975 159.816 248.536 159.372 247.989 159.11C247.442 158.848 246.82 158.784 246.231 158.929L188.328 173.166C187.738 173.309 187.216 173.654 186.852 174.14C186.488 174.626 186.305 175.224 186.333 175.831L186.94 190.195L163.622 195.925C162.575 196.181 161.673 196.843 161.113 197.765C160.553 198.687 160.382 199.793 160.638 200.84L191.52 326.318C191.777 327.365 192.439 328.267 193.361 328.827C194.282 329.386 195.388 329.557 196.436 329.302L395.808 280.305C396.328 280.18 396.817 279.953 397.249 279.638C397.681 279.322 398.046 278.925 398.323 278.468C398.6 278.011 398.785 277.504 398.865 276.976C398.946 276.447 398.921 275.908 398.793 275.389L367.958 149.928C367.833 149.402 367.604 148.906 367.285 148.47C366.965 148.034 366.561 147.667 366.096 147.39C365.632 147.113 365.117 146.932 364.581 146.858C364.046 146.784 363.501 146.819 362.978 146.959Z" fill="white"/>
<path d="M242.557 164.786L194.388 176.626L195.961 183.027L244.131 171.187L242.557 164.786Z" fill="white"/>
<path d="M443.034 191.919L325.201 197.904L321.642 183.955C321.492 183.366 321.143 182.848 320.654 182.487C320.166 182.126 319.567 181.946 318.961 181.976L259.382 185.008C258.775 185.038 258.197 185.277 257.747 185.684C257.296 186.091 257 186.642 256.908 187.242L254.786 201.479L238.028 202.341C237.494 202.365 236.97 202.495 236.486 202.723C236.003 202.95 235.569 203.272 235.21 203.668C234.851 204.064 234.574 204.527 234.394 205.03C234.215 205.534 234.137 206.068 234.165 206.602L240.741 335.623C240.794 336.7 241.273 337.711 242.072 338.435C242.871 339.159 243.925 339.537 245.002 339.485L450.072 329.063C451.149 329.009 452.161 328.53 452.885 327.731C453.609 326.932 453.986 325.879 453.934 324.802L447.359 195.765C447.333 195.227 447.199 194.699 446.966 194.213C446.734 193.727 446.407 193.292 446.004 192.934C445.601 192.576 445.131 192.301 444.621 192.127C444.111 191.953 443.571 191.882 443.034 191.919Z" fill="#8800FF"/>
<path opacity="0.2" d="M443.034 191.919L325.201 197.904L321.642 183.955C321.492 183.366 321.143 182.848 320.654 182.487C320.166 182.126 319.567 181.946 318.961 181.976L259.382 185.008C258.775 185.038 258.197 185.277 257.747 185.684C257.296 186.091 257 186.642 256.908 187.242L254.786 201.479L238.028 202.341C237.494 202.365 236.97 202.495 236.486 202.723C236.003 202.95 235.569 203.272 235.21 203.668C234.851 204.064 234.574 204.527 234.394 205.03C234.215 205.534 234.137 206.068 234.165 206.602L240.741 335.623C240.794 336.7 241.273 337.711 242.072 338.435C242.871 339.159 243.925 339.537 245.002 339.485L450.072 329.063C451.149 329.009 452.161 328.53 452.885 327.731C453.609 326.932 453.986 325.879 453.934 324.802L447.359 195.765C447.333 195.227 447.199 194.699 446.966 194.213C446.734 193.727 446.407 193.292 446.004 192.934C445.601 192.576 445.131 192.301 444.621 192.127C444.111 191.953 443.571 191.882 443.034 191.919Z" fill="white"/>
<path d="M314.17 187.077L264.63 189.596L264.965 196.179L314.504 193.66L314.17 187.077Z" fill="white"/>
<path d="M368.581 230.318L246.981 260.148L240.869 247.124C240.59 246.583 240.133 246.153 239.575 245.909C239.017 245.665 238.391 245.621 237.804 245.784L179.869 260.02C179.279 260.164 178.758 260.508 178.394 260.995C178.03 261.481 177.846 262.079 177.874 262.685L178.481 277.049L169.176 279.3C168.129 279.557 167.227 280.218 166.667 281.14C166.108 282.062 165.937 283.168 166.192 284.215L197.026 409.677C197.287 410.725 197.952 411.628 198.876 412.187C199.8 412.746 200.909 412.917 201.958 412.661L401.299 363.664C402.343 363.404 403.241 362.74 403.798 361.819C404.354 360.898 404.523 359.794 404.267 358.748L373.464 233.303C373.203 232.265 372.546 231.371 371.632 230.813C370.719 230.255 369.623 230.077 368.581 230.318Z" fill="#8800FF"/>
<path opacity="0.1" d="M368.581 230.318L246.981 260.148L240.869 247.124C240.59 246.583 240.133 246.153 239.575 245.909C239.017 245.665 238.391 245.621 237.804 245.784L179.869 260.02C179.279 260.164 178.758 260.508 178.394 260.995C178.03 261.481 177.846 262.079 177.874 262.685L178.481 277.049L169.176 279.3C168.129 279.557 167.227 280.218 166.667 281.14C166.108 282.062 165.937 283.168 166.192 284.215L197.026 409.677C197.287 410.725 197.952 411.628 198.876 412.187C199.8 412.746 200.909 412.917 201.958 412.661L401.299 363.664C402.343 363.404 403.241 362.74 403.798 361.819C404.354 360.898 404.523 359.794 404.267 358.748L373.464 233.303C373.203 232.265 372.546 231.371 371.632 230.813C370.719 230.255 369.623 230.077 368.581 230.318Z" fill="white"/>
<path d="M234.127 251.621L185.958 263.461L187.531 269.862L235.701 258.022L234.127 251.621Z" fill="white"/>
<path d="M371.392 272L172.064 320.997C169.881 321.533 168.547 323.738 169.084 325.92L199.919 451.366C200.456 453.549 202.66 454.884 204.843 454.347L404.171 405.351C406.354 404.814 407.688 402.61 407.152 400.427L376.316 274.981C375.779 272.798 373.575 271.464 371.392 272Z" fill="#8800FF"/>
<path d="M241.188 307.645L177.587 323.269C177.213 323.351 176.826 323.35 176.453 323.267C176.08 323.184 175.729 323.021 175.425 322.788C175.121 322.556 174.872 322.26 174.694 321.922C174.516 321.583 174.414 321.21 174.395 320.828L173.773 306.065C173.744 305.458 173.928 304.86 174.292 304.374C174.656 303.888 175.177 303.543 175.768 303.399L233.702 289.163C234.294 289.02 234.916 289.084 235.466 289.346C236.015 289.607 236.457 290.05 236.719 290.599L243.007 303.958C243.171 304.316 243.253 304.706 243.248 305.1C243.242 305.493 243.149 305.881 242.974 306.234C242.8 306.587 242.549 306.897 242.24 307.141C241.931 307.385 241.572 307.557 241.188 307.645Z" fill="#8800FF"/>
<path d="M229.912 295.022L181.742 306.863L183.316 313.264L231.486 301.423L229.912 295.022Z" fill="white"/>
</svg>
