<svg width="676" height="676" viewBox="0 0 676 676" fill="none" xmlns="http://www.w3.org/2000/svg">
<g clip-path="url(#clip0_150_1012)">
<path d="M372.327 525.59L224.797 474.971L37.3557 511.435L191.254 565.812L372.327 525.59Z" fill="#EAE5FF"/>
<path d="M372.327 525.59L224.756 475.106C225.148 475.106 37.3151 511.772 37.4098 511.772V511.123L191.267 565.636C190.794 565.771 372.435 525.522 372.273 525.59H372.327ZM372.327 525.59L191.24 565.987C191.24 565.987 37.2746 511.745 37.234 511.759L36.0713 511.34L37.2881 511.11C37.2881 511.11 224.797 474.822 224.811 474.809C224.824 474.795 372.273 525.59 372.327 525.59Z" fill="#EAE5FF"/>
<path d="M197.122 551.697C188.05 547.804 178.694 544.18 169.297 540.597C159.901 537.015 150.369 533.567 140.811 530.146C131.252 526.726 121.545 523.386 111.729 520.25L96.979 515.504C91.936 514.017 87.0418 512.408 81.9583 511.056C86.4604 513.03 91.1383 514.842 95.7351 516.735L109.769 522.143C119.138 525.752 128.697 529.186 138.269 532.594C147.841 536.001 157.522 539.354 167.351 542.49C177.18 545.627 186.995 548.804 197.122 551.697Z" fill="#AFA7CA"/>
<path d="M172.745 531.12C161.972 526.129 150.953 521.688 139.729 517.816C128.264 513.76 116.61 509.988 104.185 506.919C114.952 511.917 125.967 516.362 137.187 520.236C148.72 524.225 160.32 528.037 172.745 531.12Z" fill="#AFA7CA"/>
<path d="M241.562 543.504C232.49 539.61 223.147 535.987 213.751 532.404C204.355 528.821 194.823 525.374 185.251 521.953C175.679 518.533 165.998 515.193 156.169 512.056L141.419 507.27C136.417 505.783 131.495 504.201 126.412 502.782C130.914 504.756 135.592 506.567 140.175 508.46L154.223 513.868C163.592 517.478 173.15 520.899 182.723 524.306C192.295 527.713 201.975 531.066 211.804 534.202C221.633 537.339 231.449 540.57 241.562 543.504Z" fill="#AFA7CA"/>
<path d="M247.254 533.499C231.814 526.739 215.603 520.723 199.204 514.869C182.804 509.014 166.066 503.512 148.625 498.645C164.065 505.405 180.276 511.434 196.675 517.275C213.075 523.116 229.84 528.632 247.254 533.499Z" fill="#AFA7CA"/>
<path d="M227.961 514.733C219.11 510.402 209.998 506.627 200.677 503.431C190.91 499.915 180.953 496.954 170.852 494.562C179.705 498.883 188.817 502.653 198.135 505.851C207.905 509.363 217.862 512.328 227.961 514.733Z" fill="#AFA7CA"/>
<path d="M644.079 548.817L439.373 494.724L241.832 575.303L445.511 631.316L644.079 548.817Z" fill="#AFA7CA"/>
<path d="M644.079 548.817C644.079 548.817 438.981 494.832 439.4 494.832L242.008 575.614V574.978C242.008 574.978 446.011 631.208 445.538 631.167L644.16 548.817H644.079ZM644.079 548.817C644.079 548.817 445.552 631.478 445.525 631.505C445.498 631.532 241.778 575.6 241.751 575.627L240.791 575.357L241.711 574.992C241.711 574.992 439.4 494.561 439.4 494.548C439.4 494.534 644.052 548.831 644.12 548.817H644.079Z" fill="#EAE5FF"/>
<path d="M448.391 614.903C435.06 610.59 421.54 606.575 408.007 602.6C394.473 598.625 380.831 594.799 367.19 591C353.548 587.201 339.812 583.55 325.994 580.035L305.268 574.776C298.305 573.113 291.383 571.369 284.366 569.8C291.018 571.977 297.778 573.991 304.484 576.087L324.764 582.103C338.284 586.159 351.939 589.905 365.581 593.69C379.223 597.476 392.972 601.153 406.776 604.655C420.58 608.157 434.398 611.699 448.391 614.903Z" fill="#EAE5FF"/>
<path d="M395.92 586.214C381.332 580.968 366.243 576.534 351.047 572.302C335.85 568.07 320.424 564.19 304.552 561.094C319.14 566.34 334.296 570.774 349.424 574.992C364.553 579.211 380.061 583.091 395.92 586.214Z" fill="#EAE5FF"/>
<path d="M468.576 591.946C456.922 588.093 445.092 584.537 433.235 581.022C421.378 577.507 409.426 574.154 397.461 570.814C385.496 567.475 373.449 564.284 361.308 561.242L343.11 556.672C336.972 555.239 330.942 553.725 324.723 552.373C330.537 554.333 336.459 556.118 342.299 557.984L360.051 563.311C371.894 566.853 383.86 570.179 395.825 573.505C407.79 576.831 419.836 580.035 431.977 583.077C444.118 586.119 456.246 589.202 468.576 591.946Z" fill="#EAE5FF"/>
<path d="M478.094 580.305C467.278 576.696 456.395 573.383 445.416 570.125C434.438 566.867 423.392 563.73 412.306 560.661C401.219 557.592 390.079 554.617 378.83 551.805L361.957 547.56C356.265 546.208 350.641 544.856 344.909 543.639C350.317 545.478 355.725 547.141 361.133 548.885L377.56 553.833C388.511 557.132 399.584 560.228 410.67 563.297C421.756 566.366 432.91 569.327 444.159 572.139C455.408 574.951 466.67 577.804 478.094 580.305Z" fill="#EAE5FF"/>
<path d="M529.105 580.076C515.774 575.763 502.255 571.747 488.721 567.773C475.187 563.798 461.546 559.971 447.904 556.172C434.262 552.373 420.526 548.723 406.709 545.208L385.982 539.948C379.02 538.285 372.097 536.541 365.081 534.959C371.732 537.15 378.492 539.164 385.185 541.26L405.465 547.276C418.985 551.332 432.64 555.077 446.282 558.863C459.923 562.648 473.66 566.312 487.477 569.828C501.295 573.343 515.112 576.871 529.105 580.076Z" fill="#EAE5FF"/>
<path d="M530.795 566.285C519.006 562.391 507.027 558.795 495.035 555.253C483.043 551.711 470.942 548.304 458.842 544.924C446.741 541.544 434.506 538.326 422.27 535.23L403.856 530.606C397.65 529.159 391.512 527.618 385.266 526.252C391.147 528.226 397.123 530.025 403.058 531.917L421.026 537.325C433.005 540.908 445.105 544.275 457.219 547.641C469.333 551.008 481.555 554.252 493.791 557.335C506.027 560.418 518.33 563.514 530.795 566.285Z" fill="#EAE5FF"/>
<path d="M569.462 562.662C556.118 558.349 542.612 554.333 529.078 550.358C515.545 546.384 501.903 542.557 488.261 538.758C474.62 534.959 460.883 531.309 447.066 527.794L426.34 522.534C419.363 520.871 412.455 519.127 405.438 517.545C412.09 519.736 418.85 521.75 425.542 523.846L445.822 529.862C459.342 533.918 472.997 537.663 486.639 541.449C500.281 545.234 514.017 548.898 527.834 552.413C541.652 555.929 555.456 559.457 569.462 562.662Z" fill="#EAE5FF"/>
<path d="M522.561 535.514C507.041 530.011 491.033 525.32 474.89 520.831C458.747 516.343 442.442 512.219 425.623 508.839C441.13 514.355 457.152 519.046 473.281 523.522C489.41 527.997 505.77 532.12 522.561 535.514Z" fill="#EAE5FF"/>
<path d="M456.692 348.41H61.8269V400.124H456.692V348.41Z" fill="#AFA7CA"/>
<path d="M140.175 348.41H103.32V400.124H140.175V348.41Z" fill="#EAE5FF"/>
<path d="M201.096 348.41H187.414V400.124H201.096V348.41Z" fill="#EAE5FF"/>
<path d="M412.684 348.41H375.829V400.124H412.684V348.41Z" fill="#EAE5FF"/>
<path d="M614.236 420.178L442.14 60.6624L395.494 82.991L567.591 442.506L614.236 420.178Z" fill="#AFA7CA"/>
<path d="M476.286 132L460.221 98.4402L413.576 120.769L429.641 154.329L476.286 132Z" fill="#EAE5FF"/>
<path d="M502.835 187.456L496.875 175.005L450.229 197.333L456.19 209.784L502.835 187.456Z" fill="#EAE5FF"/>
<path d="M595.046 380.132L578.981 346.572L532.336 368.901L548.401 402.461L595.046 380.132Z" fill="#EAE5FF"/>
<path d="M425.055 314.976H87.988V348.411H425.055V314.976Z" fill="#EAE5FF"/>
<path d="M249.322 321.803H119.679V341.866H249.322V321.803Z" fill="#AFA7CA"/>
<path d="M424.285 187.036H121.639V257.096H424.285V187.036Z" fill="#AFA7CA"/>
<path d="M392.202 187.036H363.999V257.096H392.202V187.036Z" fill="#EAE5FF"/>
<path d="M345.476 187.036H334.539V257.096H345.476V187.036Z" fill="#EAE5FF"/>
<path d="M466.169 400.111H75.428V442.51H466.169V400.111Z" fill="#EAE5FF"/>
<path d="M424.744 400.111H388.321V442.51H424.744V400.111Z" fill="#AFA7CA"/>
<path d="M192.389 400.111H155.967V442.51H192.389V400.111Z" fill="#AFA7CA"/>
<path d="M231.449 400.111H217.334V442.51H231.449V400.111Z" fill="#AFA7CA"/>
<path d="M278.688 257.096H62.3542V314.975H278.688V257.096Z" fill="#EAE5FF"/>
<path d="M478.662 257.096H278.688V314.975H478.662V257.096Z" fill="#EAE5FF"/>
<path d="M278.688 263.099H62.3542V308.959H278.688V263.099Z" fill="white"/>
<path d="M278.688 308.973C278.39 308.675 61.7323 309.838 62.0568 308.973V263.099V262.761H62.3948C62.3948 262.761 278.796 262.991 278.836 262.978C278.877 262.964 278.701 308.851 278.728 308.946L278.688 308.973ZM278.688 308.973L278.512 263.099C279.174 263.437 62.192 263.329 62.3001 263.437L62.6381 263.099V308.973C60.6912 308.175 279.134 309.216 278.674 308.973H278.688Z" fill="#A77860"/>
<path d="M81.1199 272.536C103.779 272.221 126.448 272 149.125 271.874L179.87 271.671L247.876 271.874C270.535 271.982 255.988 272.225 278.634 272.536C255.961 272.861 270.522 273.09 247.876 273.212L179.87 273.415L149.125 273.212C126.484 273.095 103.815 272.87 81.1199 272.536Z" fill="#EAE5FF"/>
<path d="M81.1199 281.54C103.779 281.216 126.448 280.991 149.125 280.864L179.87 280.662L247.876 280.864C270.535 280.986 255.988 281.216 278.634 281.54C255.961 281.865 270.522 282.095 247.876 282.216L179.87 282.406L149.125 282.203C126.484 282.095 103.815 281.874 81.1199 281.54Z" fill="#EAE5FF"/>
<path d="M81.1199 290.531C103.779 290.225 126.448 290.004 149.125 289.869L179.87 289.666L247.876 289.869C270.535 289.977 255.988 290.22 278.634 290.531C255.961 290.856 270.522 291.086 247.876 291.207L179.87 291.41L149.125 291.207C126.484 291.09 103.815 290.865 81.1199 290.531Z" fill="#EAE5FF"/>
<path d="M81.1199 299.536C103.779 299.211 126.448 298.99 149.125 298.873L179.87 298.657L247.876 298.86C270.535 298.981 255.988 299.211 278.634 299.536C255.961 299.86 270.522 300.09 247.876 300.212L179.87 300.401L149.18 300.144C126.502 300.072 103.815 299.869 81.1199 299.536Z" fill="#EAE5FF"/>
<path d="M351.141 257.096H322.993V314.975H351.141V257.096Z" fill="#AFA7CA"/>
<path d="M468.319 257.096H449.391V314.975H468.319V257.096Z" fill="#AFA7CA"/>
<path d="M213.346 187.09L405.194 187.09V124.452L213.346 124.452V187.09Z" fill="#EAE5FF"/>
<path d="M67.681 187.09L213.345 187.09V124.452L67.681 124.452V187.09Z" fill="#EAE5FF"/>
<path d="M213.346 180.586L405.194 180.586V130.954L213.346 130.954V180.586Z" fill="white"/>
<path d="M213.346 130.955L405.478 130.671C405.478 130.874 405.478 180.343 405.478 180.587V180.925H405.14C405.14 180.925 213.156 180.708 213.156 180.722C213.156 180.735 213.332 131.09 213.291 130.955H213.346ZM213.346 130.955L213.481 180.587C212.656 180.208 405.37 180.384 405.194 180.249L404.856 180.587C404.992 180.803 404.478 129.603 405.194 131.252L213.346 130.955Z" fill="#A77860"/>
<path d="M392.783 170.352C377.83 170.604 362.877 170.78 347.924 170.879L303.064 171.041L258.232 170.906C243.279 170.816 228.326 170.64 213.373 170.379C228.326 170.127 243.279 169.951 258.232 169.852L303.091 169.689L347.951 169.852C362.886 169.951 377.83 170.118 392.783 170.352Z" fill="#EAE5FF"/>
<path d="M392.783 160.645C377.83 160.888 362.877 161.064 347.924 161.172L303.064 161.334L258.232 161.172C243.279 161.082 228.326 160.906 213.373 160.645C228.326 160.392 243.279 160.216 258.232 160.117L303.091 159.955L347.951 160.117C362.886 160.216 377.83 160.392 392.783 160.645Z" fill="#EAE5FF"/>
<path d="M392.783 150.91C377.83 151.153 362.877 151.325 347.924 151.424L303.064 151.586L258.232 151.424C243.279 151.325 228.326 151.149 213.373 150.897C228.326 150.644 243.279 150.464 258.232 150.356L303.091 150.207L347.951 150.369C362.886 150.459 377.83 150.64 392.783 150.91Z" fill="#EAE5FF"/>
<path d="M392.783 141.162C377.83 141.415 362.877 141.59 347.924 141.69L303.064 141.852L258.232 141.69C243.279 141.608 228.326 141.433 213.373 141.162C228.326 140.919 243.279 140.743 258.232 140.635L303.091 140.486L347.951 140.635C362.886 140.734 377.83 140.91 392.783 141.162Z" fill="#EAE5FF"/>
<path d="M118.151 124.451H90.8813V187.09H118.151V124.451Z" fill="#AFA7CA"/>
<path d="M61.259 442.509C238.56 441.685 437.44 441.671 614.741 442.509C437.44 443.348 238.56 443.334 61.259 442.509Z" fill="#A77860"/>
<path d="M645.553 520.574L339.528 463.723L44.251 548.412L348.735 607.292L645.553 520.574Z" fill="white"/>
<path d="M645.553 520.52C645.553 520.52 339.244 463.871 339.582 463.885L44.3457 548.736V548.087C44.3457 548.087 349.046 607.156 348.708 607.129L645.58 520.601L645.553 520.52ZM645.553 520.52L348.735 607.467C348.735 607.467 44.2105 548.736 44.197 548.736L42.845 548.48L44.197 548.087L339.568 463.547C339.568 463.547 645.499 520.588 645.553 520.52Z" fill="#A77860"/>
<path d="M353.034 590.04C333.092 585.511 312.893 581.279 292.654 577.101C272.415 572.924 252.094 568.908 231.638 564.933C211.182 560.958 190.713 557.105 170.068 553.401L139.08 547.871C128.67 546.14 118.327 544.302 107.849 542.639C117.786 544.937 127.886 547.046 137.904 549.264L168.202 555.577C188.482 559.796 208.762 563.784 229.232 567.745C249.701 571.707 270.157 575.573 290.802 579.278C311.447 582.982 332.092 586.673 353.034 590.04Z" fill="#EAE5FF"/>
<path d="M274.591 559.89C252.824 554.32 230.232 549.723 207.505 545.275C184.778 540.827 161.726 536.758 137.999 533.472C159.82 539.002 182.358 543.653 205.085 548.101C227.812 552.549 250.877 556.605 274.591 559.89Z" fill="#EAE5FF"/>
<path d="M383.197 565.907C365.77 561.851 348.046 558.119 330.361 554.428C312.677 550.737 294.777 547.209 276.89 543.707C259.003 540.205 240.994 536.839 222.81 533.635L195.594 528.835C186.441 527.334 177.355 525.739 168.121 524.319C176.815 526.374 185.697 528.254 194.418 530.214L220.957 535.811C238.655 539.529 256.542 543.031 274.429 546.533C292.316 550.034 310.325 553.387 328.509 556.592C346.694 559.796 364.77 563.027 383.197 565.907Z" fill="#EAE5FF"/>
<path d="M397.488 553.671C381.399 549.886 365.04 546.397 348.64 542.963C332.24 539.529 315.706 536.203 299.144 533.013C282.582 529.822 265.898 526.658 249.12 523.711L223.891 519.29C215.401 517.938 206.978 516.451 198.406 515.234C206.437 517.154 214.63 518.898 222.742 520.737L247.173 525.928C263.545 529.389 280.107 532.688 296.669 535.879C313.231 539.07 329.915 542.22 346.693 545.181C363.472 548.142 380.345 551.048 397.488 553.671Z" fill="#EAE5FF"/>
<path d="M473.673 553.442C453.745 548.899 433.546 544.681 413.306 540.503C393.067 536.325 372.746 532.31 352.291 528.335C331.835 524.36 311.366 520.52 290.68 516.789L259.692 511.259C249.282 509.515 238.939 507.676 228.448 506.027C238.398 508.325 248.498 510.434 258.502 512.638L288.814 518.966C309.027 523.17 329.374 527.159 349.844 531.134C370.313 535.108 390.769 538.962 411.414 542.653C432.059 546.343 452.744 550.075 473.673 553.442Z" fill="#EAE5FF"/>
<path d="M476.202 538.948C458.626 534.892 440.684 531.079 422.743 527.348C404.802 523.616 386.74 520.033 368.663 516.532C350.587 513.03 332.349 509.596 314.002 506.338L286.475 501.47C277.201 499.956 268.021 498.347 258.678 496.914C267.48 498.983 276.416 500.875 285.286 502.863L312.136 508.514C330.05 512.286 348.154 515.829 366.216 519.33C384.279 522.832 402.531 526.279 420.878 529.524C439.224 532.769 457.584 536.014 476.202 538.948Z" fill="#EAE5FF"/>
<path d="M534.04 535.135C514.111 530.606 493.913 526.375 473.673 522.197C453.434 518.019 433.113 514.004 412.657 510.029C392.202 506.054 371.732 502.201 351.087 498.496L320.099 492.967C309.689 491.223 299.346 489.384 288.855 487.734C298.805 490.033 308.905 492.142 318.91 494.359L349.222 500.673C369.502 504.878 389.782 508.866 410.251 512.841C430.72 516.816 451.176 520.669 471.821 524.36C492.466 528.051 513.07 531.769 534.04 535.135Z" fill="#EAE5FF"/>
<path d="M463.898 506.594C440.698 500.808 416.754 495.887 392.648 491.168C368.542 486.45 344.098 482.123 318.978 478.567C342.178 484.354 366.108 489.289 390.228 493.994C414.348 498.699 438.792 503.039 463.898 506.594Z" fill="#EAE5FF"/>
<path d="M297.44 505.229C320.735 505.229 368.799 507.933 408.304 503.052C449.959 497.901 502.254 472.443 521.588 466.9C547.709 459.41 523.521 263.559 496.725 255.866C413.333 231.922 299.171 248.998 261.004 279.486C222.837 309.973 247.889 505.175 297.44 505.229Z" fill="#FFBE9D"/>
<path d="M220.755 429.936C207.005 442.104 201.664 470.78 205.166 478.473C211.169 491.682 234.45 506.621 257.394 511.705C270.305 514.571 341.339 493.899 354.373 486.774C390.187 467.184 375.518 441.509 359.348 439.454C346.815 437.872 328.103 441.239 299.549 446.214C279.918 449.648 261.923 446.309 257.637 444.97C247.227 441.685 255.176 457.774 255.176 457.774L281.703 438.508L276.876 411.021C276.876 411.021 236.6 415.916 220.755 429.936Z" fill="#FFBE9D"/>
<path d="M297.44 505.229C315.205 499.821 333.092 494.413 349.924 486.476C365.378 479.243 382.102 464.101 368.433 447.052C358.577 433.627 305.701 450.027 288.882 448.796C279.51 448.468 270.173 447.493 260.936 445.876C274.888 446.336 288.787 447.309 302.51 444.24C318.612 441.401 360.457 429.219 372.138 442.969C379.263 451.406 381.291 463.249 374.761 472.713C363.39 488.937 342.799 493.939 324.899 499.212C315.813 501.565 306.687 503.66 297.453 505.202L297.44 505.229Z" fill="#A77860"/>
<path d="M212.021 379.385C195.891 390.052 181.912 411.941 184.602 426.989C187.293 442.036 215.414 460.275 238.155 470.063C244.915 472.984 331.443 466.967 346.126 461.465C386.375 446.322 376.843 418.539 363.499 407.75C355.589 401.355 322.29 407.047 291.775 408.047C270.792 408.737 252.567 402.639 248.308 400.57C237.938 395.609 243.86 413.55 243.86 413.55L274.361 397.393L273.388 368.014C273.388 368.014 230.651 367.068 212.021 379.385Z" fill="#FFBE9D"/>
<path d="M207.343 453.015C217.645 458.774 228.001 465.345 239.223 468.901C249.566 470.131 260.125 468.806 270.508 468.279C292.87 466.453 315.516 464.507 337.581 460.761C348.264 458.998 358.163 454.039 365.973 446.538C367.681 444.726 368.945 442.542 369.664 440.157C370.613 437.684 371.284 435.113 371.665 432.491C373.368 422.27 368.176 410.859 358.145 407.209C352.994 405.681 347.248 405.519 341.813 405.424C330.524 405.439 319.243 406.021 308.013 407.168C319.162 404.908 330.456 403.435 341.813 402.761C348.356 402.612 355.116 402.206 361.43 404.586C372.138 409.331 378.019 421.743 376.302 433.086C375.716 437.555 374.454 441.909 372.557 445.998C370.232 450.351 366.5 453.096 362.769 455.867C357.951 459.316 352.659 462.048 347.058 463.979C338.716 466.683 330.091 467.373 321.533 468.522C304.633 470.523 287.674 471.875 270.657 472.578C259.962 472.767 249.025 473.605 238.479 471.686C227.014 467.346 217.185 460.058 207.261 453.109L207.343 453.015Z" fill="#A77860"/>
<path d="M201.515 307.296C184.034 315.584 171.961 355.049 172.488 370.313C173.015 385.577 212.615 417.93 248.416 420.945C263.721 422.23 315.354 421.865 330.348 417.403C372.638 404.816 370.989 375.491 359.294 362.89C352.372 355.454 315.273 358.172 284.934 354.778C264.073 352.494 246.862 343.827 243.022 341.258C233.45 334.89 236.776 353.426 236.776 353.426L269.224 341.732L272.414 312.515C272.414 312.515 221.728 297.738 201.515 307.296Z" fill="#FFBE9D"/>
<path d="M194.417 398.15C210.209 407.614 227.271 416.267 245.726 418.43C275.105 421.378 335.053 420.986 356.82 399.502C362.566 393.418 366.635 384.847 364.607 376.451C362.376 366.54 352.439 359.348 342.461 358.496C331.443 357.725 320.126 357.834 309.013 357.144C286.746 355.792 263.248 353.872 243.4 342.678C236.726 339.294 230.248 335.534 223.999 331.416C230.502 335.093 237.262 338.27 244.036 341.393C250.697 344.649 257.736 347.065 264.992 348.586C286.84 353.264 309.31 352.899 331.578 353.223C339.23 353.345 347.531 353.061 354.562 356.793C365.729 361.957 373.057 375.301 369.664 387.591C364.513 407.871 342.624 416.186 324.128 419.917C301.888 424.325 279.066 424.785 256.528 422.851C249.025 422.094 241.413 421.324 234.18 419.025C219.921 414.176 206.506 407.133 194.417 398.15Z" fill="#A77860"/>
<path d="M482.664 243.198C492.06 246.632 676 220.079 676 220.079V490.073L480.649 482.353L482.664 243.198Z" fill="#FFBE9D"/>
<path d="M341.502 145.367C341.502 145.367 355.644 100.454 324.237 93.2879C292.83 86.1223 286.124 132.739 286.124 132.739L341.502 145.367Z" fill="#8800FF"/>
<path d="M270.697 442.469V442.55L240.805 477.621L227.014 474.552L215.265 429.936L286.516 130.9L341.948 143.542L270.697 442.469Z" fill="#8800FF"/>
<path d="M279.35 140.985L344.021 155.726L346.947 142.886L282.277 128.146L279.35 140.985Z" fill="#8800FF"/>
<path opacity="0.2" d="M279.35 140.985L344.021 155.726L346.947 142.886L282.277 128.146L279.35 140.985Z" fill="#C380FF"/>
<path d="M276.108 155.172L340.778 169.913L343.705 157.073L279.034 142.333L276.108 155.172Z" fill="#8800FF"/>
<path opacity="0.2" d="M276.108 155.172L340.778 169.913L343.705 157.073L279.034 142.333L276.108 155.172Z" fill="#C380FF"/>
<path d="M340.799 169.892L319.924 165.133L311.501 255.839L319.288 257.15L340.799 169.892Z" fill="#8800FF"/>
<path opacity="0.2" d="M340.799 169.892L319.924 165.133L311.501 255.839L319.288 257.15L340.799 169.892Z" fill="#C380FF"/>
<path d="M228.894 474.876L230.327 480.366C230.435 480.794 230.658 481.184 230.973 481.493C231.288 481.803 231.682 482.02 232.112 482.12C232.542 482.221 232.992 482.201 233.411 482.063C233.831 481.926 234.204 481.675 234.491 481.339L238.222 476.999L228.894 474.876Z" fill="#8800FF"/>
<path opacity="0.5" d="M228.894 474.876L230.327 480.366C230.435 480.794 230.658 481.184 230.973 481.493C231.288 481.803 231.682 482.02 232.112 482.12C232.542 482.221 232.992 482.201 233.411 482.063C233.831 481.926 234.204 481.675 234.491 481.339L238.222 476.999L228.894 474.876Z" fill="#FFBE9D"/>
<path opacity="0.2" d="M218.051 430.423C234.916 432.446 251.509 436.309 267.534 441.942C250.667 439.926 234.073 436.063 218.051 430.423Z" fill="#FFBE9D"/>
<path d="M263.545 228.38C263.545 228.38 241.71 229.178 227.041 233.355C212.67 237.411 178.112 249.201 172.15 259.733C166.188 270.265 158.224 302.023 165.971 311.447C172.285 319.14 222.755 354.332 248.214 354.197C274.199 354.048 282.622 337.094 276.457 315.827C271.82 299.833 233.896 283.744 233.896 283.744L251.256 297.562L248.876 290.68L263.545 228.38Z" fill="#FFBE9D"/>
<path d="M221.241 275.483C241.521 284.204 270.738 297.981 279.053 319.883C282.311 327.995 281.757 337.878 276.497 345.084C267.466 357.847 255.122 357.888 241.345 354.237C229.34 351.047 218.023 345.693 207.194 339.798C199.997 335.865 193.024 331.536 186.305 326.832C193.498 330.726 200.772 334.458 208.154 337.905C222.296 344.233 250.269 357.374 264.843 350.303C271.279 346.545 276.497 340.001 277.092 332.376C278.877 305.511 241.494 286.637 221.214 275.483H221.241Z" fill="#A77860"/>
<path d="M231.489 275.483C239.155 277.958 246.821 283.379 249.863 291.045C243.941 285.826 237.154 281.094 231.489 275.483Z" fill="#A77860"/>
<path d="M499.686 257.475C499.686 257.475 464.804 225.338 426.786 207.87C375.207 184.183 347.869 173.353 326.116 198.136C289.544 239.818 240.467 253.5 246.185 269.927C250.85 283.325 262.883 295.615 282.514 297.345C310.703 299.806 337.946 277.985 356.008 261.355C356.008 261.355 413.347 324.561 455.191 299.035C481.447 283.028 499.686 257.475 499.686 257.475Z" fill="#FFBE9D"/>
<path d="M270.751 243.198C263.099 249.011 254.527 253.919 249.119 261.761C248.151 263.108 247.563 264.691 247.416 266.344C247.62 268.025 248.076 269.666 248.768 271.211C252.66 279.592 259.388 286.33 267.764 290.234C269.422 291 271.119 291.681 272.847 292.275C274.591 292.816 276.389 293.181 278.16 293.627L283.568 294.317H289.112C291.902 294.185 294.682 293.896 297.44 293.452L302.97 292.383C305.652 291.665 308.281 290.762 310.838 289.68C331.929 280.351 350.046 265.465 367.69 250.471C351.439 269.048 330.78 287.976 307.296 296.656C293.776 300.712 278.512 301.469 265.56 294.804C256.251 290.185 248.99 282.274 245.185 272.604C242.116 265.289 245.28 260.287 250.769 255.569C256.907 250.404 263.883 246.848 270.751 243.198Z" fill="#A77860"/>
<path d="M356.009 261.355C357.847 284.771 363.85 309.27 380.142 326.792C386.479 332.98 393.257 338.7 400.422 343.908C412.476 352.794 425.124 360.843 438.278 368.001C426.562 364.59 415.371 359.586 405.019 353.129C394.503 346.769 384.852 339.08 376.302 330.253C359.848 311.663 354.4 285.529 355.914 261.301L356.009 261.355Z" fill="#A77860"/>
</g>
<defs>
<clipPath id="clip0_150_1012">
<rect width="676" height="676" fill="white"/>
</clipPath>
</defs>
</svg>
