<svg width="534" height="465" viewBox="0 0 534 465" fill="none" xmlns="http://www.w3.org/2000/svg">
<path d="M481.409 428.252C485.603 426.284 490.316 425.709 494.859 426.61C497.304 427.024 499.855 427.791 501.52 429.586C503.185 431.381 503.492 434.652 501.579 436.223C500.349 437.056 498.865 437.432 497.387 437.286C493.844 437.286 489.888 436.624 487.042 438.762C485.424 439.943 484.338 442.009 482.401 442.611C481.431 442.838 480.413 442.742 479.503 442.337C478.593 441.932 477.84 441.24 477.359 440.368C476.435 438.583 476.232 436.512 476.792 434.581C477.019 433.241 477.555 431.972 478.356 430.873C479.157 429.775 480.202 428.878 481.409 428.252Z" fill="#EBEBEB"/>
<path d="M472.021 410.149C474.524 413.691 479.39 412.51 481.645 410.349C483.901 408.188 484.857 405.012 485.731 401.989C487.715 395.104 489.711 387.818 488.235 380.851C487.88 378.721 486.945 376.731 485.53 375.1C484.817 374.296 483.904 373.693 482.885 373.354C481.865 373.014 480.774 372.948 479.72 373.163C477.264 373.812 475.741 376.221 474.643 378.501C471.396 385.252 469.693 392.643 469.659 400.135C469.659 403.618 470.061 407.22 472.021 410.149Z" fill="#EBEBEB"/>
<path d="M465.148 415.274C466.437 413.594 467.295 411.626 467.649 409.539C468.003 407.452 467.842 405.31 467.179 403.299C465.805 399.286 463.354 395.728 460.094 393.014C456.392 389.713 452.079 387.169 447.399 385.527C445.586 384.795 443.637 384.46 441.684 384.547C440.709 384.606 439.763 384.901 438.928 385.407C438.093 385.914 437.393 386.615 436.889 387.452C435.555 390.003 436.889 393.096 438.224 395.612C440.674 400.057 443.465 404.305 446.573 408.318C449.076 411.542 451.934 414.719 455.748 416.171C459.563 417.624 463.519 417.458 465.538 414.813" fill="#EBEBEB"/>
<path d="M471.856 464.08C471.984 463.55 472.059 463.008 472.08 462.462C472.198 461.281 472.34 459.793 472.517 458.022C472.732 455.837 473.063 453.665 473.509 451.515C474.092 448.898 474.882 446.332 475.871 443.84C476.842 441.351 478.162 439.013 479.791 436.896C481.118 435.171 482.812 433.763 484.751 432.775C486.065 432.128 487.471 431.69 488.92 431.476C489.466 431.456 490.008 431.377 490.537 431.239C489.992 431.183 489.442 431.183 488.896 431.239C487.385 431.372 485.909 431.771 484.538 432.42C482.503 433.387 480.717 434.809 479.319 436.577C477.617 438.722 476.247 441.11 475.257 443.662C474.242 446.19 473.451 448.802 472.895 451.468C472.47 453.641 472.182 455.837 472.033 458.046C471.891 459.935 471.832 461.459 471.808 462.51C471.768 463.033 471.784 463.56 471.856 464.08Z" fill="#E0E0E0"/>
<path d="M472.163 460.656C472.194 460.405 472.194 460.151 472.163 459.9V457.751C472.163 455.873 472.163 453.169 472.257 449.827C472.423 443.143 473.001 435.939 474.111 425.795C475.162 416.254 476.579 405.153 478.067 397.938C478.386 396.297 478.717 394.821 479.012 393.522C479.307 392.223 479.555 391.16 479.791 390.203C480.028 389.247 480.157 388.656 480.299 388.101C480.372 387.863 480.415 387.618 480.429 387.369C480.31 387.588 480.222 387.822 480.169 388.066C480.004 388.609 479.791 389.247 479.543 390.132C479.295 391.018 478.977 392.14 478.646 393.439C478.315 394.738 477.961 396.202 477.607 397.832C475.76 406.372 474.372 415.005 473.45 423.694C472.269 433.861 471.832 443.119 471.785 449.815C471.785 453.169 471.785 455.885 471.903 457.751C471.903 458.636 471.997 459.345 472.033 459.912C472.043 460.164 472.086 460.415 472.163 460.656Z" fill="#E0E0E0"/>
<path d="M472.21 442.812C472.269 442.066 472.269 441.315 472.21 440.569C472.127 439.116 471.927 437.026 471.525 434.463C471.029 431.465 470.367 428.496 469.541 425.571C468.57 421.974 467.327 418.457 465.821 415.049C463.22 408.77 459.499 403.016 454.839 398.068C454.033 397.226 453.173 396.437 452.265 395.706C451.875 395.364 451.521 395.033 451.166 394.773L450.174 394.088C449.572 393.646 448.936 393.252 448.273 392.908C450.459 394.624 452.534 396.478 454.485 398.458C458.966 403.456 462.561 409.183 465.113 415.392C466.587 418.777 467.834 422.256 468.844 425.807C469.701 428.705 470.406 431.646 470.958 434.617C471.431 437.156 471.69 439.222 471.856 440.651C471.92 441.379 472.039 442.102 472.21 442.812Z" fill="#E0E0E0"/>
<path d="M503.952 92.0508L439.853 111.335C438.358 111.78 436.747 111.615 435.373 110.875C433.999 110.136 432.973 108.884 432.52 107.391L406.54 21.0199C406.095 19.5244 406.26 17.9137 406.999 16.5396C407.738 15.1655 408.991 14.1398 410.484 13.6865L455.358 0.212524L487.561 16.9694L507.944 84.7174C508.387 86.2192 508.215 87.8354 507.466 89.2106C506.718 90.5859 505.454 91.6075 503.952 92.0508Z" fill="#E0E0E0"/>
<path d="M455.24 0L460.413 17.1702C460.715 18.1792 461.214 19.1186 461.88 19.9348C462.546 20.751 463.367 21.4279 464.294 21.9269C465.222 22.4259 466.239 22.7371 467.287 22.8429C468.335 22.9487 469.394 22.8469 470.403 22.5433L487.514 16.9813L455.24 0Z" fill="#EBEBEB"/>
<path d="M489.203 77.8918C489.184 77.8196 489.16 77.7486 489.132 77.6792L488.932 77.1006C488.766 76.5574 488.53 75.8016 488.223 74.8333C487.609 72.8257 486.711 69.9443 485.578 66.2836C483.334 58.9266 480.134 48.452 476.296 35.8991L476.627 36.0763L432.934 49.2669C432.934 49.3495 433.323 48.5465 433.146 48.889V48.9598V49.0543L433.205 49.2314L433.311 49.5857L433.524 50.3061L433.961 51.7349L434.811 54.5927L436.5 60.202L439.759 71.0662C441.873 78.1516 443.869 84.8118 445.664 90.9525L445.333 90.7753L476.969 81.399L485.92 78.7775L488.282 78.0925L488.896 77.9272C488.971 77.9165 489.046 77.9165 489.121 77.9272L488.943 77.9981L488.353 78.187L486.05 78.9073L477.276 81.588L445.545 91.2713L445.286 91.354L445.203 91.0942C443.349 84.9535 441.341 78.2933 439.204 71.2315C438.141 67.7046 437.047 64.0832 435.921 60.3673L434.232 54.758L433.382 51.9003L432.945 50.4714L432.733 49.751L432.626 49.3968L432.567 49.2196V49.1252V49.0543C432.379 49.3968 432.815 48.5819 432.768 48.6646L476.461 35.5567L476.721 35.474L476.792 35.7338C480.547 48.393 483.665 58.9384 485.861 66.3544C486.936 70.0034 487.774 72.8848 488.365 74.8923L489.002 77.1242L489.156 77.691C489.203 77.8327 489.215 77.8918 489.203 77.8918Z" fill="white"/>
<path d="M467.073 85.1307C466.908 85.1307 463.944 75.8016 460.46 64.1934C456.976 52.5852 454.26 43.1144 454.426 43.0672C454.591 43.02 457.543 52.3963 461.039 64.0163C464.534 75.6363 467.238 85.0362 467.073 85.1307Z" fill="white"/>
<path d="M485.944 67.6299C485.944 67.7834 476.201 70.8773 464.085 74.5263C451.969 78.1753 442.085 80.9976 442.038 80.8323C441.991 80.667 451.78 77.5848 463.908 73.9358C476.036 70.2869 485.885 67.4173 485.944 67.6299Z" fill="white"/>
<path d="M483.181 56.7892C483.181 56.9545 473.438 60.0367 461.322 63.6856C449.206 67.3346 439.334 70.1569 439.275 69.9916C439.216 69.8263 449.017 66.7441 461.145 63.0952C473.273 59.4462 483.181 56.5884 483.181 56.7892Z" fill="white"/>
<path d="M479.638 46.1612C479.638 46.3266 469.978 49.3851 457.945 53.0104C445.911 56.6358 436.122 59.4345 436.074 59.2692C436.027 59.1039 445.734 56.0335 457.767 52.42C469.801 48.8065 479.638 45.9605 479.638 46.1612Z" fill="white"/>
<path d="M35.621 180.913L2.55594 175.009C1.78997 174.865 1.11183 174.425 0.669392 173.783C0.226958 173.142 0.0561229 172.351 0.194144 171.584L8.16519 127.1C8.23483 126.72 8.37868 126.357 8.58851 126.033C8.79834 125.708 9.07003 125.429 9.38807 125.209C9.70611 124.99 10.0643 124.835 10.442 124.755C10.8198 124.674 11.2098 124.668 11.5898 124.738L34.6999 128.824L45.328 143.621L39.0692 178.516C39.0024 178.901 38.8598 179.269 38.6498 179.598C38.4398 179.927 38.1665 180.212 37.8457 180.435C37.525 180.658 37.1632 180.815 36.7813 180.897C36.3994 180.979 36.0051 180.985 35.621 180.913Z" fill="#E0E0E0"/>
<path d="M34.7119 128.729L33.1295 137.574C33.0273 138.098 33.0305 138.637 33.1391 139.16C33.2476 139.682 33.4593 140.178 33.7617 140.618C34.064 141.058 34.4511 141.433 34.9001 141.721C35.3492 142.01 35.8512 142.206 36.3769 142.298L45.2927 143.691L34.7119 128.729Z" fill="#EBEBEB"/>
<path d="M32.2318 171.23C32.2203 171.088 32.2203 170.946 32.2318 170.805L32.4089 169.624C32.586 168.537 32.834 167.049 33.1411 165.184C33.7906 161.346 34.7116 155.973 35.8099 149.537L36.0224 149.844L13.5382 145.829L13.8925 145.593V145.663V145.758V145.947L13.8216 146.313L13.6917 147.045C13.5972 147.541 13.5146 148.025 13.4319 148.509C13.2548 149.49 13.0776 150.458 12.9005 151.403C12.558 153.316 12.2274 155.181 11.8967 157C11.2354 160.637 10.6096 164.085 10.0309 167.227L9.81837 166.92L26.0321 169.966L30.6258 170.864L31.8066 171.112L32.2436 171.218H31.8539L30.673 171.041L26.1147 170.285L9.64123 167.463H9.36963V167.191C9.93646 164.026 10.5505 160.59 11.1764 156.953C11.507 155.134 11.8377 153.268 12.1802 151.355C12.3455 150.399 12.5226 149.442 12.6879 148.462C12.7824 147.978 12.8651 147.494 12.9596 146.998L13.0894 146.266L13.1485 145.888V145.711V145.616V145.545L13.5028 145.297L36.0224 149.383H36.2822V149.643C35.1013 156.126 34.0385 161.546 33.3182 165.408C32.9639 167.238 32.6687 168.703 32.468 169.766C32.3735 170.226 32.2908 170.592 32.2318 170.946C32.2407 171.041 32.2407 171.136 32.2318 171.23Z" fill="white"/>
<path d="M20.7063 169.435C21.051 165.778 21.599 162.143 22.3477 158.547C22.8978 154.915 23.6468 151.315 24.5914 147.765C24.2468 151.422 23.6988 155.057 22.95 158.653C22.4069 162.287 21.6578 165.886 20.7063 169.435Z" fill="white"/>
<path d="M33.094 165.904C29.2785 165.539 25.4859 164.963 21.7338 164.18C17.9463 163.597 14.1934 162.809 10.4917 161.818C14.3064 162.19 18.0986 162.766 21.8519 163.542C25.6382 164.131 29.3907 164.92 33.094 165.904Z" fill="white"/>
<path d="M34.3456 160.436C30.5316 160.058 26.7398 159.483 22.9854 158.712C19.1947 158.126 15.4381 157.337 11.7314 156.351C15.5464 156.721 19.3386 157.296 23.0917 158.075C26.8836 158.654 30.6406 159.443 34.3456 160.436Z" fill="white"/>
<path d="M35.1602 154.874C31.377 154.511 27.6162 153.944 23.8944 153.174C20.1324 152.58 16.4037 151.792 12.7231 150.812C16.5112 151.168 20.2763 151.735 24.0007 152.513C27.7602 153.099 31.4854 153.888 35.1602 154.874Z" fill="white"/>
<path d="M533.522 463.927C533.522 464.092 417.393 464.234 274.174 464.234C130.955 464.234 14.802 464.092 14.802 463.927C14.802 463.761 130.908 463.62 274.174 463.62C417.44 463.62 533.522 463.761 533.522 463.927Z" fill="#263238"/>
<path d="M155.824 72.9321L110.017 88.7561C108.949 89.1252 107.779 89.0551 106.762 88.5613C105.746 88.0675 104.967 87.1904 104.597 86.1227L83.341 24.4091C82.9733 23.3487 83.0386 22.1861 83.5228 21.1735C84.0069 20.1609 84.8709 19.3802 85.9271 19.0006L117.953 7.94745L141.748 19.1187L158.47 67.5354C158.834 68.6019 158.76 69.7694 158.264 70.7814C157.768 71.7933 156.891 72.5669 155.824 72.9321Z" fill="#8800FF"/>
<path d="M117.906 7.7821L122.145 20.0398C122.647 21.4957 123.706 22.6928 125.09 23.3682C126.474 24.0435 128.07 24.1418 129.526 23.6415L141.748 19.1069L117.906 7.7821Z" fill="#8800FF"/>
<g opacity="0.2">
<path d="M117.906 7.7821L122.145 20.0398C122.647 21.4957 123.706 22.6928 125.09 23.3682C126.474 24.0435 128.07 24.1418 129.526 23.6415L141.748 19.1069L117.906 7.7821Z" fill="black"/>
</g>
<path d="M144.748 63.1188C144.657 62.9352 144.578 62.7458 144.511 62.552C144.37 62.1505 144.169 61.6073 143.921 60.9342L141.748 54.8289C139.882 49.5503 137.261 42.0989 134.108 33.1477L134.45 33.313L103.227 44.1418C103.227 44.2363 103.582 43.4097 103.416 43.7639V43.8938L103.499 44.1536L103.676 44.6614L104.03 45.6888L104.739 47.7199C105.199 49.078 105.66 50.4124 106.12 51.735C107.03 54.3802 107.927 56.9782 108.789 59.5053C110.525 64.5477 112.167 69.3185 113.666 73.676L113.336 73.5107L135.997 66.0002L142.421 63.8746L144.133 63.3078L144.748 63.1306C144.573 63.2203 144.391 63.2954 144.204 63.355L142.563 63.9454L136.269 66.2364L113.56 74.1602L113.312 74.2547L113.229 73.9949C111.706 69.6137 110.041 64.8547 108.293 59.8241L105.624 52.0656C105.164 50.743 104.703 49.3968 104.243 48.0506L103.534 46.0194L103.18 44.9921L103.003 44.4843L102.92 44.2245V44.0946C102.755 44.437 103.156 43.6104 103.121 43.6931L134.367 32.9469L134.627 32.8643L134.71 33.1122C137.768 42.1579 140.331 49.6448 142.138 55.0297L144.169 61.1231C144.381 61.7962 144.559 62.304 144.689 62.7173C144.818 63.1306 144.759 63.1306 144.748 63.1188Z" fill="white"/>
<path d="M128.912 68.9761C128.758 69.0352 126.302 62.3513 123.432 54.0496C120.563 45.7479 118.366 38.9814 118.532 38.9223C118.697 38.8633 121.141 45.5471 124.011 53.8488C126.881 62.1505 129.113 68.9171 128.912 68.9761Z" fill="white"/>
<path d="M142.079 55.7972C142.079 55.9508 135.159 58.5133 126.503 61.501C117.847 64.4886 110.773 66.7914 110.714 66.6261C110.655 66.4607 117.634 63.91 126.302 60.9223C134.97 57.9347 142.031 55.6083 142.079 55.7972Z" fill="white"/>
<path d="M139.788 48.0153C139.788 48.1688 132.868 50.7313 124.212 53.719C115.556 56.7067 108.482 59.0094 108.423 58.8441C108.364 58.6788 115.343 56.128 124.011 53.1404C132.679 50.1527 139.741 47.8499 139.788 48.0153Z" fill="white"/>
<path d="M136.906 40.4339C136.906 40.5874 130.033 43.1263 121.448 46.0904C112.863 49.0544 105.837 51.3453 105.778 51.18C105.719 51.0147 112.651 48.4876 121.247 45.5117C129.844 42.5358 136.847 40.2567 136.906 40.4339Z" fill="white"/>
<path d="M480.736 348.66L456.729 361.307C456.452 361.456 456.148 361.549 455.835 361.579C455.522 361.609 455.206 361.577 454.906 361.483C454.605 361.39 454.327 361.237 454.086 361.034C453.846 360.832 453.648 360.583 453.505 360.303L436.464 327.958C436.315 327.682 436.222 327.379 436.191 327.067C436.159 326.754 436.191 326.438 436.283 326.138C436.376 325.838 436.527 325.559 436.728 325.318C436.93 325.077 437.177 324.879 437.456 324.735L454.249 315.89L468.42 320.058L481.787 345.436C481.935 345.715 482.025 346.022 482.052 346.337C482.079 346.652 482.042 346.969 481.944 347.27C481.846 347.571 481.689 347.849 481.481 348.087C481.274 348.326 481.02 348.521 480.736 348.66Z" fill="#455A64"/>
<path d="M454.213 315.807L457.602 322.231C457.8 322.61 458.071 322.946 458.399 323.22C458.727 323.494 459.106 323.701 459.514 323.828C459.922 323.955 460.352 324.001 460.777 323.962C461.203 323.923 461.617 323.8 461.995 323.601L468.372 320.058L454.213 315.807Z" fill="#E0E0E0"/>
<path d="M473.733 344.16C473.485 343.781 473.26 343.386 473.06 342.979L471.301 339.791L465.195 328.49L465.562 328.608L449.194 337.276L449.324 336.862V336.933L449.395 337.063L449.537 337.335L449.82 337.866L450.375 338.941L451.485 341.043L453.623 345.117L457.52 352.568L457.154 352.462L468.962 346.369L472.363 344.668C473.155 344.267 473.544 344.066 473.615 344.066C473.265 344.308 472.898 344.525 472.517 344.715L469.246 346.522L457.354 352.934L457.13 353.064L457 352.828C455.819 350.525 454.449 348.034 453.056 345.388C452.347 344.066 451.639 342.708 450.895 341.326L449.785 339.224L449.23 338.161L448.946 337.618L448.805 337.358L448.734 337.217V337.146C448.616 337.512 448.887 336.638 448.864 336.732L465.266 328.135L465.502 328.017L465.621 328.254C468.053 332.977 470.084 336.957 471.525 339.815C472.186 341.149 472.706 342.176 473.131 343.015C473.357 343.383 473.558 343.766 473.733 344.16Z" fill="white"/>
<path d="M465.526 348.742C463.868 346.272 462.388 343.687 461.098 341.007C459.62 338.429 458.326 335.749 457.224 332.989C458.867 335.466 460.343 338.05 461.641 340.724C463.108 343.309 464.406 345.988 465.526 348.742Z" fill="white"/>
<path d="M471.667 340.334C469.08 342.048 466.381 343.586 463.589 344.94C460.891 346.47 458.099 347.827 455.229 349.002C457.814 347.286 460.513 345.748 463.306 344.396C466 342.86 468.793 341.503 471.667 340.334Z" fill="white"/>
<path d="M469.742 336.225C467.151 337.928 464.453 339.463 461.665 340.818C458.971 342.371 456.178 343.744 453.304 344.928C458.584 341.678 464.075 338.786 469.742 336.272V336.225Z" fill="white"/>
<path d="M467.498 332.269C462.258 335.499 456.806 338.371 451.178 340.866C456.422 337.642 461.874 334.77 467.498 332.269Z" fill="white"/>
<path d="M523.756 81.9542H66.6194V329.824H523.756V81.9542Z" fill="#F5F5F5"/>
<path d="M523.756 81.9542H66.6194V102.832H523.756V81.9542Z" fill="#263238"/>
<path d="M77.4363 95.2628C78.8646 95.2628 80.0224 94.105 80.0224 92.6767C80.0224 91.2484 78.8646 90.0905 77.4363 90.0905C76.008 90.0905 74.8501 91.2484 74.8501 92.6767C74.8501 94.105 76.008 95.2628 77.4363 95.2628Z" fill="#FAFAFA"/>
<path d="M86.8484 95.2628C88.2767 95.2628 89.4345 94.105 89.4345 92.6767C89.4345 91.2484 88.2767 90.0905 86.8484 90.0905C85.4201 90.0905 84.2622 91.2484 84.2622 92.6767C84.2622 94.105 85.4201 95.2628 86.8484 95.2628Z" fill="#FAFAFA"/>
<path d="M96.26 95.2628C97.6883 95.2628 98.8461 94.105 98.8461 92.6767C98.8461 91.2484 97.6883 90.0905 96.26 90.0905C94.8317 90.0905 93.6738 91.2484 93.6738 92.6767C93.6738 94.105 94.8317 95.2628 96.26 95.2628Z" fill="#FAFAFA"/>
<path d="M82.5616 138.708H65.9346V329.812H82.5616V138.708Z" fill="#455A64"/>
<path d="M65.9346 131.351V147.978L523.555 147.978V131.351L65.9346 131.351Z" fill="#455A64"/>
<path d="M82.5617 319.173C82.3963 319.173 82.2546 277.133 82.2546 225.268C82.2546 173.403 82.3963 131.351 82.5617 131.351C82.727 131.351 82.8687 173.391 82.8687 225.268C82.8687 277.145 82.7388 319.173 82.5617 319.173Z" fill="#E0E0E0"/>
<path d="M147.936 329.812C147.771 329.812 147.629 285.387 147.629 230.617C147.629 175.847 147.771 131.422 147.936 131.422C148.101 131.422 148.243 175.847 148.243 230.617C148.243 285.387 148.101 329.812 147.936 329.812Z" fill="#E0E0E0"/>
<path d="M217.278 329.812C217.113 329.812 216.971 285.529 216.971 230.912C216.971 176.296 217.113 132.012 217.278 132.012C217.443 132.012 217.585 176.284 217.585 230.912C217.585 285.541 217.479 329.812 217.278 329.812Z" fill="#E0E0E0"/>
<path d="M284.99 329.812C284.813 329.812 284.683 285.529 284.683 230.912C284.683 176.296 284.813 132.012 284.99 132.012C285.168 132.012 285.297 176.284 285.297 230.912C285.297 285.541 285.156 329.812 284.99 329.812Z" fill="#E0E0E0"/>
<path d="M354.286 329.812C354.12 329.812 353.979 285.387 353.979 230.617C353.979 175.847 354.12 131.422 354.286 131.422C354.451 131.422 354.593 175.847 354.593 230.617C354.593 285.387 354.463 329.812 354.286 329.812Z" fill="#E0E0E0"/>
<path d="M423.592 329.812C423.415 329.812 423.285 285.387 423.285 230.617C423.285 175.847 423.415 131.422 423.592 131.422C423.77 131.422 423.899 175.847 423.899 230.617C423.899 285.387 423.758 329.812 423.592 329.812Z" fill="#E0E0E0"/>
<path d="M492.888 329.812C492.722 329.812 492.581 285.529 492.581 230.912C492.581 176.296 492.722 132.012 492.888 132.012C493.053 132.012 493.195 176.284 493.195 230.912C493.195 285.541 493.065 329.812 492.888 329.812Z" fill="#E0E0E0"/>
<path d="M521.028 163.153C521.028 163.318 419.152 163.46 293.505 163.46C167.858 163.46 65.9463 163.318 65.9463 163.153C65.9463 162.987 167.81 162.834 293.505 162.834C419.199 162.834 521.028 162.976 521.028 163.153Z" fill="#E0E0E0"/>
<path d="M521.028 147.978C521.028 148.155 419.152 148.285 293.505 148.285C167.858 148.285 65.9463 148.155 65.9463 147.978C65.9463 147.801 167.81 147.671 293.505 147.671C419.199 147.671 521.028 147.813 521.028 147.978Z" fill="#E0E0E0"/>
<path d="M521.028 179.118C521.028 179.295 419.152 179.425 293.505 179.425C167.858 179.425 65.9463 179.295 65.9463 179.118C65.9463 178.941 167.81 178.811 293.505 178.811C419.199 178.811 521.028 178.953 521.028 179.118Z" fill="#E0E0E0"/>
<path d="M521.028 195.096C521.028 195.261 419.152 195.403 293.505 195.403C167.858 195.403 65.9463 195.261 65.9463 195.096C65.9463 194.93 167.81 194.789 293.505 194.789C419.199 194.789 521.028 194.954 521.028 195.096Z" fill="#E0E0E0"/>
<path d="M521.028 211.073C521.028 211.239 419.152 211.38 293.505 211.38C167.858 211.38 65.9463 211.239 65.9463 211.073C65.9463 210.908 167.81 210.766 293.505 210.766C419.199 210.766 521.028 210.896 521.028 211.073Z" fill="#E0E0E0"/>
<path d="M521.028 227.039C521.028 227.216 419.152 227.346 293.505 227.346C167.858 227.346 65.9463 227.216 65.9463 227.039C65.9463 226.862 167.81 226.732 293.505 226.732C419.199 226.732 521.028 226.838 521.028 227.039Z" fill="#E0E0E0"/>
<path d="M521.028 243.016C521.028 243.182 419.152 243.324 293.505 243.324C167.858 243.324 65.9463 243.182 65.9463 243.016C65.9463 242.851 167.81 242.709 293.505 242.709C419.199 242.709 521.028 242.851 521.028 243.016Z" fill="#E0E0E0"/>
<path d="M521.028 258.994C521.028 259.159 419.152 259.301 293.505 259.301C167.858 259.301 65.9463 259.159 65.9463 258.994C65.9463 258.829 167.81 258.687 293.505 258.687C419.199 258.687 521.028 258.817 521.028 258.994Z" fill="#E0E0E0"/>
<path d="M521.028 274.96C521.028 275.137 419.152 275.279 293.505 275.279C167.858 275.279 65.9463 275.137 65.9463 274.96C65.9463 274.783 167.81 274.653 293.505 274.653C419.199 274.653 521.028 274.794 521.028 274.96Z" fill="#E0E0E0"/>
<path d="M521.028 290.937C521.028 291.114 419.152 291.244 293.505 291.244C167.858 291.244 65.9463 291.114 65.9463 290.937C65.9463 290.76 167.81 290.63 293.505 290.63C419.199 290.63 521.028 290.772 521.028 290.937Z" fill="#E0E0E0"/>
<path d="M521.028 306.915C521.028 307.08 419.152 307.222 293.505 307.222C167.858 307.222 65.9463 307.08 65.9463 306.915C65.9463 306.75 167.81 306.608 293.505 306.608C419.199 306.608 521.028 306.75 521.028 306.915Z" fill="#E0E0E0"/>
<path d="M521.028 322.892C521.028 323.058 419.152 323.199 293.505 323.199C167.858 323.199 65.9463 323.058 65.9463 322.892C65.9463 322.727 167.81 322.585 293.505 322.585C419.199 322.585 521.028 322.715 521.028 322.892Z" fill="#E0E0E0"/>
<path d="M523.544 147.978H82.5618V179.118H523.544V147.978Z" fill="#8800FF"/>
<path d="M429.733 161.381C429.733 161.547 377.845 161.688 313.84 161.688C249.836 161.688 197.947 161.547 197.947 161.381C197.947 161.216 249.824 161.074 313.84 161.074C377.856 161.074 429.733 161.204 429.733 161.381Z" fill="#FAFAFA"/>
<path d="M451.686 170.25C451.686 170.415 386.796 170.557 306.766 170.557C226.737 170.557 161.823 170.415 161.823 170.25C161.823 170.084 226.702 169.943 306.766 169.943C386.831 169.943 451.686 170.073 451.686 170.25Z" fill="#FAFAFA"/>
<path d="M284.991 195.096H147.936V211.073H284.991V195.096Z" fill="#8800FF"/>
<path d="M284.991 209.302H147.936V276.719H284.991V209.302Z" fill="#EBEBEB"/>
<path d="M205.918 218.348C205.918 218.525 194.605 218.655 180.659 218.655C166.712 218.655 155.399 218.525 155.399 218.348C155.399 218.171 166.712 218.041 180.659 218.041C194.605 218.041 205.918 218.182 205.918 218.348Z" fill="#263238"/>
<path d="M185.748 235.884C185.748 236.061 178.946 236.191 170.574 236.191C162.201 236.191 155.399 236.061 155.399 235.884C155.399 235.707 162.19 235.577 170.574 235.577C178.958 235.577 185.748 235.719 185.748 235.884Z" fill="#263238"/>
<path d="M210.795 248.661C210.795 248.826 198.396 248.968 183.103 248.968C167.811 248.968 155.399 248.826 155.399 248.661C155.399 248.496 167.799 248.354 183.103 248.354C198.408 248.354 210.795 248.484 210.795 248.661Z" fill="#263238"/>
<path d="M185.748 223.118C185.748 223.284 178.946 223.425 170.574 223.425C162.201 223.425 155.399 223.284 155.399 223.118C155.399 222.953 162.19 222.811 170.574 222.811C178.958 222.811 185.748 222.941 185.748 223.118Z" fill="#263238"/>
<path d="M279.901 218.348C277.229 218.659 274.536 218.761 271.848 218.655C269.159 218.761 266.466 218.659 263.794 218.348C266.467 218.044 269.159 217.941 271.848 218.041C274.536 217.941 277.228 218.044 279.901 218.348Z" fill="#263238"/>
<path d="M279.901 232.743C277.228 233.047 274.536 233.149 271.848 233.05C269.159 233.149 266.467 233.047 263.794 232.743C266.466 232.432 269.159 232.329 271.848 232.436C274.536 232.329 277.229 232.432 279.901 232.743Z" fill="#263238"/>
<path d="M279.901 248.661C277.228 248.965 274.536 249.068 271.848 248.968C269.159 249.068 266.467 248.965 263.794 248.661C266.466 248.35 269.159 248.248 271.848 248.354C274.536 248.248 277.229 248.35 279.901 248.661Z" fill="#263238"/>
<path d="M279.015 268.17C279.015 268.335 273.312 268.477 266.274 268.477C259.235 268.477 253.543 268.335 253.543 268.17C253.543 268.004 259.235 267.863 266.274 267.863C273.312 267.863 279.015 268.004 279.015 268.17Z" fill="#263238"/>
<path d="M217.278 275.55C217.113 275.55 216.971 260.978 216.971 243.017C216.971 225.055 217.113 210.483 217.278 210.483C217.443 210.483 217.585 225.043 217.585 243.017C217.585 260.99 217.479 275.55 217.278 275.55Z" fill="#E0E0E0"/>
<path d="M283.845 257.542C283.845 257.707 268.694 257.849 250.001 257.849C231.307 257.849 216.168 257.707 216.168 257.542C216.168 257.376 231.307 257.234 250.001 257.234C268.694 257.234 283.845 257.4 283.845 257.542Z" fill="#E0E0E0"/>
<path d="M284.991 306.324H147.936V322.892H284.991V306.324Z" fill="#F5F5F5"/>
<path d="M284.991 290.937H147.711V306.915H284.991V290.937Z" fill="#8800FF"/>
<path d="M211.952 315.405C211.952 315.583 199.022 315.712 183.079 315.712C167.137 315.712 154.207 315.583 154.207 315.405C154.207 315.228 167.126 315.098 183.079 315.098C199.033 315.098 211.952 315.252 211.952 315.405Z" fill="#263238"/>
<path d="M279.015 314.602C279.015 314.768 273.312 314.909 266.274 314.909C259.235 314.909 253.543 314.768 253.543 314.602C253.543 314.437 259.235 314.295 266.274 314.295C273.312 314.295 279.015 314.437 279.015 314.602Z" fill="#263238"/>
<path d="M369.484 250.433H357.627V290.654H369.484V250.433Z" fill="#8800FF"/>
<path d="M441.518 257.731H429.662V290.654H441.518V257.731Z" fill="#8800FF"/>
<path d="M489.545 266.93H477.689V290.654H489.545V266.93Z" fill="#263238"/>
<path d="M393.503 225.764H381.647V290.654H393.503V225.764Z" fill="#455A64"/>
<path d="M417.511 225.764H405.654V290.654H417.511V225.764Z" fill="#263238"/>
<path d="M465.526 210.778H453.67V290.654H465.526V210.778Z" fill="#455A64"/>
<path d="M89.4463 110.13H78.9246V120.652H89.4463V110.13Z" fill="#8800FF"/>
<path d="M95.5629 125.281H83.8721V113.579H95.5629V125.281ZM85.053 124.1H94.382V114.759H85.053V124.1Z" fill="#8800FF"/>
<path d="M120.799 112.917H110.974V122.742H120.799V112.917Z" fill="#E0E0E0"/>
<path d="M136.764 112.917H126.939V122.742H136.764V112.917Z" fill="#E0E0E0"/>
<path d="M152.73 112.917H142.905V122.742H152.73V112.917Z" fill="#E0E0E0"/>
<path d="M168.708 112.917H158.883V122.742H168.708V112.917Z" fill="#E0E0E0"/>
<path d="M184.674 112.917H174.849V122.742H184.674V112.917Z" fill="#E0E0E0"/>
<path d="M303.141 112.823H199.293V122.849H303.141V112.823Z" fill="#E0E0E0"/>
<path d="M421.243 112.823H317.395V122.849H421.243V112.823Z" fill="#E0E0E0"/>
<path d="M523.555 112.823H434.02V122.849H523.555V112.823Z" fill="#E0E0E0"/>
<path d="M523.756 329.812C523.756 327.947 523.662 234.42 523.52 81.9542L523.756 82.1786L66.6551 82.2612L66.9621 81.9542C66.9621 169.529 66.9621 253.373 66.9621 329.812L66.6787 329.529L523.815 329.812L66.6787 330.108H66.3245V329.812C66.3245 253.373 66.3245 169.529 66.3245 81.9542V81.6472H66.6669L523.768 81.718H524.004V81.9542C523.839 234.42 523.756 327.958 523.756 329.812Z" fill="#263238"/>
<path d="M493.301 61.9263H36.1641V309.796H493.301V61.9263Z" fill="#F5F5F5"/>
<path d="M493.301 61.9263H36.1641V82.8045H493.301V61.9263Z" fill="#263238"/>
<path d="M46.9931 75.2349C48.4214 75.2349 49.5793 74.077 49.5793 72.6487C49.5793 71.2204 48.4214 70.0626 46.9931 70.0626C45.5648 70.0626 44.407 71.2204 44.407 72.6487C44.407 74.077 45.5648 75.2349 46.9931 75.2349Z" fill="#FAFAFA"/>
<path d="M56.4045 75.2349C57.8328 75.2349 58.9907 74.077 58.9907 72.6487C58.9907 71.2204 57.8328 70.0626 56.4045 70.0626C54.9762 70.0626 53.8184 71.2204 53.8184 72.6487C53.8184 74.077 54.9762 75.2349 56.4045 75.2349Z" fill="#FAFAFA"/>
<path d="M65.8161 75.2349C67.2444 75.2349 68.4023 74.077 68.4023 72.6487C68.4023 71.2204 67.2444 70.0626 65.8161 70.0626C64.3878 70.0626 63.23 71.2204 63.23 72.6487C63.23 74.077 64.3878 75.2349 65.8161 75.2349Z" fill="#FAFAFA"/>
<path d="M52.118 118.68H35.491V309.784H52.118V118.68Z" fill="#455A64"/>
<path d="M35.479 111.323V127.95L493.1 127.95V111.323L35.479 111.323Z" fill="#455A64"/>
<path d="M52.1535 299.144C51.9881 299.144 51.8464 257.093 51.8464 205.24C51.8464 153.387 51.9881 111.323 52.1535 111.323C52.3188 111.323 52.4605 153.363 52.4605 205.24C52.4605 257.116 52.2834 299.144 52.1535 299.144Z" fill="#E0E0E0"/>
<path d="M117.492 309.784C117.327 309.784 117.185 265.359 117.185 210.589C117.185 155.819 117.327 111.394 117.492 111.394C117.658 111.394 117.799 155.819 117.799 210.589C117.799 265.359 117.658 309.784 117.492 309.784Z" fill="#E0E0E0"/>
<path d="M186.835 309.784C186.669 309.784 186.528 265.501 186.528 210.884C186.528 156.268 186.669 111.984 186.835 111.984C187 111.984 187.142 156.256 187.142 210.884C187.142 265.513 187.012 309.784 186.835 309.784Z" fill="#E0E0E0"/>
<path d="M254.547 309.784C254.37 309.784 254.24 265.501 254.24 210.884C254.24 156.268 254.37 111.984 254.547 111.984C254.724 111.984 254.854 156.256 254.854 210.884C254.854 265.513 254.713 309.784 254.547 309.784Z" fill="#E0E0E0"/>
<path d="M323.842 309.784C323.677 309.784 323.535 265.359 323.535 210.589C323.535 155.819 323.677 111.394 323.842 111.394C324.008 111.394 324.149 155.819 324.149 210.589C324.149 265.359 324.008 309.784 323.842 309.784Z" fill="#E0E0E0"/>
<path d="M393.149 309.784C392.972 309.784 392.83 265.359 392.83 210.589C392.83 155.819 392.972 111.394 393.149 111.394C393.326 111.394 393.456 155.819 393.456 210.589C393.456 265.359 393.314 309.784 393.149 309.784Z" fill="#E0E0E0"/>
<path d="M462.444 309.784C462.278 309.784 462.137 265.501 462.137 210.884C462.137 156.268 462.278 111.984 462.444 111.984C462.609 111.984 462.751 156.256 462.751 210.884C462.751 265.513 462.609 309.784 462.444 309.784Z" fill="#E0E0E0"/>
<path d="M490.585 143.113C490.585 143.29 388.709 143.432 263.062 143.432C137.414 143.432 35.5029 143.29 35.5029 143.113C35.5029 142.936 137.367 142.806 263.062 142.806C388.756 142.806 490.585 142.995 490.585 143.113Z" fill="#E0E0E0"/>
<path d="M490.585 127.95C490.585 128.127 388.709 128.257 263.062 128.257C137.414 128.257 35.5029 128.127 35.5029 127.95C35.5029 127.773 137.367 127.643 263.062 127.643C388.756 127.643 490.585 127.785 490.585 127.95Z" fill="#E0E0E0"/>
<path d="M490.585 159.09C490.585 159.267 388.709 159.397 263.062 159.397C137.414 159.397 35.5029 159.267 35.5029 159.09C35.5029 158.913 137.367 158.783 263.062 158.783C388.756 158.783 490.585 158.925 490.585 159.09Z" fill="#E0E0E0"/>
<path d="M490.585 175.068C490.585 175.233 388.709 175.375 263.062 175.375C137.414 175.375 35.5029 175.233 35.5029 175.068C35.5029 174.902 137.367 174.761 263.062 174.761C388.756 174.761 490.585 174.879 490.585 175.068Z" fill="#E0E0E0"/>
<path d="M490.585 191.045C490.585 191.211 388.709 191.352 263.062 191.352C137.414 191.352 35.5029 191.211 35.5029 191.045C35.5029 190.88 137.367 190.738 263.062 190.738C388.756 190.738 490.585 190.868 490.585 191.045Z" fill="#E0E0E0"/>
<path d="M490.585 207.011C490.585 207.188 388.709 207.318 263.062 207.318C137.414 207.318 35.5029 207.188 35.5029 207.011C35.5029 206.834 137.367 206.704 263.062 206.704C388.756 206.704 490.585 206.846 490.585 207.011Z" fill="#E0E0E0"/>
<path d="M490.585 222.989C490.585 223.154 388.709 223.296 263.062 223.296C137.414 223.296 35.5029 223.154 35.5029 222.989C35.5029 222.823 137.367 222.681 263.062 222.681C388.756 222.681 490.585 222.823 490.585 222.989Z" fill="#E0E0E0"/>
<path d="M490.585 238.966C490.585 239.131 388.709 239.273 263.062 239.273C137.414 239.273 35.5029 239.131 35.5029 238.966C35.5029 238.801 137.367 238.659 263.062 238.659C388.756 238.659 490.585 238.789 490.585 238.966Z" fill="#E0E0E0"/>
<path d="M490.585 254.932C490.585 255.109 388.709 255.251 263.062 255.251C137.414 255.251 35.5029 255.109 35.5029 254.932C35.5029 254.755 137.367 254.625 263.062 254.625C388.756 254.625 490.585 254.766 490.585 254.932Z" fill="#E0E0E0"/>
<path d="M490.585 270.909C490.585 271.086 388.709 271.216 263.062 271.216C137.414 271.216 35.5029 271.086 35.5029 270.909C35.5029 270.732 137.367 270.602 263.062 270.602C388.756 270.602 490.585 270.744 490.585 270.909Z" fill="#E0E0E0"/>
<path d="M490.585 286.887C490.585 287.052 388.709 287.194 263.062 287.194C137.414 287.194 35.5029 287.064 35.5029 286.887C35.5029 286.71 137.367 286.58 263.062 286.58C388.756 286.58 490.585 286.722 490.585 286.887Z" fill="#E0E0E0"/>
<path d="M490.585 302.864C490.585 303.03 388.709 303.171 263.062 303.171C137.414 303.171 35.5029 303.03 35.5029 302.864C35.5029 302.699 137.367 302.557 263.062 302.557C388.756 302.557 490.585 302.687 490.585 302.864Z" fill="#E0E0E0"/>
<path d="M493.1 127.95H52.1182V159.09H493.1V127.95Z" fill="#8800FF"/>
<path d="M399.337 141.353C399.337 141.519 347.437 141.66 283.444 141.66C219.451 141.66 167.551 141.519 167.551 141.353C167.551 141.188 219.428 141.034 283.444 141.034C347.46 141.034 399.337 141.176 399.337 141.353Z" fill="#FAFAFA"/>
<path d="M421.242 150.222C421.242 150.387 356.352 150.529 276.311 150.529C196.27 150.529 131.38 150.387 131.38 150.222C131.38 150.056 196.258 149.915 276.311 149.915C356.364 149.915 421.242 150.08 421.242 150.222Z" fill="#FAFAFA"/>
<path d="M254.547 175.068H117.492V191.045H254.547V175.068Z" fill="#8800FF"/>
<path d="M254.547 189.274H117.492V256.691H254.547V189.274Z" fill="#EBEBEB"/>
<path d="M175.474 198.32C175.474 198.497 164.161 198.627 150.215 198.627C136.269 198.627 124.956 198.497 124.956 198.32C124.956 198.143 136.269 198.013 150.215 198.013C164.161 198.013 175.474 198.154 175.474 198.32Z" fill="#263238"/>
<path d="M155.293 215.856C155.293 216.021 148.503 216.163 140.13 216.163C131.758 216.163 124.956 216.021 124.956 215.856C124.956 215.691 131.746 215.549 140.13 215.549C148.514 215.549 155.293 215.691 155.293 215.856Z" fill="#263238"/>
<path d="M180.351 228.633C180.351 228.799 167.952 228.94 152.659 228.94C137.367 228.94 124.956 228.799 124.956 228.633C124.956 228.468 137.355 228.326 152.659 228.326C167.964 228.326 180.351 228.456 180.351 228.633Z" fill="#263238"/>
<path d="M155.293 203.091C155.293 203.256 148.503 203.398 140.13 203.398C131.758 203.398 124.956 203.256 124.956 203.091C124.956 202.925 131.746 202.772 140.13 202.772C148.514 202.772 155.293 202.913 155.293 203.091Z" fill="#263238"/>
<path d="M249.457 198.32C246.785 198.63 244.092 198.733 241.404 198.627C238.711 198.733 236.015 198.63 233.338 198.32C236.015 198.016 238.711 197.913 241.404 198.013C244.092 197.914 246.784 198.016 249.457 198.32Z" fill="#263238"/>
<path d="M249.457 212.668C246.784 212.971 244.092 213.074 241.404 212.975C238.711 213.074 236.015 212.971 233.338 212.668C236.015 212.357 238.711 212.254 241.404 212.361C244.092 212.254 246.785 212.357 249.457 212.668Z" fill="#263238"/>
<path d="M249.457 228.633C246.784 228.937 244.092 229.039 241.404 228.94C238.711 229.04 236.015 228.937 233.338 228.633C236.015 228.322 238.711 228.22 241.404 228.326C244.092 228.22 246.785 228.323 249.457 228.633Z" fill="#263238"/>
<path d="M248.572 248.153C248.572 248.319 242.868 248.461 235.83 248.461C228.792 248.461 223.088 248.319 223.088 248.153C223.088 247.988 228.792 247.846 235.83 247.846C242.868 247.846 248.572 247.976 248.572 248.153Z" fill="#263238"/>
<path d="M186.835 255.522C186.669 255.522 186.528 240.95 186.528 222.989C186.528 205.027 186.669 190.455 186.835 190.455C187 190.455 187.142 205.015 187.142 222.989C187.142 240.962 187.012 255.522 186.835 255.522Z" fill="#E0E0E0"/>
<path d="M253.402 237.549C253.402 237.714 238.239 237.856 219.557 237.856C200.876 237.856 185.713 237.714 185.713 237.549C185.713 237.384 200.864 237.242 219.557 237.242C238.251 237.242 253.402 237.372 253.402 237.549Z" fill="#E0E0E0"/>
<path d="M254.547 286.296H117.492V302.864H254.547V286.296Z" fill="#F5F5F5"/>
<path d="M254.547 270.909H117.268V286.887H254.547V270.909Z" fill="#8800FF"/>
<path d="M181.509 295.389C181.509 295.566 168.578 295.696 152.636 295.696C136.694 295.696 123.751 295.566 123.751 295.389C123.751 295.212 136.741 295.082 152.636 295.082C168.531 295.082 181.509 295.224 181.509 295.389Z" fill="#263238"/>
<path d="M248.572 294.574C248.572 294.74 242.868 294.882 235.83 294.882C228.792 294.882 223.088 294.74 223.088 294.574C223.088 294.409 228.792 294.267 235.83 294.267C242.868 294.267 248.572 294.409 248.572 294.574Z" fill="#263238"/>
<path d="M339.04 230.405H327.184V270.626H339.04V230.405Z" fill="#8800FF"/>
<path d="M411.075 237.703H399.219V270.626H411.075V237.703Z" fill="#8800FF"/>
<path d="M459.09 246.902H447.234V270.626H459.09V246.902Z" fill="#263238"/>
<path d="M363.048 205.736H351.192V270.626H363.048V205.736Z" fill="#455A64"/>
<path d="M387.067 205.736H375.211V270.626H387.067V205.736Z" fill="#263238"/>
<path d="M435.082 190.75H423.226V270.626H435.082V190.75Z" fill="#455A64"/>
<path d="M58.9908 90.1024H48.469V100.624H58.9908V90.1024Z" fill="#8800FF"/>
<path d="M65.1433 105.206H53.4524V93.5152H65.1433V105.206ZM54.6333 104.025H63.9624V94.6961H54.6333V104.025Z" fill="#8800FF"/>
<path d="M90.3436 92.8893H80.5186V102.714H90.3436V92.8893Z" fill="#E0E0E0"/>
<path d="M106.321 92.8893H96.4961V102.714H106.321V92.8893Z" fill="#E0E0E0"/>
<path d="M122.287 92.8893H112.462V102.714H122.287V92.8893Z" fill="#E0E0E0"/>
<path d="M138.264 92.8893H128.439V102.714H138.264V92.8893Z" fill="#E0E0E0"/>
<path d="M154.23 92.8893H144.405V102.714H154.23V92.8893Z" fill="#E0E0E0"/>
<path d="M272.697 92.7948H168.849V102.821H272.697V92.7948Z" fill="#E0E0E0"/>
<path d="M390.799 92.7948H286.951V102.821H390.799V92.7948Z" fill="#E0E0E0"/>
<path d="M493.1 92.7948H403.564V102.821H493.1V92.7948Z" fill="#E0E0E0"/>
<path d="M493.312 309.784C493.312 307.919 493.218 214.392 493.076 61.9262L493.312 62.1506L36.1993 62.2332L36.5064 61.9262C36.5064 149.501 36.5064 233.345 36.5064 309.784L36.2112 309.501L493.359 309.784L36.2112 310.08H35.9277V309.784C35.9277 233.345 35.9277 149.501 35.9277 61.9262V61.6074H36.2702L493.383 61.69H493.607V61.9262C493.395 214.392 493.312 307.919 493.312 309.784Z" fill="#263238"/>
<path d="M276.618 336.189L308.502 370.211L356.187 356.04L364.583 374.627C364.583 374.627 309.246 395.246 304.404 393.344C299.563 391.443 270.442 366.762 270.442 366.762L276.618 336.189Z" fill="#8800FF"/>
<path d="M295.89 357.918C295.205 358.792 294.451 359.609 293.635 360.362C292.218 361.838 290.293 363.905 288.274 366.267C284.967 370.163 282.499 373.706 281.649 374.781L281.165 375.395L281.495 374.698C281.649 374.367 281.743 374.214 281.767 374.226C281.79 374.238 281.767 374.415 281.661 374.757L281.507 374.675C283.34 371.557 285.446 368.609 287.801 365.865C289.534 363.816 291.379 361.864 293.328 360.02C294.105 359.23 294.964 358.526 295.89 357.918Z" fill="#FAFAFA"/>
<path d="M293.328 353.926C292.521 354.827 291.657 355.675 290.741 356.465C289.135 358 286.974 360.185 284.754 362.771C282.534 365.357 280.704 367.814 279.429 369.644C278.793 370.668 278.086 371.647 277.315 372.573C277.78 371.453 278.366 370.388 279.062 369.396C280.639 366.915 282.387 364.548 284.294 362.311C286.198 360.089 288.258 358.005 290.458 356.075C291.335 355.258 292.297 354.538 293.328 353.926Z" fill="#FAFAFA"/>
<path d="M361.111 456.404L360.32 452.708L339.713 456.782L341.083 464.836L342.382 464.706C348.145 464.115 371.633 461.305 375.27 459.545C379.32 457.573 361.111 456.404 361.111 456.404Z" fill="#8800FF"/>
<g opacity="0.5">
<path d="M348.558 463.478C348.029 461.747 346.881 460.272 345.334 459.333C344.554 458.842 343.673 458.534 342.757 458.432C341.84 458.33 340.913 458.436 340.044 458.743L341.059 464.529L348.558 463.478Z" fill="white"/>
</g>
<g opacity="0.5">
<path d="M370.05 457.29C370.05 457.29 376.498 458.081 375.896 459.227C375.294 460.372 351.652 464.092 341.083 464.836V464.364L368.633 460.242C368.633 460.242 368.858 457.526 370.05 457.29Z" fill="white"/>
</g>
<path d="M340.717 464.399H341.083L342.111 464.293L345.901 463.868C349.09 463.478 353.506 462.876 358.348 462.12C363.19 461.364 367.582 460.573 370.747 459.959L374.479 459.203L375.494 458.979C375.616 458.964 375.736 458.932 375.849 458.884H375.483L374.467 459.061L370.712 459.735C367.547 460.301 363.166 461.057 358.312 461.825C353.459 462.592 349.066 463.206 345.878 463.643L342.099 464.151L341.071 464.293L340.717 464.399Z" fill="#263238"/>
<path d="M368.692 460.561C368.764 459.915 368.903 459.278 369.106 458.66C369.392 458.071 369.749 457.52 370.168 457.018C369.594 457.392 369.146 457.929 368.883 458.562C368.62 459.194 368.553 459.891 368.692 460.561Z" fill="#263238"/>
<path d="M362.091 458.435C362.162 458.435 362.398 458.058 362.622 457.538C362.795 457.23 362.896 456.887 362.918 456.534C362.847 456.534 362.611 456.912 362.386 457.432C362.214 457.74 362.113 458.083 362.091 458.435Z" fill="#263238"/>
<path d="M360.273 457.81C360.332 457.81 360.627 457.585 360.934 457.207C361.241 456.829 361.442 456.487 361.383 456.44C361.324 456.393 361.04 456.664 360.733 457.042C360.426 457.42 360.226 457.762 360.273 457.81Z" fill="#263238"/>
<path d="M358.915 456.026C359.65 456.086 360.389 455.977 361.076 455.707C360.34 455.647 359.601 455.756 358.915 456.026Z" fill="#263238"/>
<path d="M358.324 454.751C358.72 454.929 359.161 454.983 359.588 454.904C360.008 454.906 360.419 454.783 360.768 454.55C359.942 454.625 359.116 454.692 358.289 454.751H358.324Z" fill="#263238"/>
<path d="M362.516 456.511C362.966 456.522 363.415 456.45 363.839 456.298C364.31 456.157 364.769 455.976 365.209 455.755C365.48 455.637 365.735 455.482 365.964 455.294C366.036 455.239 366.097 455.17 366.141 455.091C366.186 455.011 366.214 454.924 366.224 454.834C366.23 454.732 366.207 454.631 366.157 454.543C366.106 454.455 366.031 454.384 365.941 454.338C365.395 454.167 364.806 454.192 364.276 454.408C363.747 454.623 363.308 455.016 363.036 455.519C362.876 455.815 362.776 456.14 362.74 456.475C362.715 456.596 362.715 456.72 362.74 456.841C362.818 456.427 362.962 456.029 363.166 455.66C363.413 455.262 363.77 454.942 364.193 454.739C364.436 454.611 364.702 454.533 364.976 454.509C365.249 454.484 365.525 454.515 365.787 454.598C366.023 454.727 365.988 454.987 365.787 455.164C365.569 455.332 365.336 455.478 365.09 455.601C364.664 455.823 364.222 456.012 363.768 456.168C363.012 456.393 362.504 456.475 362.516 456.511Z" fill="#263238"/>
<path d="M362.87 456.522C362.977 456.216 362.977 455.884 362.87 455.578C362.781 455.234 362.601 454.92 362.351 454.668C362.214 454.489 362.034 454.349 361.827 454.26C361.62 454.171 361.394 454.137 361.17 454.16C361.039 454.208 360.933 454.306 360.873 454.432C360.813 454.558 360.805 454.702 360.851 454.834C360.916 455.043 361.025 455.236 361.17 455.4C361.391 455.664 361.645 455.898 361.926 456.097C362.172 456.303 362.463 456.449 362.776 456.522C362.776 456.522 362.469 456.322 362.044 455.955C361.787 455.749 361.557 455.511 361.359 455.247C361.123 454.999 360.922 454.515 361.253 454.397C361.583 454.279 361.973 454.597 362.209 454.822C362.44 455.052 362.617 455.33 362.729 455.637C362.803 455.927 362.85 456.223 362.87 456.522Z" fill="#263238"/>
<path d="M340.292 458.672C340.292 458.672 340.87 458.518 341.827 458.483C343.064 458.433 344.29 458.727 345.37 459.333C346.445 459.956 347.327 460.863 347.92 461.955C348.381 462.781 348.499 463.384 348.546 463.36C348.547 463.219 348.523 463.079 348.475 462.947C348.38 462.572 348.245 462.207 348.074 461.86C347.511 460.703 346.61 459.745 345.49 459.112C344.37 458.48 343.084 458.202 341.803 458.317C341.403 458.347 341.008 458.418 340.622 458.53C340.505 458.557 340.393 458.605 340.292 458.672Z" fill="#263238"/>
<path d="M350.849 461.045C351.876 461.127 352.909 461.067 353.919 460.868C354.942 460.759 355.947 460.517 356.907 460.148C356.907 460.077 355.549 460.372 353.884 460.62C352.219 460.868 350.849 460.974 350.849 461.045Z" fill="#263238"/>
<path d="M346.787 461.683C346.787 461.742 346.94 461.954 347.129 462.238C347.318 462.521 347.436 462.793 347.507 462.781C347.578 462.769 347.566 462.427 347.342 462.096C347.117 461.765 346.822 461.624 346.787 461.683Z" fill="#263238"/>
<path d="M345.015 460.018C345.015 460.077 345.145 460.277 345.393 460.455C345.641 460.632 345.877 460.738 345.913 460.691C345.948 460.644 345.795 460.431 345.547 460.254C345.299 460.077 345.015 459.97 345.015 460.018Z" fill="#263238"/>
<path d="M342.654 459.475C342.654 459.545 342.961 459.475 343.279 459.557C343.598 459.64 343.846 459.746 343.893 459.687C343.941 459.628 343.716 459.368 343.327 459.309C342.937 459.25 342.654 459.475 342.654 459.475Z" fill="#263238"/>
<path d="M341.012 459.333C341.012 459.404 341.13 459.486 341.319 459.534C341.508 459.581 341.662 459.534 341.674 459.475C341.685 459.415 341.555 459.321 341.366 459.286C341.178 459.25 341.024 459.262 341.012 459.333Z" fill="#263238"/>
<path d="M240.105 431.7L310.958 364.873C313.134 362.661 315.73 360.907 318.594 359.712C321.457 358.518 324.53 357.908 327.633 357.918H329.038C334.562 358.279 339.799 360.505 343.893 364.231C347.986 367.958 350.693 372.964 351.569 378.43L366.272 452.035L336.749 460.301L326.121 400.713L291.131 432.338L240.105 431.7Z" fill="#263238"/>
<path d="M217.703 438.691C217.396 439.541 215.436 464.057 246.045 464.057H327.928C338.284 464.057 346.692 456.168 346.692 446.438C346.692 436.695 338.284 428.807 327.928 428.807H251.725C249.006 428.803 246.316 429.362 243.824 430.448L217.703 438.691Z" fill="#263238"/>
<path d="M335.202 428.771C335.202 428.948 318.292 429.102 297.414 429.102C276.535 429.102 259.625 428.948 259.625 428.771C259.625 428.594 276.535 428.441 297.414 428.441C318.292 428.441 335.202 428.63 335.202 428.771Z" fill="#455A64"/>
<path d="M323.96 385.137C324.149 385.137 324.161 388.68 324.798 392.978C325.436 397.277 326.44 400.666 326.251 400.737C324.24 395.798 323.454 390.446 323.96 385.137Z" fill="#455A64"/>
<path d="M327.432 384.629C327.864 390.003 327.421 395.411 326.121 400.642C325.932 400.642 326.428 397.1 326.806 392.636C327.184 388.172 327.302 384.629 327.432 384.629Z" fill="#455A64"/>
<path d="M333.277 463.36C335.439 462.492 337.454 461.297 339.253 459.817C341.16 458.181 342.711 456.172 343.811 453.913C345.124 451.142 345.698 448.078 345.476 445.02C345.255 441.961 344.246 439.012 342.547 436.459C341.133 434.39 339.308 432.633 337.186 431.299C335.194 430.11 333.032 429.234 330.774 428.701C330.934 428.677 331.098 428.677 331.258 428.701C331.724 428.75 332.186 428.833 332.64 428.949C334.303 429.359 335.895 430.016 337.363 430.897C339.584 432.212 341.496 433.988 342.973 436.105C344.756 438.728 345.815 441.776 346.044 444.94C346.272 448.105 345.66 451.273 344.272 454.125C343.119 456.43 341.489 458.463 339.489 460.089C338.143 461.178 336.642 462.061 335.037 462.71C334.605 462.882 334.163 463.028 333.714 463.147C333.577 463.234 333.43 463.305 333.277 463.36Z" fill="#455A64"/>
<path d="M265.364 273.011L264.703 276.554L254.417 329.635C253.236 335.799 257.57 341.739 264.183 342.967C270.855 344.148 277.315 340.181 278.625 333.969C280.007 327.462 281.566 320.625 281.566 320.625C281.566 320.625 290.257 320.979 294.272 310.387C296.268 305.12 297.815 296.121 298.901 288.729C299.134 287.144 299.042 285.528 298.631 283.98C298.22 282.432 297.498 280.983 296.509 279.723C295.521 278.462 294.286 277.416 292.88 276.648C291.474 275.88 289.927 275.406 288.332 275.255L265.364 273.011Z" fill="#FFBE9D"/>
<path d="M296.055 294.893C296.025 295.079 295.959 295.256 295.86 295.416C295.761 295.576 295.632 295.714 295.479 295.824C295.327 295.934 295.154 296.012 294.972 296.055C294.789 296.098 294.599 296.105 294.414 296.074C294.233 296.05 294.058 295.989 293.901 295.897C293.743 295.804 293.605 295.681 293.496 295.535C293.386 295.389 293.306 295.223 293.261 295.046C293.216 294.869 293.206 294.684 293.233 294.504C293.297 294.128 293.506 293.793 293.816 293.572C294.126 293.351 294.511 293.261 294.886 293.323C295.067 293.347 295.241 293.408 295.398 293.5C295.555 293.593 295.692 293.716 295.801 293.862C295.91 294.008 295.989 294.175 296.032 294.352C296.076 294.529 296.084 294.713 296.055 294.893Z" fill="#263238"/>
<path d="M295.996 292.968C295.784 293.122 294.886 292.106 293.375 291.787C291.863 291.469 290.599 292.012 290.47 291.787C290.34 291.563 290.647 291.398 291.213 291.138C291.96 290.827 292.783 290.749 293.575 290.914C294.365 291.078 295.081 291.492 295.618 292.095C296.008 292.555 296.102 292.968 295.996 292.968Z" fill="#263238"/>
<path d="M280.952 291.457C280.888 291.832 280.679 292.167 280.369 292.388C280.059 292.609 279.674 292.699 279.299 292.638C279.117 292.616 278.942 292.558 278.784 292.467C278.626 292.376 278.487 292.255 278.377 292.109C278.267 291.964 278.187 291.797 278.142 291.62C278.098 291.443 278.089 291.259 278.118 291.079C278.148 290.893 278.214 290.716 278.313 290.556C278.412 290.396 278.541 290.258 278.694 290.148C278.846 290.038 279.019 289.96 279.201 289.917C279.384 289.874 279.574 289.868 279.759 289.898C280.123 289.948 280.453 290.14 280.676 290.432C280.9 290.724 280.999 291.092 280.952 291.457Z" fill="#263238"/>
<path d="M281.082 290.182C280.869 290.323 279.901 289.319 278.448 289.001C276.996 288.682 275.673 289.213 275.555 289.001C275.437 288.788 275.732 288.599 276.287 288.351C277.033 288.037 277.857 287.959 278.649 288.127C279.439 288.291 280.156 288.705 280.692 289.308C281.093 289.756 281.176 290.122 281.082 290.182Z" fill="#263238"/>
<path d="M284.235 302.534C285.084 302.45 285.941 302.474 286.785 302.605C287.175 302.605 287.565 302.605 287.683 302.392C287.796 302.007 287.796 301.597 287.683 301.211C287.518 300.207 287.34 299.144 287.151 298.034C286.607 295.309 286.284 292.545 286.183 289.768C286.944 292.428 287.489 295.145 287.813 297.893C287.978 299.003 288.143 300.066 288.297 301.081C288.436 301.599 288.394 302.149 288.179 302.64C288.093 302.763 287.98 302.865 287.849 302.938C287.718 303.012 287.573 303.055 287.423 303.065C287.2 303.097 286.973 303.097 286.75 303.065C285.893 302.99 285.048 302.812 284.235 302.534Z" fill="#263238"/>
<path d="M281.566 320.637C276.39 319.645 271.591 317.238 267.702 313.681C267.702 313.681 269.709 321.948 280.881 323.199L281.566 320.637Z" fill="#EB996E"/>
<path d="M279.57 302.652C279.818 302.652 279.487 304.329 280.645 305.793C281.802 307.257 283.597 307.423 283.562 307.659C283.526 307.895 283.101 307.895 282.381 307.765C281.419 307.578 280.554 307.06 279.936 306.301C279.342 305.567 279.054 304.632 279.133 303.691C279.192 302.994 279.464 302.616 279.57 302.652Z" fill="#263238"/>
<path d="M282.7 284.336C282.463 284.714 280.999 284.206 279.157 284.053C277.315 283.899 275.803 284.053 275.614 283.663C275.555 283.474 275.886 283.132 276.547 282.86C277.413 282.517 278.349 282.391 279.275 282.494C280.206 282.57 281.106 282.869 281.897 283.368C282.546 283.769 282.806 284.159 282.7 284.336Z" fill="#263238"/>
<path d="M296.351 288.493C296.008 288.788 295.052 288.209 293.8 287.938C292.548 287.666 291.438 287.678 291.273 287.276C291.202 287.076 291.438 286.769 291.97 286.544C292.669 286.269 293.439 286.223 294.166 286.414C294.902 286.573 295.567 286.962 296.067 287.524C296.433 287.973 296.504 288.351 296.351 288.493Z" fill="#263238"/>
<path d="M310.462 276.2C310.649 275.304 310.541 274.372 310.155 273.543C310.005 272.806 309.584 272.153 308.974 271.712C308.199 271.458 307.356 271.505 306.613 271.842C303.932 272.621 300.708 272.492 298.807 270.401C297.354 268.772 297.071 266.268 295.382 264.887C293.694 263.505 290.801 263.777 288.521 264.509C286.242 265.241 283.798 266.221 281.519 265.536C279.935 264.851 278.469 263.923 277.173 262.785C274.569 260.954 271.346 260.232 268.21 260.777C266.664 261.075 265.213 261.742 263.979 262.72C262.746 263.699 261.767 264.961 261.125 266.398C260.522 267.855 260.348 269.454 260.624 271.007C260.9 272.56 261.615 274.001 262.683 275.16C262.79 275.302 262.896 275.432 263.014 275.562C261.928 281.254 260.652 290.323 263.203 291.008C266.97 292.024 268.316 282.364 268.316 282.364C273.406 281.738 274.551 276.755 275.98 275.987C277.409 275.219 282.889 277.416 287.352 280.711C292.891 284.797 302.527 285.434 305.892 285.517C306.187 285.546 306.484 285.546 306.778 285.517H307.097C307.319 285.472 307.537 285.404 307.746 285.316C308.796 284.666 309.563 283.647 309.896 282.458C310.373 281.467 310.589 280.369 310.521 279.27C310.468 278.869 310.324 278.486 310.101 278.148C309.878 277.811 309.582 277.528 309.234 277.321C309.517 277.254 309.779 277.116 309.994 276.92C310.209 276.723 310.37 276.476 310.462 276.2Z" fill="#263238"/>
<path d="M303.897 278.455C303.991 278.257 304.138 278.09 304.322 277.971C304.58 277.781 304.879 277.654 305.194 277.601C305.51 277.547 305.834 277.569 306.14 277.664C306.632 277.844 307.038 278.203 307.277 278.669C307.516 279.136 307.57 279.675 307.428 280.179C307.332 280.497 307.161 280.787 306.928 281.023C306.696 281.26 306.409 281.436 306.093 281.537C305.404 281.773 304.656 281.773 303.968 281.537C302.456 281.041 301.606 279.459 300.968 277.995C300.678 277.182 300.327 276.392 299.917 275.633C299.517 274.862 298.912 274.216 298.169 273.767C297.771 273.57 297.337 273.454 296.893 273.425C296.449 273.397 296.004 273.457 295.583 273.602C294.674 273.85 293.765 274.298 292.761 274.605C291.723 274.936 290.617 274.997 289.549 274.783C288.467 274.55 287.435 274.126 286.502 273.531C284.727 272.345 283.115 270.932 281.708 269.327C280.419 267.888 278.913 266.661 277.244 265.69C275.71 264.885 273.943 264.643 272.249 265.005C270.419 265.375 268.798 266.425 267.713 267.944C266.628 269.463 266.16 271.338 266.403 273.188C266.517 273.993 266.711 274.784 266.982 275.55C266.851 275.376 266.744 275.185 266.663 274.983C266.419 274.418 266.253 273.822 266.167 273.212C265.993 272.077 266.072 270.918 266.399 269.818C266.726 268.717 267.292 267.703 268.057 266.847C269.236 265.58 270.797 264.733 272.503 264.435C274.208 264.136 275.964 264.403 277.504 265.194C279.245 266.17 280.816 267.422 282.156 268.902C283.548 270.469 285.136 271.85 286.88 273.011C287.753 273.567 288.716 273.967 289.726 274.192C290.696 274.386 291.699 274.333 292.643 274.039C293.599 273.755 294.509 273.306 295.489 273.047C295.981 272.885 296.501 272.823 297.018 272.863C297.535 272.904 298.039 273.046 298.5 273.283C300.295 274.346 300.862 276.282 301.499 277.77C302.137 279.258 302.893 280.711 304.18 281.148C304.77 281.37 305.417 281.395 306.022 281.218C306.294 281.149 306.544 281.014 306.75 280.824C306.956 280.635 307.112 280.397 307.203 280.132C307.331 279.702 307.296 279.24 307.104 278.835C306.912 278.429 306.578 278.109 306.164 277.936C305.888 277.842 305.596 277.809 305.306 277.84C305.016 277.87 304.737 277.963 304.487 278.113C304.038 278.278 303.92 278.479 303.897 278.455Z" fill="#455A64"/>
<path d="M308.23 280.581C308.206 280.738 308.154 280.89 308.077 281.029C307.882 281.448 307.614 281.827 307.286 282.151C306.759 282.676 306.103 283.05 305.384 283.238C304.419 283.487 303.397 283.395 302.491 282.978C301.454 282.401 300.587 281.562 299.976 280.545C299.634 280.046 299.211 279.607 298.724 279.246C298.473 279.075 298.189 278.958 297.891 278.901C297.592 278.844 297.285 278.849 296.988 278.916C296.314 279.077 295.654 279.294 295.016 279.565C294.289 279.826 293.522 279.958 292.749 279.955C291.138 279.931 289.556 279.526 288.132 278.774C285.215 277.251 283.042 275.031 280.704 273.637C278.731 272.238 276.293 271.658 273.902 272.019C273.118 272.201 272.382 272.551 271.746 273.044C271.11 273.538 270.589 274.163 270.217 274.877C269.99 275.429 269.839 276.009 269.769 276.601C269.741 276.441 269.741 276.277 269.769 276.117C269.779 275.655 269.875 275.198 270.052 274.771C270.404 273.991 270.927 273.301 271.584 272.753C272.24 272.205 273.013 271.813 273.843 271.606C275.086 271.375 276.363 271.393 277.599 271.659C278.836 271.924 280.007 272.432 281.046 273.153C283.479 274.582 285.663 276.778 288.45 278.219C289.785 278.94 291.268 279.344 292.784 279.4C293.496 279.407 294.203 279.291 294.874 279.057C295.545 278.784 296.236 278.563 296.941 278.396C297.307 278.325 297.684 278.328 298.049 278.405C298.415 278.482 298.76 278.632 299.067 278.845C299.6 279.246 300.063 279.733 300.436 280.286C300.978 281.261 301.769 282.076 302.727 282.647C303.537 283.056 304.463 283.172 305.349 282.978C306.024 282.824 306.649 282.503 307.168 282.045C307.584 281.605 307.941 281.113 308.23 280.581Z" fill="#455A64"/>
<path d="M264.171 287.123C264.03 287.017 258.267 283.639 256.885 290.016C255.504 296.393 262.188 296.476 262.235 296.299C262.282 296.121 264.171 287.123 264.171 287.123Z" fill="#FFBE9D"/>
<path d="M260.818 293.453C260.818 293.453 260.688 293.453 260.487 293.559C260.197 293.61 259.898 293.551 259.648 293.393C259.295 293.043 259.04 292.604 258.912 292.123C258.783 291.641 258.785 291.134 258.916 290.654C259.017 290.102 259.243 289.581 259.578 289.13C259.68 288.944 259.826 288.786 260.002 288.669C260.179 288.551 260.382 288.479 260.593 288.457C260.729 288.451 260.862 288.493 260.97 288.575C261.078 288.657 261.153 288.774 261.184 288.906C261.184 289.107 261.184 289.225 261.184 289.237C261.184 289.249 261.337 289.166 261.349 288.882C261.35 288.718 261.291 288.559 261.184 288.434C261.037 288.264 260.829 288.158 260.605 288.139C260.333 288.134 260.065 288.198 259.825 288.326C259.585 288.455 259.382 288.642 259.235 288.871C258.843 289.363 258.576 289.942 258.456 290.559C258.301 291.121 258.315 291.716 258.495 292.271C258.676 292.825 259.015 293.314 259.471 293.677C259.638 293.755 259.819 293.795 260.003 293.795C260.186 293.795 260.368 293.755 260.534 293.677C260.77 293.606 260.841 293.476 260.818 293.453Z" fill="#EB996E"/>
<path d="M368.468 356.323C370.298 356.583 382.025 358.354 383.135 359.228C384.245 360.102 384.221 361.33 382.898 361.59C381.576 361.85 374.172 361.354 374.172 361.354C374.172 361.354 383.725 361.578 384.02 362.535C384.481 364.046 381.08 364.897 374.691 363.881C374.691 363.881 384.434 362.842 384.327 365.239C384.327 366.42 375.565 366.526 375.565 366.526C375.364 367.199 384.339 365.345 384.599 366.786C384.717 367.471 383.489 368.168 378.931 368.805C376.179 369.195 371.633 369.762 367.122 370.364V370.423L362.186 371.12L356.399 358.071C356.848 357.634 359.576 355.922 361.43 354.635C362.584 353.833 363.989 353.476 365.386 353.631C366.099 353.71 366.773 354.001 367.32 354.466C367.867 354.931 368.263 355.549 368.456 356.241L368.468 356.323Z" fill="#FFBE9D"/>
<path d="M382.308 361.897C379.26 361.707 376.219 361.408 373.192 361C374.713 360.697 376.277 360.669 377.809 360.917C379.356 360.966 380.881 361.298 382.308 361.897Z" fill="#EB996E"/>
<path d="M382.651 364.023C381.301 364.171 379.938 364.171 378.588 364.023C377.229 364.077 375.867 363.986 374.526 363.751C375.854 363.376 377.241 363.26 378.612 363.409C379.985 363.35 381.357 363.559 382.651 364.023Z" fill="#EB996E"/>
<path d="M382.993 366.184C381.663 366.479 380.305 366.634 378.942 366.644C377.6 366.865 376.238 366.94 374.88 366.869C376.15 366.328 377.515 366.043 378.895 366.03C380.258 365.818 381.649 365.87 382.993 366.184Z" fill="#EB996E"/>
<path d="M401.816 391.597L368.196 386.354C367.808 386.295 367.435 386.159 367.099 385.956C366.763 385.752 366.471 385.483 366.24 385.166C366.008 384.849 365.841 384.489 365.75 384.107C365.658 383.725 365.643 383.329 365.705 382.941L372.79 337.642C372.851 337.252 372.987 336.879 373.192 336.542C373.397 336.206 373.666 335.913 373.984 335.681C374.302 335.448 374.663 335.281 375.045 335.187C375.428 335.094 375.825 335.078 376.215 335.138L399.726 338.799L410.803 353.56L405.241 389.093C405.181 389.483 405.044 389.856 404.839 390.193C404.634 390.529 404.365 390.822 404.047 391.054C403.729 391.287 403.369 391.454 402.986 391.547C402.603 391.64 402.206 391.657 401.816 391.597Z" fill="#8800FF"/>
<path d="M399.703 338.693L398.297 347.703C398.134 348.77 398.4 349.859 399.038 350.731C399.675 351.603 400.632 352.187 401.698 352.356L410.768 353.536L399.703 338.693Z" fill="#8800FF"/>
<g opacity="0.2">
<path d="M399.703 338.693L398.297 347.703C398.134 348.77 398.4 349.859 399.038 350.731C399.675 351.603 400.632 352.187 401.698 352.356L410.768 353.536L399.703 338.693Z" fill="black"/>
</g>
<path d="M398.156 381.854C398.14 381.709 398.14 381.563 398.156 381.417C398.156 381.099 398.25 380.697 398.321 380.237C398.474 379.126 398.687 377.615 398.947 375.714C399.525 371.805 400.328 366.337 401.309 359.772L401.533 360.079L378.588 356.536L378.931 356.288V356.453V356.642V357.02L378.812 357.776C378.73 358.272 378.647 358.768 378.576 359.264L378.116 362.216C377.809 364.153 377.513 366.054 377.218 367.908C376.628 371.604 376.037 375.1 375.565 378.323L375.341 378.016L391.873 380.733L396.597 381.536L397.848 381.76C398.001 381.778 398.151 381.81 398.297 381.854H397.896L396.715 381.689L392.074 381.04L375.341 378.571H375.081V378.3C375.577 375.076 376.108 371.581 376.675 367.873C376.97 366.019 377.265 364.117 377.561 362.181L378.021 359.228C378.092 358.732 378.175 358.236 378.246 357.74L378.364 356.985L378.423 356.607V356.418V356.253L378.777 355.993L401.698 359.535H401.97V359.795C400.883 366.408 399.986 371.923 399.336 375.867C399.018 377.733 398.758 379.221 398.569 380.296C398.486 380.768 398.415 381.146 398.368 381.476C398.316 381.612 398.244 381.739 398.156 381.854Z" fill="white"/>
<path d="M386.441 380.355C386.708 376.639 387.182 372.941 387.858 369.278C388.33 365.583 389.004 361.916 389.878 358.295C389.611 362.011 389.138 365.709 388.461 369.372C387.991 373.068 387.317 376.734 386.441 380.355Z" fill="white"/>
<path d="M398.923 376.434C395.046 376.141 391.187 375.644 387.362 374.946C383.507 374.446 379.68 373.748 375.896 372.856C379.774 373.141 383.633 373.637 387.457 374.344C391.313 374.836 395.141 375.534 398.923 376.434Z" fill="white"/>
<path d="M400.057 370.907C396.183 370.622 392.328 370.125 388.508 369.42C384.652 368.922 380.825 368.224 377.041 367.329C380.919 367.615 384.778 368.112 388.602 368.817C392.454 369.315 396.277 370.013 400.057 370.907Z" fill="white"/>
<path d="M400.766 365.204C396.916 364.912 393.085 364.419 389.287 363.728C385.461 363.242 381.664 362.544 377.915 361.637C381.761 361.929 385.588 362.422 389.382 363.114C393.212 363.599 397.013 364.297 400.766 365.204Z" fill="white"/>
<path d="M273.016 428.264V424.06L332.876 425.288L367.346 370.211L370.511 372.502L335.202 428.807L273.016 428.264Z" fill="#455A64"/>
<path d="M314.43 409.877L317.441 414.353V423.54C317.03 423.644 316.597 423.613 316.204 423.454C315.812 423.295 315.48 423.015 315.257 422.654C314.635 420.859 314.149 419.02 313.804 417.151L312.352 420.918C312.063 421.657 311.515 422.265 310.812 422.63C310.108 422.995 309.296 423.091 308.526 422.902L297.425 420.115L301.96 407.126L314.43 409.877Z" fill="#FFBE9D"/>
<path d="M365.835 353.678L376.037 356.926C376.052 357.166 376.014 357.407 375.928 357.632C375.841 357.856 375.706 358.06 375.534 358.228C375.361 358.396 375.154 358.525 374.927 358.606C374.701 358.687 374.459 358.718 374.219 358.697C372.341 358.626 367.334 358.154 367.334 358.154C367.334 358.154 367.334 361.696 364.382 362.44C364.382 362.44 360.674 356.016 360.839 355.839C361.005 355.662 365.835 353.678 365.835 353.678Z" fill="#FFBE9D"/>
<path d="M366.59 367.164C366.59 367.164 366.437 366.786 366.106 366.207C365.668 365.409 364.985 364.771 364.158 364.389L363.603 364.129L364.181 363.893C365.334 363.424 366.284 362.562 366.862 361.46C367.368 360.521 367.582 359.452 367.476 358.39V358.047H367.818C369.325 358.094 370.823 358.284 372.294 358.614C370.79 358.757 369.275 358.757 367.771 358.614L368.066 358.295C368.233 359.473 368.018 360.674 367.452 361.72C366.81 362.963 365.728 363.923 364.417 364.413V363.917C365.317 364.378 366.024 365.144 366.413 366.078C366.661 366.739 366.637 367.152 366.59 367.164Z" fill="#EB996E"/>
<path d="M253.13 321.074C253.13 321.074 239.75 328.726 234.79 336.189C229.831 343.652 221.021 352.497 214.869 376.493C209.543 397.442 207.559 425.855 213.322 433.696C215.255 436.52 217.59 439.046 220.254 441.194L230.598 436.955C242.915 432.55 254.122 429.704 263.781 420.895L283.396 402.992L272.981 394.797C272.981 394.797 280.881 352.119 278.779 337.216C276.984 324.179 253.13 321.074 253.13 321.074Z" fill="#8800FF"/>
<path d="M248.005 341.704L237.046 392.896C236.121 397.221 236.792 401.735 238.934 405.605C241.076 409.474 244.545 412.439 248.702 413.951L296.303 423.079L302.208 405.366L263.604 393.345L274.941 343.889L248.005 341.704Z" fill="#8800FF"/>
<path d="M236.645 402.626L236.715 402.933C236.763 403.146 236.822 403.441 236.893 403.819L237.022 404.469L237.306 405.236L237.625 406.122C237.79 406.417 237.967 406.736 238.144 407.078C239.108 408.703 240.423 410.091 241.994 411.141C244.125 412.563 246.492 413.595 248.985 414.187L296.067 422.808L295.748 422.985C297.72 417.364 299.787 411.424 301.948 405.272L302.149 405.661L263.534 393.604L263.238 393.51L263.321 393.203C263.982 390.569 264.703 387.747 265.435 384.937C267.678 375.974 269.78 367.223 271.611 358.685C272.508 354.422 273.359 350.23 273.973 346.085C274.138 345.058 274.138 344.03 274.232 343.015C274.226 342.009 274.111 341.008 273.89 340.027C273.44 338.092 272.538 336.291 271.257 334.772C270.014 333.318 268.463 332.158 266.717 331.378C264.97 330.598 263.072 330.216 261.16 330.261C259.359 330.365 257.598 330.839 255.988 331.651C254.377 332.464 252.95 333.598 251.795 334.985C249.586 337.586 247.941 340.618 246.966 343.889C246.05 346.911 245.32 349.987 244.781 353.1C242.419 364.968 240.541 374.58 239.219 381.252L237.684 388.893C237.507 389.755 237.365 390.416 237.259 390.888C237.152 391.361 237.105 391.561 237.105 391.561C237.123 391.331 237.155 391.103 237.2 390.876C237.282 390.392 237.4 389.696 237.554 388.869C237.884 387.098 238.357 384.511 238.971 381.205C240.234 374.521 242.065 364.897 244.32 353.017C244.848 349.881 245.57 346.781 246.481 343.735C247.468 340.394 249.137 337.294 251.382 334.63C252.583 333.178 254.069 331.988 255.749 331.135C257.429 330.281 259.267 329.783 261.148 329.671C263.15 329.621 265.138 330.02 266.967 330.837C268.795 331.654 270.418 332.87 271.717 334.394C273.065 335.983 274.016 337.869 274.492 339.897C274.729 340.923 274.847 341.973 274.847 343.027C274.764 344.078 274.764 345.152 274.587 346.191C274.008 350.36 273.158 354.564 272.225 358.827C270.395 367.365 268.257 376.092 266.049 385.078C265.317 387.924 264.596 390.747 263.923 393.344L263.711 392.955L302.326 405.024L302.621 405.118L302.527 405.413L296.292 423.127L296.209 423.351H295.973C276.488 419.702 260.262 416.726 248.902 414.494C246.371 413.876 243.971 412.808 241.817 411.341C240.232 410.255 238.915 408.821 237.967 407.149C237.778 406.807 237.613 406.476 237.448 406.169L237.141 405.26L236.881 404.492C236.881 404.248 236.845 404.024 236.774 403.819L236.633 402.922C236.624 402.823 236.628 402.724 236.645 402.626Z" fill="#263238"/>
<path d="M256.968 399.993C256.897 399.993 256.826 399.391 257.074 398.469C257.41 397.256 258.072 396.157 258.987 395.293C259.889 394.413 261.011 393.793 262.235 393.498C263.18 393.297 263.77 393.392 263.77 393.498C263.77 393.604 263.203 393.687 262.365 393.982C261.274 394.376 260.278 394.994 259.442 395.798C258.606 396.602 257.948 397.572 257.511 398.647C257.169 399.438 257.074 400.005 256.968 399.993Z" fill="#263238"/>
<g opacity="0.2">
<path d="M246.883 341.019C241.341 358.841 237.502 377.148 235.416 395.694C234.709 399.946 234.625 404.279 235.168 408.554C235.901 412.806 237.991 416.986 241.604 419.324C245.114 421.376 249.273 422.013 253.236 421.107C257.192 420.352 263.581 419.478 267.206 417.765L245.95 413.372C245.95 413.372 232.216 412.522 238.121 386.212C244.025 359.901 246.883 341.019 246.883 341.019Z" fill="black"/>
</g>
<path d="M272.981 394.797C272.996 394.115 273.071 393.435 273.205 392.766C273.406 391.361 273.666 389.495 273.984 387.239C274.669 382.516 275.602 376.08 276.618 369.006C277.633 361.933 278.507 355.438 279.098 350.761L279.794 345.223C279.836 344.542 279.939 343.866 280.102 343.204C280.125 343.885 280.101 344.568 280.031 345.247C279.936 346.569 279.771 348.47 279.523 350.809C279.039 355.532 278.236 361.968 277.22 369.101C276.205 376.233 275.213 382.657 274.421 387.298C274.02 389.66 273.689 391.502 273.441 392.801C273.344 393.478 273.19 394.146 272.981 394.797Z" fill="#263238"/>
<path d="M272.308 357.552C272.308 357.646 270.784 357.067 268.352 356.312C262 354.315 255.371 353.346 248.714 353.442C246.163 353.442 244.58 353.607 244.569 353.501C244.924 353.382 245.293 353.311 245.667 353.289C246.375 353.182 247.415 353.076 248.702 353.005C255.425 352.661 262.15 353.644 268.494 355.898C269.674 356.335 270.666 356.725 271.316 357.079C271.666 357.193 271.999 357.352 272.308 357.552Z" fill="#FAFAFA"/>
<path d="M271.032 362.818C271.032 362.913 269.497 362.322 267.017 361.637C260.55 359.719 253.788 358.987 247.06 359.476C244.486 359.665 242.891 359.913 242.88 359.807C243.231 359.661 243.6 359.562 243.978 359.512C244.686 359.358 245.726 359.193 247.025 359.051C250.408 358.681 253.821 358.681 257.204 359.051C260.586 359.422 263.919 360.15 267.147 361.224C268.387 361.649 269.367 362.039 270.028 362.334C270.69 362.629 271.056 362.771 271.032 362.818Z" fill="#FAFAFA"/>
<path d="M287.895 325.101C287.899 324.351 287.675 323.618 287.253 322.998C286.832 322.378 286.232 321.901 285.534 321.629C284.24 321.333 282.895 321.333 281.601 321.629C276.9 322.098 272.178 320.957 268.21 318.393C264.667 316.031 261.774 312.642 257.842 311.036C256.837 310.587 255.741 310.38 254.641 310.434C254.091 310.465 253.554 310.621 253.073 310.891C252.592 311.161 252.179 311.538 251.866 311.993C250.91 313.492 251.547 315.535 252.646 316.941C250.532 318.015 249.445 320.79 250.803 322.739C260.474 324.079 269.229 329.169 275.177 336.909C276.075 338.365 277.285 339.604 278.72 340.535C281.519 341.976 285.227 340.263 286.561 337.417C287.135 335.951 287.327 334.363 287.121 332.801C286.914 331.24 286.315 329.757 285.38 328.49C286.094 328.248 286.718 327.793 287.167 327.188C287.616 326.582 287.871 325.854 287.895 325.101Z" fill="#455A64"/>
<path d="M285.073 328.206C284.72 328.48 284.319 328.688 283.892 328.82C282.8 329.27 281.652 329.572 280.479 329.718C278.728 329.94 276.95 329.836 275.236 329.411C273.15 328.843 271.191 327.885 269.462 326.588C267.608 325.254 266.002 323.813 264.502 322.585C263.191 321.475 261.793 320.472 260.321 319.586C258.937 318.82 257.471 318.21 255.952 317.767C256.387 317.753 256.822 317.809 257.239 317.932C258.39 318.207 259.498 318.636 260.534 319.208C262.059 320.053 263.506 321.033 264.856 322.136C266.391 323.317 267.997 324.782 269.816 326.081C271.484 327.339 273.369 328.28 275.378 328.856C277.024 329.297 278.735 329.441 280.432 329.281C282.014 329.094 283.57 328.734 285.073 328.206Z" fill="#263238"/>
<path d="M280.657 341.184C280.94 341.098 281.216 340.992 281.483 340.865C282.201 340.483 282.792 339.901 283.184 339.189C283.763 338.133 284.014 336.928 283.904 335.729C283.802 334.259 283.52 332.808 283.066 331.406C282.938 331.002 282.704 330.64 282.388 330.357C282.073 330.075 281.687 329.882 281.271 329.8H281.058L281.247 329.576C281.972 328.672 282.387 327.558 282.428 326.399C282.453 325.483 282.242 324.576 281.814 323.766C281.417 323.037 280.884 322.392 280.243 321.865C280.438 321.974 280.62 322.105 280.787 322.254C281.259 322.664 281.659 323.151 281.968 323.695C282.434 324.519 282.674 325.452 282.664 326.399C282.639 327.608 282.225 328.775 281.483 329.73L281.247 329.576C281.71 329.657 282.14 329.865 282.493 330.175C282.845 330.485 283.104 330.887 283.243 331.336C283.717 332.765 284.003 334.249 284.093 335.752C284.186 336.987 283.906 338.221 283.29 339.295C282.867 340.017 282.238 340.597 281.483 340.96C281.223 341.083 280.943 341.159 280.657 341.184Z" fill="#FAFAFA"/>
<path d="M273.535 320.849C274.109 321.401 274.563 322.064 274.87 322.798C275.673 324.574 275.79 326.585 275.2 328.442L275.012 328.95V328.844C275.446 329.644 275.707 330.526 275.778 331.433C275.849 332.341 275.729 333.253 275.425 334.111C275.2 334.818 274.816 335.464 274.303 336C274.692 335.392 275.013 334.742 275.259 334.063C275.531 333.228 275.63 332.346 275.551 331.471C275.472 330.597 275.216 329.747 274.799 328.974V328.915V328.856L274.976 328.372C275.545 326.565 275.457 324.616 274.728 322.869C274.404 322.155 274.004 321.478 273.535 320.849Z" fill="#FAFAFA"/>
<path d="M268.576 318.369C268.67 318.479 268.746 318.602 268.801 318.736C268.973 319.093 269.103 319.47 269.19 319.857C269.468 321.153 269.302 322.505 268.718 323.695C268.516 324.119 268.262 324.515 267.962 324.876V324.805C267.916 325.311 267.768 325.802 267.527 326.249C267.285 326.695 266.955 327.088 266.557 327.403C266.329 327.591 266.074 327.742 265.801 327.852C265.71 327.904 265.61 327.936 265.506 327.946C265.838 327.75 266.157 327.533 266.462 327.297C267.184 326.652 267.636 325.758 267.726 324.794C268.004 324.454 268.245 324.085 268.446 323.695C269.003 322.548 269.185 321.255 268.966 319.999C268.872 319.448 268.741 318.904 268.576 318.369Z" fill="#FAFAFA"/>
<path d="M262.164 313.764C261.701 314.151 261.285 314.591 260.924 315.075C260.514 315.667 260.231 316.338 260.093 317.046C259.955 317.753 259.964 318.481 260.121 319.184V319.42V319.539H260.003C259.332 319.702 258.722 320.051 258.241 320.546C257.76 321.041 257.43 321.662 257.287 322.337C257.194 322.904 257.194 323.483 257.287 324.05C257.213 323.91 257.165 323.758 257.145 323.601C257.065 323.172 257.065 322.731 257.145 322.302C257.272 321.581 257.607 320.914 258.108 320.381C258.61 319.848 259.256 319.473 259.967 319.302L259.885 319.456L259.814 319.208C259.651 318.472 259.648 317.709 259.805 316.972C259.962 316.235 260.275 315.539 260.723 314.933C260.995 314.571 261.317 314.249 261.68 313.977C261.829 313.88 261.992 313.808 262.164 313.764Z" fill="#FAFAFA"/>
<path d="M252.256 322.916C252.097 322.799 251.965 322.65 251.866 322.479C251.575 322.031 251.378 321.529 251.288 321.003C251.154 320.197 251.283 319.369 251.654 318.641C252.118 317.752 252.903 317.072 253.85 316.74L253.791 316.929L253.602 316.657C253.04 315.774 252.834 314.711 253.024 313.681C253.179 312.858 253.592 312.105 254.204 311.532C254.614 311.144 255.107 310.853 255.645 310.682C255.838 310.609 256.041 310.565 256.247 310.552C255.531 310.768 254.873 311.144 254.322 311.65C253.756 312.217 253.373 312.941 253.224 313.728C253.059 314.696 253.261 315.69 253.791 316.515C253.843 316.606 253.902 316.693 253.968 316.775L254.063 316.917H253.909C253.019 317.226 252.277 317.858 251.831 318.688C251.465 319.363 251.328 320.138 251.441 320.897C251.538 321.627 251.819 322.322 252.256 322.916Z" fill="#FAFAFA"/>
<path d="M106.227 411.507C108.54 405.471 111.561 399.732 115.225 394.407C116.329 392.513 117.974 390.991 119.949 390.038C123.338 388.751 127.034 390.829 130.034 392.825L137.048 397.442C137.268 397.549 137.465 397.699 137.625 397.884C137.785 398.069 137.907 398.284 137.981 398.517C138.099 399.391 137.025 399.887 136.151 399.993C133.156 400.337 130.138 399.591 127.648 397.891C125.759 396.592 123.917 394.667 121.638 394.903C118.815 395.199 117.552 398.446 116.453 401.115C114.059 406.815 109.838 411.559 104.456 414.601" fill="#8800FF"/>
<path d="M106.215 412.664C106.758 398.623 107.313 384.476 110.667 370.849C114.021 357.221 120.445 343.96 131.002 334.701C129.609 346.51 125.31 357.788 121.059 368.947C115.32 383.905 109.585 398.863 103.853 413.821" fill="#8800FF"/>
<path d="M103.771 417.766C101.782 404.985 98.2123 392.502 93.1425 380.603C92.5664 378.783 91.4349 377.189 89.9068 376.045C87.545 374.604 84.4275 375.549 81.8649 376.694C75.7723 379.421 70.1332 383.065 65.1434 387.499C64.7107 387.807 64.3945 388.253 64.246 388.763C64.2263 389.156 64.3475 389.543 64.5878 389.855C64.828 390.166 65.1716 390.382 65.5568 390.463C66.3433 390.617 67.1561 390.568 67.9186 390.322L81.9476 387.074C83.3363 386.605 84.8337 386.564 86.2461 386.956C87.8875 387.605 88.8086 389.318 89.5998 390.912L103.381 418.687" fill="#8800FF"/>
<g opacity="0.4">
<path d="M106.227 411.507C108.54 405.471 111.561 399.732 115.225 394.407C116.329 392.513 117.974 390.991 119.949 390.038C123.338 388.751 127.034 390.829 130.034 392.825L137.048 397.442C137.268 397.549 137.465 397.699 137.625 397.884C137.785 398.069 137.907 398.284 137.981 398.517C138.099 399.391 137.025 399.887 136.151 399.993C133.156 400.337 130.138 399.591 127.648 397.891C125.759 396.592 123.917 394.667 121.638 394.903C118.815 395.199 117.552 398.446 116.453 401.115C114.059 406.815 109.838 411.559 104.456 414.601" fill="black"/>
</g>
<g opacity="0.4">
<path d="M106.215 412.664C106.758 398.623 107.313 384.476 110.667 370.849C114.021 357.221 120.445 343.96 131.002 334.701C129.609 346.51 125.31 357.788 121.059 368.947C115.32 383.905 109.585 398.863 103.853 413.821" fill="black"/>
</g>
<g opacity="0.3">
<path d="M103.771 417.766C101.782 404.985 98.2123 392.502 93.1425 380.603C92.5664 378.783 91.4349 377.189 89.9068 376.045C87.545 374.604 84.4275 375.549 81.8649 376.694C75.7723 379.421 70.1332 383.065 65.1434 387.499C64.7107 387.807 64.3945 388.253 64.246 388.763C64.2263 389.156 64.3475 389.543 64.5878 389.855C64.828 390.166 65.1716 390.382 65.5568 390.463C66.3433 390.617 67.1561 390.568 67.9186 390.322L81.9476 387.074C83.3363 386.605 84.8337 386.564 86.2461 386.956C87.8875 387.605 88.8086 389.318 89.5998 390.912L103.381 418.687" fill="black"/>
</g>
<path d="M125.086 311.957C113.369 325.866 106.507 343.217 105.542 361.378C104.219 391.254 102.46 412.782 102.46 412.782H105.754C105.754 412.782 112.344 352.556 116.737 342.047C121.13 331.537 127.943 316.586 125.086 311.957Z" fill="#8800FF"/>
<path d="M125.086 311.957C124.981 312.289 124.842 312.61 124.672 312.914L123.409 315.606C122.322 317.968 120.811 321.369 119.134 325.667C117.457 329.966 115.591 335.115 113.867 341.019C111.93 347.336 110.395 353.769 109.273 360.28C108.683 363.74 108.411 367.164 108.163 370.482C107.915 373.801 107.715 377.001 107.538 380.048C107.183 386.153 106.805 391.656 106.298 396.25C105.79 400.843 105.199 404.516 104.68 407.09C104.444 408.366 104.196 409.334 104.042 410.007C103.985 410.346 103.894 410.678 103.771 410.999C103.795 410.653 103.846 410.31 103.924 409.972C104.042 409.31 104.243 408.33 104.455 407.043C104.892 404.504 105.436 400.808 105.873 396.202C106.309 391.597 106.64 386.118 106.971 380.012C107.136 376.966 107.313 373.754 107.561 370.435C107.759 366.998 108.13 363.573 108.671 360.173C109.79 353.625 111.344 347.159 113.324 340.818C115.107 334.914 116.997 329.777 118.732 325.467C120.468 321.156 122.039 317.767 123.196 315.453C123.763 314.272 124.247 313.41 124.566 312.808C124.722 312.514 124.896 312.23 125.086 311.957Z" fill="#263238"/>
<path d="M137.331 339.933C137.331 339.933 115.083 361.189 112.533 381.264C109.982 401.339 108.836 411.979 108.836 411.979H111.033C111.033 411.979 116.252 383.425 123.007 374.45C129.762 365.475 138.878 342.342 137.331 339.933Z" fill="#8800FF"/>
<path d="M137.072 341.314C136.983 341.548 136.872 341.774 136.741 341.987L135.702 343.865L131.829 350.726C128.57 356.512 124.058 364.542 120.02 373.812C116.469 381.71 113.799 389.975 112.061 398.458C111.423 401.717 111.057 404.362 110.88 406.228C110.762 407.149 110.714 407.869 110.644 408.354C110.63 408.604 110.594 408.853 110.537 409.098C110.509 408.847 110.509 408.593 110.537 408.342C110.537 407.858 110.537 407.161 110.644 406.204C110.843 403.579 111.182 400.965 111.659 398.375C113.28 389.83 115.904 381.506 119.477 373.576C123.052 365.667 127.073 357.967 131.522 350.513C133.199 347.644 134.592 345.341 135.572 343.759L136.753 341.94C136.837 341.721 136.943 341.511 137.072 341.314Z" fill="#263238"/>
<path d="M94.3351 343.664C94.3351 343.664 91.0404 385.622 98.7281 410.657H101.361C101.361 410.657 103.121 356.406 94.3351 343.664Z" fill="#8800FF"/>
<path d="M96.1535 351.6C96.2199 351.79 96.2558 351.989 96.2598 352.19L96.4369 353.891C96.5786 355.461 96.7676 357.575 96.9919 360.15C97.417 365.44 97.9839 372.75 98.5625 380.815C99.1412 388.881 99.6253 396.167 99.9442 401.505C100.098 404.091 100.216 406.228 100.298 407.787C100.298 408.46 100.298 408.968 100.298 409.487C100.327 409.687 100.327 409.89 100.298 410.09C100.234 409.899 100.198 409.7 100.192 409.499L100.015 407.799C99.8733 406.228 99.6962 404.114 99.4718 401.54C99.0349 396.25 98.4798 388.94 97.9012 380.863C97.3226 372.785 96.8266 365.511 96.5078 360.173C96.366 357.599 96.248 355.45 96.1535 353.903C96.1535 353.218 96.1535 352.651 96.1535 352.19C96.1328 351.994 96.1328 351.796 96.1535 351.6Z" fill="#263238"/>
<path d="M89.1036 408.224C89.1036 408.224 97.1692 414.022 96.7558 416.715C96.3425 419.407 76.9522 433.885 78.1331 445.304C79.314 456.723 88.6903 464.553 104.621 463.927C120.551 463.301 131.321 453.37 129.868 443.237C128.416 433.105 112.603 416.962 112.379 416.171C111.859 413.939 119.464 408.224 119.464 408.224H89.1036Z" fill="#263238"/>
<path d="M118.107 422.938C118.107 423.103 112.202 423.245 104.987 423.245C97.7717 423.245 91.8672 423.103 91.8672 422.938C91.8672 422.772 97.7717 422.631 104.987 422.631C112.202 422.631 118.107 422.761 118.107 422.938Z" fill="#FAFAFA"/>
<path d="M119.961 425.689C119.961 425.855 113.041 425.996 104.503 425.996C95.9648 425.996 89.033 425.855 89.033 425.689C89.033 425.524 95.9648 425.382 104.503 425.382C113.041 425.382 119.961 425.524 119.961 425.689Z" fill="#FAFAFA"/>
<path d="M122.748 428.771C122.748 428.937 114.576 429.078 104.479 429.078C94.3825 429.078 86.2107 428.937 86.2107 428.771C86.2107 428.606 94.3943 428.464 104.479 428.464C114.564 428.464 122.748 428.571 122.748 428.771Z" fill="#FAFAFA"/>
<path d="M125.216 432.798C125.216 432.964 115.768 433.105 104.16 433.105C92.552 433.105 83.093 432.964 83.093 432.798C83.093 432.633 92.5402 432.491 104.16 432.491C115.78 432.491 125.216 432.621 125.216 432.798Z" fill="#FAFAFA"/>
</svg>
