<svg width="54" height="54" viewBox="0 0 54 54" fill="none" xmlns="http://www.w3.org/2000/svg">
<rect width="54" height="54" rx="8" fill="#8800FF"/>
<path fill-rule="evenodd" clip-rule="evenodd" d="M15.5609 13.0933C14.2378 13.4067 13.0836 14.3252 12.4741 15.5498C11.9749 16.5528 12.0002 15.9686 12.0002 26.4944C12.0002 37.0202 11.9749 36.4361 12.4741 37.439C12.9443 38.3836 13.7249 39.1403 14.6894 39.5863C15.6217 40.0173 15.5708 40.0146 22.3412 39.9922C28.4769 39.972 28.4928 39.9716 28.9113 39.8172C30.4341 39.2555 31.4016 38.3169 31.9596 36.8601C32.1029 36.4863 32.1176 36.287 32.144 34.3774C32.1757 32.0717 32.1557 31.9241 31.7522 31.4914C31.0166 30.7026 29.7388 30.8792 29.2364 31.8391L29.0367 32.2207L29.0351 34.0204C29.0337 35.6089 29.0179 35.8534 28.9012 36.1024C28.7359 36.4549 28.3249 36.8105 27.9663 36.9114C27.7755 36.9651 25.9551 36.9821 21.9533 36.9674C16.2949 36.9466 16.2098 36.9443 15.9233 36.7993C15.7635 36.7184 15.5346 36.5178 15.4148 36.3534L15.1968 36.0544V26.4944V16.9344L15.4148 16.6355C15.5346 16.4711 15.7635 16.2704 15.9233 16.1895C16.2098 16.0446 16.2949 16.0422 21.9533 16.0215C25.9551 16.0068 27.7755 16.0237 27.9663 16.0774C28.3249 16.1784 28.7359 16.534 28.9012 16.8865C29.0179 17.1355 29.0337 17.3799 29.0351 18.9684L29.0367 20.7681L29.2364 21.1498C29.7388 22.1097 31.0166 22.2863 31.7522 21.4975C32.1557 21.0647 32.1757 20.9172 32.144 18.6115C32.1176 16.7019 32.1029 16.5025 31.9596 16.1287C31.4094 14.6924 30.464 13.7516 29.0351 13.2187L28.4918 13.016L22.2439 13.0032C16.973 12.9923 15.928 13.0064 15.5609 13.0933ZM36.5196 20.5111C36.0075 20.6037 35.6403 20.8905 35.359 21.4178C35.2276 21.6642 35.2481 22.35 35.3953 22.6308C35.4642 22.7622 35.9973 23.3368 36.5799 23.9078L37.6394 24.946L28.7066 24.9477C22.863 24.9488 19.6607 24.9744 19.4468 25.0217C18.97 25.1271 18.6083 25.3992 18.3958 25.8123C17.9328 26.7125 18.4358 27.7437 19.4468 27.9671C19.6607 28.0144 22.863 28.04 28.7066 28.0412L37.6394 28.0429L36.5799 29.081C35.9973 29.652 35.4642 30.2266 35.3953 30.358C35.2481 30.6388 35.2276 31.3247 35.359 31.5711C35.5483 31.9258 35.8135 32.2027 36.0993 32.3439C36.4962 32.5401 37.1219 32.5421 37.5072 32.3484C37.859 32.1716 42.7033 27.4678 42.8759 27.1353C42.9497 26.9934 43 26.7334 43 26.4944C43 26.2555 42.9497 25.9955 42.8759 25.8535C42.7115 25.537 37.8632 20.8187 37.5367 20.6575C37.2245 20.5033 36.8561 20.4503 36.5196 20.5111Z" fill="#F7F4FF"/>
</svg>
