<svg width="21" height="21" viewBox="0 0 21 21" fill="none" xmlns="http://www.w3.org/2000/svg">
<path fill-rule="evenodd" clip-rule="evenodd" d="M11.8032 0.0116025C10.3354 0.168457 9.1101 0.570796 7.99511 1.26209C6.67786 2.07876 5.5241 3.35125 4.83447 4.748C3.62609 7.19541 3.69722 10.1028 5.02403 12.4969C5.13688 12.7005 5.21204 12.8884 5.21204 12.9668C5.21204 13.0847 4.98338 13.3269 2.87716 15.4396C1.40641 16.9149 0.49001 17.8652 0.401019 18.0074C-0.0300963 18.6964 -0.116295 19.3768 0.155442 19.9459C0.317572 20.2856 0.757476 20.7174 1.09184 20.8653C1.65001 21.112 2.32617 21.0177 2.99445 20.5998C3.13674 20.5109 4.08739 19.5948 5.56328 18.1246C7.67676 16.0192 7.91901 15.7907 8.03696 15.7907C8.11543 15.7907 8.30335 15.8658 8.50704 15.9786C10.9021 17.3049 13.8106 17.376 16.2589 16.1681C18.2001 15.2104 19.7456 13.5008 20.4811 11.4975C20.8558 10.4769 20.9976 9.66424 21 8.52467C21.0017 7.67985 20.9597 7.28223 20.792 6.55423C20.0185 3.19587 17.2474 0.62839 13.8139 0.0887369C13.4143 0.0259292 12.1303 -0.0233318 11.8032 0.0116025ZM11.9985 2.24563C11.1482 2.31541 10.2506 2.57785 9.52438 2.96906C8.39148 3.57933 7.42088 4.58314 6.8517 5.73322C6.12868 7.19413 6.01045 8.97446 6.53405 10.5156C7.16976 12.3866 8.61735 13.8337 10.4891 14.4692C12.0308 14.9925 13.8118 14.8744 15.2733 14.1516C16.1441 13.721 17.1036 12.9066 17.6226 12.1577C19.3931 9.60287 19.1086 6.23753 16.9387 4.06845C15.6315 2.76176 13.8263 2.09567 11.9985 2.24563ZM12.1112 3.45334C10.296 3.72009 8.74987 4.82706 7.94349 6.43728C7.74752 6.82853 7.71709 6.92115 7.71709 7.12582C7.71709 7.42705 7.83844 7.66593 8.08057 7.84126C8.24442 7.95989 8.28524 7.97049 8.57948 7.97049C8.87352 7.97049 8.91467 7.95985 9.07852 7.8415C9.21203 7.74503 9.30911 7.6156 9.4634 7.32837C9.73259 6.82722 9.89221 6.59935 10.175 6.31244C10.7062 5.77365 11.3594 5.41154 12.0701 5.26196C12.7817 5.1122 13.3894 5.14886 14.1225 5.38576C14.6094 5.54311 14.7909 5.55904 15.018 5.46421C15.6067 5.2184 15.749 4.43277 15.284 3.9964C15.1242 3.84648 14.5294 3.6244 13.9936 3.51463C13.4485 3.40289 12.6348 3.37641 12.1112 3.45334Z" fill="#AFA7CA"/>
</svg>
