<svg width="39" height="39" viewBox="0 0 39 39" fill="none" xmlns="http://www.w3.org/2000/svg">
<rect width="39" height="39" rx="4" fill="#F7F4FF"/>
<path fill-rule="evenodd" clip-rule="evenodd" d="M7.53275 7.11402C7.41427 7.17673 7.25158 7.32169 7.17117 7.43621L7.02495 7.64436L7.01248 19.4596L7 31.2748L7.11371 31.4908C7.17624 31.6096 7.32079 31.7727 7.43498 31.8534L7.64256 32H19.4774H31.3123L31.5193 31.8534C31.6349 31.7715 31.786 31.5988 31.8615 31.4624L31.9966 31.218L31.9998 19.4433C32.0016 12.9672 31.9896 7.682 31.9732 7.69847C31.9568 7.71489 31.8948 7.6361 31.8354 7.5233C31.7761 7.41055 31.6341 7.25229 31.5199 7.17165L31.3123 7.02502L19.5302 7.01251L7.74808 7L7.53275 7.11402ZM7.02456 19.5125C7.02456 26.0043 7.03022 28.66 7.03714 25.4141C7.04406 22.1683 7.04406 16.8568 7.03714 13.6109C7.03022 10.365 7.02456 13.0207 7.02456 19.5125ZM8.95009 19.5125V30.0694H19.4774H30.0048V19.5125V8.95557H19.4774H8.95009V19.5125ZM15.3835 10.6701C15.228 10.7407 14.849 11.0844 14.0809 11.8516L12.9977 12.9336L12.6119 12.5572C12.3998 12.3502 12.1477 12.1479 12.0518 12.1077C11.2956 11.7909 10.4978 12.5467 10.7549 13.3364C10.8341 13.5797 12.2819 15.0663 12.5812 15.2116C12.8321 15.3334 13.1551 15.335 13.4096 15.2158C13.5374 15.1559 14.1274 14.5963 15.1219 13.5918C16.7712 11.9259 16.7868 11.905 16.7312 11.4339C16.6922 11.1039 16.5075 10.8474 16.197 10.6922C15.8987 10.5432 15.6764 10.5372 15.3835 10.6701ZM19.0632 12.0669C18.6722 12.2732 18.4686 12.643 18.5176 13.0579C18.5647 13.4569 18.8432 13.7796 19.2384 13.8932C19.4613 13.9574 27.2916 13.9574 27.5145 13.8932C28.3819 13.6438 28.5064 12.4889 27.7099 12.0814C27.5287 11.9887 27.3979 11.9859 23.3662 11.9878C19.6758 11.9895 19.193 11.9984 19.0632 12.0669ZM15.5118 17.1894C15.2956 17.2465 15.1748 17.3521 14.1462 18.3829L13.0178 19.5137L12.7263 19.2172C12.3636 18.8482 12.071 18.6499 11.8286 18.6088C11.2774 18.5155 10.7068 19.0124 10.7068 19.5858C10.7068 19.9355 10.8503 20.1356 11.7099 20.9847C12.459 21.7246 12.5529 21.8014 12.7638 21.8463C12.9167 21.8788 13.0739 21.8793 13.2268 21.8476C13.4458 21.8024 13.5424 21.7161 15.011 20.2529C16.0293 19.2386 16.5951 18.6388 16.6548 18.5106C16.9986 17.7732 16.3107 16.978 15.5118 17.1894ZM19.0343 18.6487C18.9161 18.7113 18.7537 18.8561 18.6733 18.9706C18.5453 19.1527 18.5271 19.2206 18.5271 19.5125C18.5271 19.8044 18.5453 19.8723 18.6733 20.0544C18.7537 20.1689 18.9161 20.3138 19.0343 20.3763L19.2491 20.49H23.3765H27.5038L27.7187 20.3763C27.8368 20.3138 27.9992 20.1689 28.0797 20.0544C28.2076 19.8723 28.2259 19.8044 28.2259 19.5125C28.2259 19.2206 28.2076 19.1527 28.0797 18.9706C27.9992 18.8561 27.8368 18.7113 27.7187 18.6487L27.5038 18.535H23.3765H19.2491L19.0343 18.6487ZM15.3835 23.7929C15.2826 23.8362 14.7602 24.3192 14.1045 24.9754L12.9961 26.0846L12.618 25.7116C12.172 25.2717 12.0131 25.182 11.6799 25.182C10.887 25.182 10.4383 26.0522 10.8922 26.7094C10.9712 26.8236 11.3428 27.2195 11.7181 27.5892C12.6094 28.4672 12.8716 28.5877 13.3852 28.3551C13.6709 28.2258 16.5077 25.4038 16.652 25.1054C16.8266 24.7446 16.7359 24.2388 16.4493 23.9747C16.1796 23.726 15.7211 23.6478 15.3835 23.7929ZM19.2166 25.1344C18.3695 25.389 18.2588 26.5424 19.043 26.9436C19.2242 27.0363 19.357 27.0392 23.3765 27.0392C27.3959 27.0392 27.5288 27.0363 27.7099 26.9436C28.5064 26.5361 28.3819 25.3812 27.5145 25.1318C27.3082 25.0724 19.4145 25.0749 19.2166 25.1344Z" fill="#11002C"/>
</svg>
