<svg width="35" height="35" viewBox="0 0 35 35" fill="none" xmlns="http://www.w3.org/2000/svg">
<path fill-rule="evenodd" clip-rule="evenodd" d="M0.745853 0.159635C0.579979 0.247423 0.352218 0.450371 0.239634 0.610689L0.0349352 0.90211L0.0174676 17.4434L0 33.9848L0.159187 34.2871C0.24673 34.4534 0.449109 34.6818 0.608978 34.7947L0.899582 35H17.4684H34.0373L34.3271 34.7947C34.4888 34.6801 34.7004 34.4384 34.806 34.2473L34.9952 33.9052L34.9998 17.4206C35.0022 8.35403 34.9855 0.954797 34.9625 0.977856C34.9395 1.00085 34.8527 0.890546 34.7696 0.732622C34.6865 0.574767 34.4877 0.353208 34.3279 0.240307L34.0373 0.0350334L17.5423 0.0175167L1.04731 0L0.745853 0.159635ZM0.0343894 17.5175C0.0343894 26.606 0.0423044 30.3241 0.0519934 25.7798C0.0616825 21.2356 0.0616825 13.7995 0.0519934 9.25525C0.0423044 4.71103 0.0343894 8.42902 0.0343894 17.5175ZM2.73013 17.5175V32.2972H17.4684H32.2067V17.5175V2.7378H17.4684H2.73013V17.5175ZM11.7369 5.13814C11.5191 5.23694 10.9886 5.71817 9.91328 6.7923L8.39673 8.30709L7.85667 7.78008C7.55965 7.49023 7.20682 7.20709 7.07254 7.15085C6.01391 6.70725 4.89687 7.76544 5.25679 8.8709C5.36774 9.21159 7.39467 11.2929 7.81361 11.4962C8.16495 11.6668 8.61719 11.6691 8.97344 11.5021C9.15234 11.4182 9.97837 10.6348 11.3707 9.22849C13.6797 6.89631 13.7015 6.86702 13.6236 6.20748C13.5691 5.74541 13.3105 5.38638 12.8757 5.16914C12.4582 4.96051 12.147 4.95202 11.7369 5.13814ZM16.8884 7.09365C16.3411 7.38253 16.0561 7.90023 16.1246 8.48109C16.1906 9.03964 16.5804 9.49145 17.1337 9.65053C17.4458 9.74031 28.4083 9.74031 28.7204 9.65053C29.9346 9.30136 30.109 7.68442 28.9939 7.11397C28.7401 6.98417 28.557 6.9802 22.9127 6.98287C17.7461 6.98533 17.0701 6.99771 16.8884 7.09365ZM11.9165 14.2651C11.6138 14.3451 11.4447 14.4929 10.0046 15.936L8.42491 17.5192L8.01681 17.104C7.50902 16.5875 7.09935 16.3099 6.76003 16.2523C5.98832 16.1217 5.18952 16.8173 5.18952 17.6202C5.18952 18.1097 5.39039 18.3899 6.59382 19.5785C7.64262 20.6145 7.77411 20.722 8.06935 20.7848C8.2834 20.8303 8.50352 20.831 8.71756 20.7867C9.02413 20.7233 9.1593 20.6025 11.2154 18.5541C12.641 17.134 13.4331 16.2943 13.5168 16.1148C13.998 15.0824 13.0349 13.9692 11.9165 14.2651ZM16.848 16.3082C16.6826 16.3958 16.4552 16.5986 16.3426 16.7589C16.1635 17.0138 16.1379 17.1088 16.1379 17.5175C16.1379 17.9262 16.1635 18.0212 16.3426 18.2761C16.4552 18.4365 16.6826 18.6393 16.848 18.7268L17.1488 18.886H22.9271H28.7053L29.0061 18.7268C29.1715 18.6393 29.3989 18.4365 29.5115 18.2761C29.6906 18.0212 29.7162 17.9262 29.7162 17.5175C29.7162 17.1088 29.6906 17.0138 29.5115 16.7589C29.3989 16.5986 29.1715 16.3958 29.0061 16.3082L28.7053 16.149H22.9271H17.1488L16.848 16.3082ZM11.7369 23.51C11.5956 23.5707 10.8642 24.2469 9.9463 25.1655L8.39448 26.7184L7.8652 26.1963C7.24073 25.5803 7.01836 25.4548 6.55185 25.4548C5.44177 25.4548 4.81355 26.6731 5.44914 27.5932C5.55961 27.753 6.07989 28.3073 6.60528 28.8249C7.85312 30.0541 8.22028 30.2227 8.93932 29.8972C9.33923 29.7162 13.3108 25.7653 13.5128 25.3476C13.7572 24.8424 13.6302 24.1344 13.229 23.7645C12.8514 23.4164 12.2096 23.3069 11.7369 23.51ZM17.1032 25.3882C15.9173 25.7446 15.7623 27.3594 16.8602 27.9211C17.1138 28.0508 17.2998 28.0549 22.9271 28.0549C28.5543 28.0549 28.7403 28.0508 28.9939 27.9211C30.109 27.3506 29.9346 25.7337 28.7204 25.3845C28.4315 25.3014 17.3803 25.3049 17.1032 25.3882Z" fill="#8800FF"/>
</svg>
