<svg width="29" height="29" viewBox="0 0 29 29" fill="none" xmlns="http://www.w3.org/2000/svg">
<path fill-rule="evenodd" clip-rule="evenodd" d="M16.2997 0.0160224C14.2727 0.232632 12.5806 0.788242 11.0409 1.74289C9.22181 2.87066 7.62852 4.62791 6.67617 6.55676C5.00746 9.93651 5.10568 13.9515 6.93795 17.2576C7.09379 17.5388 7.19757 17.7982 7.19757 17.9066C7.19757 18.0694 6.88181 18.4038 3.97322 21.3213C1.94218 23.3586 0.676681 24.6709 0.553789 24.8674C-0.0415615 25.8188 -0.160597 26.7585 0.214658 27.5443C0.438552 28.0134 1.04604 28.6098 1.50778 28.8139C2.27859 29.1547 3.21233 29.0244 4.13519 28.4474C4.33169 28.3246 5.64449 27.0595 7.68262 25.0293C10.6012 22.1218 10.9358 21.8061 11.0987 21.8061C11.207 21.8061 11.4665 21.9099 11.7478 22.0657C15.0553 23.8972 19.0717 23.9954 22.4528 22.3273C25.1335 21.0048 27.2677 18.6439 28.2834 15.8775C28.8008 14.4681 28.9967 13.3459 28.9999 11.7722C29.0023 10.6055 28.9444 10.0564 28.7128 9.05108C27.6446 4.41334 23.8179 0.867777 19.0764 0.122541C18.5245 0.035807 16.7513 -0.03222 16.2997 0.0160224ZM16.5693 3.1011C15.3951 3.19747 14.1556 3.55989 13.1527 4.10014C11.5882 4.94288 10.2479 6.3291 9.46187 7.9173C8.46342 9.93476 8.30015 12.3933 9.02321 14.5216C9.90109 17.1054 11.9001 19.1037 14.4849 19.9812C16.614 20.704 19.0735 20.5408 21.0917 19.5427C22.2943 18.948 23.6193 17.8235 24.336 16.7892C26.781 13.2611 26.3881 8.61373 23.3916 5.61833C21.5864 3.81386 19.0934 2.89402 16.5693 3.1011ZM16.725 4.7689C14.2183 5.13726 12.0832 6.66594 10.9696 8.88958C10.699 9.42988 10.6569 9.55777 10.6569 9.84042C10.6569 10.2564 10.8245 10.5863 11.1589 10.8284C11.3852 10.9922 11.4415 11.0069 11.8479 11.0069C12.2539 11.0069 12.3107 10.9922 12.537 10.8287C12.7214 10.6955 12.8554 10.5168 13.0685 10.1201C13.4402 9.42807 13.6607 9.11339 14.0512 8.71719C14.7847 7.97314 15.6868 7.47308 16.6683 7.26651C17.6509 7.05971 18.4901 7.11033 19.5025 7.43748C20.1749 7.65477 20.4255 7.67677 20.7391 7.54582C21.552 7.20636 21.7487 6.12145 21.1065 5.51884C20.8858 5.31181 20.0645 5.00512 19.3246 4.85354C18.5717 4.69923 17.448 4.66266 16.725 4.7689Z" fill="#8800FF"/>
</svg>
