<svg width="36" height="37" viewBox="0 0 36 37" fill="none" xmlns="http://www.w3.org/2000/svg">
<path d="M0.697266 29.9414V8.05972C0.697266 6.71793 1.20303 5.43052 2.10346 4.48173C3.00388 3.53294 4.22566 3 5.49905 3H8.95955L9.09672 3.00772C9.77251 3.08007 10.2998 3.68104 10.2998 4.41222C10.2998 5.1434 9.77251 5.74437 9.09672 5.81671L8.95955 5.82444H5.49905C4.93656 5.82444 4.39636 6.05959 3.99862 6.47869C3.60088 6.8978 3.37772 7.46701 3.37772 8.05972V29.9414L3.38819 30.162C3.43636 30.6736 3.65072 31.1546 3.99862 31.5213C4.39636 31.9404 4.93656 32.1756 5.49905 32.1756H15.357L15.4942 32.1833C16.17 32.2554 16.697 32.8567 16.6973 33.5878C16.6973 34.3191 16.1702 34.9212 15.4942 34.9934L15.357 35H5.49905C4.22566 35 3.00388 34.4671 2.10346 33.5183C1.25939 32.6287 0.762347 31.4423 0.703548 30.1918L0.697266 29.9414Z" fill="#8800FF"/>
<path d="M25.6973 21.3957C25.6973 20.6249 26.3221 20 27.093 20C27.8638 20 28.4887 20.6249 28.4887 21.3957V27.2086H34.3016L34.4444 27.2162C35.1481 27.2877 35.6972 27.8817 35.6973 28.6043C35.6973 29.327 35.1482 29.922 34.4444 29.9935L34.3016 30H27.093C26.3221 30 25.6973 29.3751 25.6973 28.6043V21.3957Z" fill="#8800FF"/>
<path d="M25.185 15.5638V8.14579C25.185 7.543 24.9758 6.9641 24.6031 6.53787C24.2769 6.16502 23.849 5.93542 23.394 5.88371L23.1978 5.87249H19.9534C19.2597 5.87249 18.6973 5.22946 18.6973 4.43624C18.6973 3.64303 19.2597 3 19.9534 3H23.1978L23.4205 3.00673C24.5327 3.06984 25.5882 3.60237 26.3793 4.50693C27.2232 5.47186 27.6973 6.78117 27.6973 8.14579V15.5638C27.6971 16.3568 27.1348 17 26.4411 17C25.7475 16.9999 25.1852 16.3568 25.185 15.5638Z" fill="#8800FF"/>
<path d="M18.03 5.00055C18.03 4.41477 17.8068 3.85222 17.4111 3.43801C17.0647 3.07572 16.6105 2.85243 16.1274 2.80231L15.919 2.79141H12.4755C11.9158 2.79141 11.3782 3.02381 10.9824 3.43801C10.5866 3.85221 10.3646 4.41477 10.3646 5.00055C10.3647 5.58611 10.5868 6.1479 10.9824 6.56199C11.3782 6.97619 11.9158 7.20859 12.4755 7.20859H15.919L16.1274 7.19769C16.6105 7.14756 17.0647 6.92431 17.4111 6.56199C17.8067 6.1479 18.0298 5.58614 18.03 5.00055ZM20.6973 5.00055C20.6971 6.32636 20.1937 7.59804 19.298 8.5356C18.4581 9.41455 17.3373 9.93202 16.1566 9.99346L15.919 10H12.4755C11.2084 10 9.99257 9.4733 9.09656 8.5356C8.2007 7.59803 7.69739 6.32644 7.69727 5.00055C7.69727 3.67445 8.20055 2.40209 9.09656 1.4644C9.99257 0.526705 11.2084 0 12.4755 0H15.919L16.1566 0.00654236C17.3373 0.0679803 18.4581 0.585444 19.298 1.4644C20.1939 2.40208 20.6973 3.67453 20.6973 5.00055Z" fill="#8800FF"/>
<path d="M32.9397 28.5C32.9397 26.977 32.3351 25.516 31.2582 24.439C30.2485 23.4294 28.9011 22.8354 27.4816 22.7651L27.1973 22.7576C25.6743 22.7576 24.2132 23.3621 23.1363 24.439C22.0594 25.516 21.4549 26.977 21.4548 28.5L21.4624 28.7844C21.5327 30.2038 22.1266 31.5512 23.1363 32.561C24.2132 33.6379 25.6743 34.2424 27.1973 34.2424C28.7203 34.2424 30.1813 33.6379 31.2582 32.561C32.3352 31.484 32.9397 30.023 32.9397 28.5ZM35.6973 28.5C35.6973 30.7544 34.802 32.9166 33.2079 34.5106C31.6138 36.1047 29.4516 37 27.1973 37C24.9429 37 22.7807 36.1047 21.1866 34.5106C19.6921 33.0161 18.8122 31.0222 18.708 28.9212L18.6973 28.5C18.6973 26.2457 19.5926 24.0834 21.1866 22.4894C22.7807 20.8953 24.9429 20 27.1973 20L27.6184 20.0108C29.7195 20.1149 31.7134 20.9949 33.2079 22.4894C34.802 24.0834 35.6972 26.2457 35.6973 28.5Z" fill="#8800FF"/>
<path d="M14.3352 21L14.4746 21.0082C15.1615 21.0849 15.6973 21.7233 15.6973 22.5C15.6973 23.2767 15.1615 23.9151 14.4746 23.9918L14.3352 24H9.05933C8.30708 24 7.69727 23.3284 7.69727 22.5C7.69727 21.6716 8.30708 21 9.05933 21H14.3352Z" fill="#8800FF"/>
<path d="M14.3352 14.9167L14.4746 14.925C15.1615 15.0017 15.6973 15.64 15.6973 16.4167C15.6973 17.1935 15.1615 17.8318 14.4746 17.9085L14.3352 17.9167H9.05933C8.30708 17.9167 7.69727 17.2452 7.69727 16.4167C7.69727 15.5883 8.30708 14.9167 9.05933 14.9167H14.3352Z" fill="#8800FF"/>
<path d="M19.6379 14.9167L19.7773 14.925C20.4643 15.0017 21 15.64 21 16.4167C21 17.1935 20.4643 17.8318 19.7773 17.9085L19.6379 17.9167H14.3621C13.6098 17.9167 13 17.2452 13 16.4167C13 15.5883 13.6098 14.9167 14.3621 14.9167H19.6379Z" fill="#8800FF"/>
</svg>
