<svg width="788" height="588" viewBox="0 0 788 588" fill="none" xmlns="http://www.w3.org/2000/svg">
<path d="M788 516.662H0V517.056H788V516.662Z" fill="#EBEBEB"/>
<path d="M709.042 542.02H656.845V542.414H709.042V542.02Z" fill="#EBEBEB"/>
<path d="M465.267 529.838H422.147V530.232H465.267V529.838Z" fill="#EBEBEB"/>
<path d="M655.269 527.395H625.026V527.789H655.269V527.395Z" fill="#EBEBEB"/>
<path d="M109.705 530.043H82.6768V530.437H109.705V530.043Z" fill="#EBEBEB"/>
<path d="M174.763 530.043H123.732V530.437H174.763V530.043Z" fill="#EBEBEB"/>
<path d="M354.836 536.693H259.693V537.087H354.836V536.693Z" fill="#EBEBEB"/>
<path d="M373.512 446.373H69.202C66.818 446.369 64.5331 445.419 62.8489 443.732C61.1647 442.044 60.2187 439.758 60.2188 437.374V9.60021C60.2395 7.22995 61.1946 4.96359 62.8766 3.29341C64.5586 1.62322 66.8316 0.684114 69.202 0.680054H373.512C375.898 0.680054 378.187 1.62816 379.875 3.31579C381.563 5.00342 382.511 7.29234 382.511 9.67901V437.374C382.511 439.761 381.563 442.049 379.875 443.737C378.187 445.425 375.898 446.373 373.512 446.373ZM69.202 0.995255C66.9225 0.99943 64.7378 1.90786 63.1275 3.52115C61.5172 5.13444 60.6127 7.32076 60.6127 9.60021V437.374C60.6127 439.653 61.5172 441.84 63.1275 443.453C64.7378 445.066 66.9225 445.975 69.202 445.979H373.512C375.793 445.975 377.979 445.067 379.592 443.454C381.205 441.841 382.113 439.655 382.117 437.374V9.60021C382.113 7.31932 381.205 5.13303 379.592 3.52019C377.979 1.90735 375.793 0.999421 373.512 0.995255H69.202Z" fill="#EBEBEB"/>
<path d="M714.416 446.373H410.091C407.705 446.369 405.419 445.419 403.732 443.732C402.045 442.046 401.096 439.759 401.092 437.374V9.60021C401.117 7.22851 402.075 4.96217 403.76 3.29242C405.444 1.62267 407.719 0.68407 410.091 0.680054H714.416C716.784 0.688256 719.053 1.6292 720.732 3.29894C722.41 4.96868 723.363 7.23267 723.384 9.60021V437.374C723.384 439.755 722.44 442.039 720.759 443.726C719.078 445.413 716.798 446.364 714.416 446.373ZM410.091 0.995255C407.81 0.999421 405.624 1.90735 404.011 3.52019C402.398 5.13303 401.49 7.31932 401.486 9.60021V437.374C401.49 439.655 402.398 441.841 404.011 443.454C405.624 445.067 407.81 445.975 410.091 445.979H714.416C716.697 445.975 718.884 445.067 720.496 443.454C722.109 441.841 723.017 439.655 723.021 437.374V9.60021C723.017 7.31932 722.109 5.13303 720.496 3.52019C718.884 1.90735 716.697 0.999421 714.416 0.995255H410.091Z" fill="#EBEBEB"/>
<path d="M128.129 289.12H101.416V509.476H128.129V289.12Z" fill="#F0F0F0"/>
<path d="M361.676 509.476H105.119V516.662H361.676V509.476Z" fill="#F0F0F0"/>
<path d="M128.129 509.46L365.38 509.46V289.104H128.129L128.129 509.46Z" fill="#FAFAFA"/>
<path d="M157.884 417.012H335.641C340.132 417.012 343.773 413.371 343.773 408.88V375.469C343.773 370.977 340.132 367.336 335.641 367.336H157.884C153.392 367.336 149.752 370.977 149.752 375.469V408.88C149.752 413.371 153.392 417.012 157.884 417.012Z" fill="#F0F0F0"/>
<path d="M157.884 480.95H335.641C340.132 480.95 343.773 477.309 343.773 472.818V439.407C343.773 434.916 340.132 431.275 335.641 431.275H157.884C153.392 431.275 149.752 434.916 149.752 439.407V472.818C149.752 477.309 153.392 480.95 157.884 480.95Z" fill="#F0F0F0"/>
<path d="M281.127 374.476H212.397C210.975 374.472 209.612 373.904 208.608 372.896C207.603 371.889 207.039 370.524 207.039 369.102C207.043 367.682 207.609 366.321 208.613 365.317C209.617 364.313 210.978 363.747 212.397 363.743H281.127C282.547 363.747 283.907 364.313 284.911 365.317C285.915 366.321 286.481 367.682 286.485 369.102C286.485 370.524 285.921 371.889 284.917 372.896C283.912 373.904 282.549 374.472 281.127 374.476Z" fill="#FAFAFA"/>
<path d="M157.884 353.074H335.641C340.132 353.074 343.773 349.433 343.773 344.942V311.53C343.773 307.039 340.132 303.398 335.641 303.398H157.884C153.392 303.398 149.752 307.039 149.752 311.53V344.942C149.752 349.433 153.392 353.074 157.884 353.074Z" fill="#F0F0F0"/>
<path d="M281.127 310.537H212.397C210.978 310.533 209.617 309.967 208.613 308.963C207.609 307.959 207.043 306.599 207.039 305.179C207.043 303.759 207.609 302.399 208.613 301.395C209.617 300.391 210.978 299.825 212.397 299.821H281.127C282.547 299.825 283.907 300.391 284.911 301.395C285.915 302.399 286.481 303.759 286.485 305.179C286.481 306.599 285.915 307.959 284.911 308.963C283.907 309.967 282.547 310.533 281.127 310.537Z" fill="#FAFAFA"/>
<path d="M281.127 438.398H212.397C210.978 438.394 209.617 437.828 208.613 436.824C207.609 435.82 207.043 434.46 207.039 433.04C207.043 431.62 207.609 430.259 208.613 429.255C209.617 428.251 210.978 427.686 212.397 427.681H281.127C282.547 427.686 283.907 428.251 284.911 429.255C285.915 430.259 286.481 431.62 286.485 433.04C286.481 434.46 285.915 435.82 284.911 436.824C283.907 437.828 282.547 438.394 281.127 438.398Z" fill="#FAFAFA"/>
<path d="M370.265 277.914H128.145V289.12H370.265V277.914Z" fill="#F0F0F0"/>
<path d="M96.1833 289.104H128.145V277.898H96.1833V289.104Z" fill="#E6E6E6"/>
<path d="M660.738 26.6841H108.051V212.337H660.738V26.6841Z" fill="#EBEBEB"/>
<path d="M668.508 26.6841H111.675V212.337H668.508V26.6841Z" fill="#F5F5F5"/>
<path d="M471.508 212.337H108.051V221.556H471.508V212.337Z" fill="#EBEBEB"/>
<path d="M679.965 212.337H146.269V221.556H679.965V212.337Z" fill="#F5F5F5"/>
<path d="M657.618 200.942V38.0942L122.597 38.0942V200.942L657.618 200.942Z" fill="#FAFAFA"/>
<path d="M190.223 200.942L283.317 38.0942H327.272L234.178 200.942H190.223Z" fill="white"/>
<path d="M243.618 200.942L336.712 38.0942H353.844L260.749 200.942H243.618Z" fill="white"/>
<path d="M516.408 200.942L609.486 38.0942H626.617L533.539 200.942H516.408Z" fill="white"/>
<path d="M657.618 200.942V38.0942H656.231V200.942H657.618Z" fill="#EBEBEB"/>
<path opacity="0.5" d="M671.092 51.3011H118.405L117.412 42.5228H670.084L671.092 51.3011Z" fill="#EBEBEB"/>
<path opacity="0.5" d="M671.092 62.2386H118.405L117.412 53.4603H670.084L671.092 62.2386Z" fill="#EBEBEB"/>
<path opacity="0.5" d="M671.092 73.1918H118.405L117.412 64.4135H670.084L671.092 73.1918Z" fill="#EBEBEB"/>
<path opacity="0.5" d="M671.092 84.1293H118.405L117.412 75.351H670.084L671.092 84.1293Z" fill="#EBEBEB"/>
<path opacity="0.5" d="M671.092 95.0824H118.405L117.412 86.3041H670.084L671.092 95.0824Z" fill="#EBEBEB"/>
<path opacity="0.5" d="M671.092 106.036H118.405L117.412 97.2573H670.084L671.092 106.036Z" fill="#EBEBEB"/>
<path opacity="0.5" d="M671.092 116.973H118.405L117.412 108.195H670.084L671.092 116.973Z" fill="#EBEBEB"/>
<path opacity="0.5" d="M671.092 127.926H118.405L117.412 119.148H670.084L671.092 127.926Z" fill="#EBEBEB"/>
<path opacity="0.5" d="M671.092 138.864H118.405L117.412 130.085H670.084L671.092 138.864Z" fill="#EBEBEB"/>
<path opacity="0.5" d="M671.092 149.817H118.405L117.412 141.039H670.084L671.092 149.817Z" fill="#EBEBEB"/>
<path opacity="0.5" d="M671.092 160.754H118.405L117.412 151.976H670.084L671.092 160.754Z" fill="#EBEBEB"/>
<path opacity="0.5" d="M671.092 171.708H118.405L117.412 162.929H670.084L671.092 171.708Z" fill="#EBEBEB"/>
<path opacity="0.5" d="M671.092 182.661H118.405L117.412 173.867H670.084L671.092 182.661Z" fill="#EBEBEB"/>
<path opacity="0.5" d="M671.092 193.598H118.405L117.412 184.82H670.084L671.092 193.598Z" fill="#EBEBEB"/>
<path d="M643.276 427.681H551.332L542.57 275.424C542.496 274.542 542.61 273.653 542.902 272.818C543.195 271.982 543.661 271.217 544.269 270.573C544.877 269.929 545.614 269.421 546.432 269.081C547.25 268.741 548.13 268.577 549.015 268.6H627.248C629.089 268.62 630.855 269.333 632.194 270.598C633.532 271.863 634.343 273.587 634.466 275.424L643.276 427.681Z" fill="#E6E6E6"/>
<path d="M652.543 427.681H560.615L551.852 275.424C551.779 274.543 551.892 273.656 552.184 272.821C552.476 271.987 552.94 271.223 553.546 270.579C554.153 269.936 554.888 269.427 555.704 269.086C556.52 268.745 557.398 268.579 558.282 268.6H636.562C638.404 268.62 640.17 269.333 641.508 270.598C642.846 271.863 643.657 273.587 643.78 275.424L652.543 427.681Z" fill="#F5F5F5"/>
<path d="M562.459 408.691H626.46V427.603H555.619V415.436C555.639 413.637 556.37 411.919 557.651 410.656C558.932 409.393 560.66 408.686 562.459 408.691Z" fill="#E6E6E6"/>
<path d="M612.355 408.691H693.834C695.644 408.691 697.38 409.41 698.66 410.689C699.939 411.969 700.658 413.705 700.658 415.515V427.681H605.515V415.515C605.515 414.617 605.692 413.729 606.036 412.9C606.38 412.071 606.884 411.318 607.519 410.684C608.155 410.05 608.909 409.548 609.739 409.206C610.568 408.864 611.457 408.689 612.355 408.691Z" fill="#F5F5F5"/>
<path d="M557.636 427.681H551.332V516.662H557.636V427.681Z" fill="#E6E6E6"/>
<path d="M603.908 427.681H597.604V516.662H603.908V427.681Z" fill="#E6E6E6"/>
<path d="M652.952 427.681H646.648V516.662H652.952V427.681Z" fill="#E6E6E6"/>
<path d="M699.208 427.681H692.904V516.662H699.208V427.681Z" fill="#E6E6E6"/>
<path d="M525.596 427.681H433.668L424.89 275.424C424.831 274.545 424.955 273.663 425.253 272.833C425.551 272.004 426.017 271.245 426.623 270.605C427.228 269.964 427.959 269.455 428.77 269.11C429.581 268.765 430.454 268.592 431.336 268.6H509.615C511.456 268.623 513.22 269.338 514.557 270.603C515.894 271.867 516.707 273.588 516.834 275.424L525.596 427.681Z" fill="#E6E6E6"/>
<path d="M534.878 427.682H442.935L434.172 275.424C434.111 274.544 434.233 273.661 434.53 272.831C434.828 272 435.294 271.241 435.899 270.6C436.505 269.958 437.237 269.45 438.049 269.105C438.861 268.761 439.736 268.589 440.618 268.6H518.882C520.725 268.62 522.493 269.333 523.834 270.597C525.174 271.862 525.989 273.585 526.116 275.424L534.878 427.682Z" fill="#F5F5F5"/>
<path d="M444.779 408.691H508.78V427.603H437.955V415.436C437.975 413.64 438.703 411.924 439.981 410.661C441.258 409.399 442.982 408.691 444.779 408.691Z" fill="#E6E6E6"/>
<path d="M494.675 408.691H576.154C577.964 408.691 579.7 409.41 580.979 410.689C582.259 411.969 582.978 413.705 582.978 415.515V427.681H487.851V415.515C487.851 413.705 488.57 411.969 489.849 410.689C491.129 409.41 492.865 408.691 494.675 408.691Z" fill="#F5F5F5"/>
<path d="M439.972 427.681H433.668V516.662H439.972V427.681Z" fill="#E6E6E6"/>
<path d="M486.227 427.681H479.923V516.662H486.227V427.681Z" fill="#E6E6E6"/>
<path d="M535.273 427.681H528.969V516.662H535.273V427.681Z" fill="#E6E6E6"/>
<path d="M581.528 427.681H575.224V516.662H581.528V427.681Z" fill="#E6E6E6"/>
<path d="M394 587.834C562.762 587.834 699.57 579.847 699.57 569.994C699.57 560.141 562.762 552.154 394 552.154C225.238 552.154 88.4292 560.141 88.4292 569.994C88.4292 579.847 225.238 587.834 394 587.834Z" fill="#EAE5FF"/>
<path d="M451.666 548.245L439.704 544.101L446.103 515.323L458.064 519.468L451.666 548.245Z" fill="#FFBE9D"/>
<path d="M551.065 557.071H538.409L535.147 527.773H547.802L551.065 557.071Z" fill="#FFBE9D"/>
<path d="M537.416 555.605H551.9C552.15 555.607 552.393 555.693 552.587 555.851C552.782 556.008 552.918 556.228 552.971 556.472L555.477 567.725C555.534 567.999 555.528 568.282 555.461 568.553C555.393 568.824 555.265 569.077 555.087 569.292C554.908 569.507 554.683 569.679 554.429 569.795C554.174 569.911 553.897 569.969 553.617 569.963C548.653 569.884 545.044 569.585 538.787 569.585C534.942 569.585 524.288 569.994 518.977 569.994C513.666 569.994 512.972 564.746 515.147 564.258C524.887 562.13 532.231 559.199 535.352 556.378C535.924 555.88 536.657 555.606 537.416 555.605Z" fill="#263238"/>
<path d="M439.878 542.824L452.927 547.347C453.165 547.428 453.368 547.588 453.502 547.8C453.637 548.012 453.695 548.264 453.668 548.513L452.344 559.955C452.322 560.236 452.235 560.507 452.091 560.749C451.947 560.99 451.749 561.195 451.512 561.348C451.276 561.5 451.008 561.596 450.728 561.628C450.449 561.66 450.166 561.627 449.901 561.531C445.173 559.813 438.506 557.181 432.565 555.133C425.646 552.737 422.352 552.217 414.236 549.412C409.335 547.71 410.722 542.414 412.944 542.525C423.062 543.076 426.86 544.983 436.663 542.793C437.717 542.508 438.829 542.519 439.878 542.824Z" fill="#263238"/>
<path d="M514.801 178.374C511.207 182.219 507.709 185.718 504.021 189.233C500.333 192.747 496.614 196.12 492.752 199.461C484.926 206.319 476.551 212.523 467.71 218.01C465.34 219.446 462.899 220.761 460.397 221.95C459.121 222.581 457.749 223.164 456.378 223.731L454.219 224.519C453.463 224.771 452.643 225.008 451.824 225.229C445.353 226.911 438.533 226.687 432.187 224.582C426.503 222.66 421.277 219.586 416.836 215.552C414.758 213.701 412.825 211.693 411.053 209.547C410.17 208.491 409.335 207.388 408.547 206.269C407.759 205.15 407.065 204.063 406.23 202.676L414.929 196.073L417.42 198.058C418.302 198.752 419.2 199.398 420.099 200.044C421.873 201.3 423.714 202.457 425.615 203.511C429.034 205.455 432.768 206.783 436.647 207.435C439.839 207.92 443.104 207.545 446.103 206.348L447.222 205.875L448.483 205.292C449.349 204.851 450.216 204.425 451.13 203.889C452.927 202.897 454.739 201.683 456.583 200.454C460.255 197.964 463.912 195.143 467.505 192.164C471.098 189.185 474.66 186.096 478.19 182.897C481.72 179.698 485.188 176.436 488.639 173.142C492.09 169.848 495.573 166.428 498.804 163.181L514.801 178.374Z" fill="#263238"/>
<path d="M415.008 197.065L407.128 184.82L399.248 200.107C399.248 200.107 408.389 209.736 412.912 205.339L415.008 197.065Z" fill="#FFBE9D"/>
<path d="M397.593 182.724L393.354 193.488L399.122 200.107L407.065 184.82L397.593 182.724Z" fill="#FFBE9D"/>
<path opacity="0.2" d="M446.103 515.339L442.809 530.169L454.771 534.314L458.065 519.468L446.103 515.339Z" fill="black"/>
<path opacity="0.2" d="M547.802 527.789H535.147L536.833 542.887H549.489L547.802 527.789Z" fill="black"/>
<path d="M567.155 177.886C554.217 221.667 555.588 268.143 553.886 277.583C544.051 276.275 501.878 270.097 481.626 267.371C478.474 216.655 490.704 182.677 496.251 167.594C497.337 164.632 499.272 162.056 501.814 160.189C504.357 158.322 507.394 157.247 510.546 157.098H510.719C512.579 157.019 514.58 156.972 516.66 156.988C517.811 156.988 518.977 156.988 520.159 156.988C529.728 157.723 539.247 159.007 548.669 160.833C550.45 161.164 552.262 161.542 554.012 161.936C555.761 162.33 557.164 162.709 558.74 163.103H558.945C560.474 163.502 561.906 164.208 563.155 165.176C564.404 166.145 565.443 167.357 566.211 168.739C566.978 170.12 567.458 171.643 567.62 173.215C567.782 174.787 567.624 176.376 567.155 177.886Z" fill="#263238"/>
<path d="M532.846 192.274L532.688 194.544L547.534 197.002L548.007 195.143L532.846 192.274Z" fill="white"/>
<path opacity="0.3" d="M520.159 157.067C516.755 160.628 512.752 190.32 517.716 204.11C526.1 190.194 542.932 165.199 548.653 160.912C539.236 159.086 529.723 157.802 520.159 157.067Z" fill="white"/>
<path d="M550.166 128.431C547.14 137.351 543.074 153.914 548.669 160.896C546.557 162.976 537.794 164.726 529.757 163.497C523.153 162.488 520.001 159.62 520.175 157.066C530.734 155.995 531.49 148.367 530.671 141.007L550.166 128.431Z" fill="#FFBE9D"/>
<path opacity="0.2" d="M542.144 133.553L530.671 140.944C530.882 142.664 530.945 144.399 530.86 146.129C534.847 146.129 540.789 142.52 541.766 138.486C542.184 136.877 542.312 135.206 542.144 133.553Z" fill="black"/>
<path d="M522.728 122.142C520.963 118.139 520.301 110.338 523.626 100.283C526.337 92.088 534.926 94.7357 540.868 96.1698C546.809 97.604 544.619 105.626 540.3 111.473C535.667 117.698 522.728 122.142 522.728 122.142Z" fill="#263238"/>
<path d="M557.148 115.807C553.523 127.832 552.026 135.05 544.382 139.857C532.909 147.09 519.166 137.965 519.166 125.105C519.166 113.522 525.044 95.8074 538.078 93.7743C540.961 93.3061 543.916 93.5835 546.661 94.58C549.407 95.5765 551.852 97.259 553.763 99.4674C555.674 101.676 556.989 104.337 557.581 107.197C558.174 110.057 558.024 113.021 557.148 115.807Z" fill="#FFBE9D"/>
<path d="M549 128.336C546.888 124.506 546.037 114.436 548.054 106.493C549.63 100.472 559.433 99.1013 564.87 101.891C571.347 105.216 570.134 111.741 565.264 117.068C560 122.836 549 128.336 549 128.336Z" fill="#263238"/>
<path d="M563.578 105.579C568.432 105.295 571.647 98.8491 567.707 95.7601C563.073 92.1353 556.675 95.7601 550.844 87.7383C545.375 80.205 531.806 78.8969 526.699 85.6579C523.768 89.5507 526.384 91.1109 518.52 95.8389C513.934 98.5969 515.368 103.278 516.55 105.579C516.424 103.845 517.149 99.3849 521.42 98.4235C524.997 97.6198 527.109 100.709 529.568 97.935C529.568 97.935 537.889 105.579 553.649 106.792C562.427 107.47 563.578 105.579 563.578 105.579Z" fill="#263238"/>
<path d="M559.48 130.542C557.226 132.755 554.191 133.99 551.033 133.978C546.856 133.978 545.942 129.88 548.086 126.555C550.024 123.561 554.531 119.967 558.267 121.638C562.002 123.309 562.222 127.8 559.48 130.542Z" fill="#FFBE9D"/>
<path d="M439.279 525.851L459.53 532.848C459.53 532.848 479.356 454.71 485.566 415.783C487.457 403.931 491.681 387.541 496.787 370.079C503.233 348.015 510.971 324.249 517.417 305.636C524.115 286.031 529.142 272.178 529.142 272.178L485.014 266.236C485.014 266.236 455.559 366.454 450.342 404.719C445.063 444.466 439.279 525.851 439.279 525.851Z" fill="#263238"/>
<path opacity="0.2" d="M496.787 370.047C503.233 347.983 510.971 324.217 517.417 305.605L513.461 295.392C501.625 307.748 496.078 347.967 496.787 370.047Z" fill="black"/>
<path d="M508.843 269.404C508.843 269.404 506.668 377.801 509.647 414.743C512.894 455.198 530.986 539.971 530.986 539.971H554.169C554.169 539.971 550.938 462.212 546.195 422.922C540.789 378.164 552.12 275.235 552.12 275.235L508.843 269.404Z" fill="#263238"/>
<path d="M528.212 540.46H555.508V532.312L526.368 531.792L528.212 540.46Z" fill="#263238"/>
<path d="M436.568 525.441L460.696 533.794L463.391 526.008L437.671 515.339L436.568 525.441Z" fill="#263238"/>
<path d="M537.842 114.861C537.605 115.854 536.896 116.532 536.266 116.437C535.635 116.343 535.273 115.366 535.509 114.373C535.746 113.38 536.455 112.702 537.085 112.797C537.716 112.891 538.078 113.868 537.842 114.861Z" fill="#263238"/>
<path d="M526.621 112.214C526.384 113.207 525.675 113.9 525.045 113.79C524.414 113.679 524.068 112.702 524.304 111.709C524.54 110.716 525.25 110.039 525.88 110.133C526.51 110.228 526.857 111.221 526.621 112.214Z" fill="#263238"/>
<path d="M530.072 113.553C528.173 116.31 525.903 118.792 523.327 120.929C523.892 121.572 524.591 122.085 525.375 122.43C526.159 122.776 527.009 122.947 527.866 122.93L530.072 113.553Z" fill="#A02724"/>
<path d="M531.427 126.587C532.554 126.704 533.694 126.592 534.777 126.259C535.86 125.926 536.865 125.378 537.731 124.648C537.79 124.594 537.824 124.518 537.827 124.439C537.83 124.359 537.801 124.281 537.747 124.223C537.693 124.164 537.617 124.13 537.538 124.127C537.458 124.124 537.38 124.153 537.322 124.207C536.34 125.013 535.181 125.576 533.941 125.85C532.7 126.124 531.412 126.101 530.182 125.783C530.144 125.774 530.104 125.772 530.065 125.778C530.026 125.784 529.989 125.797 529.955 125.818C529.921 125.838 529.892 125.865 529.869 125.897C529.846 125.929 529.829 125.965 529.82 126.004C529.805 126.081 529.819 126.16 529.86 126.227C529.901 126.295 529.965 126.344 530.04 126.366C530.56 126.461 531.002 126.539 531.427 126.587Z" fill="#263238"/>
<path d="M542.144 112.04C542.242 112.071 542.346 112.071 542.444 112.04C542.516 112.01 542.582 111.964 542.637 111.908C542.691 111.851 542.734 111.784 542.762 111.71C542.79 111.637 542.803 111.558 542.8 111.479C542.796 111.401 542.777 111.323 542.743 111.252C542.38 110.375 541.811 109.597 541.084 108.985C540.357 108.374 539.494 107.946 538.567 107.738C538.489 107.724 538.41 107.726 538.333 107.743C538.256 107.76 538.183 107.793 538.119 107.838C538.054 107.883 538 107.941 537.957 108.008C537.915 108.074 537.887 108.149 537.873 108.226C537.851 108.385 537.891 108.546 537.985 108.675C538.079 108.805 538.22 108.893 538.378 108.92C539.109 109.095 539.788 109.443 540.358 109.933C540.928 110.424 541.373 111.044 541.656 111.741C541.705 111.829 541.775 111.902 541.861 111.955C541.946 112.007 542.044 112.037 542.144 112.04Z" fill="#263238"/>
<path d="M522.681 107.218C522.781 107.229 522.883 107.215 522.977 107.176C523.071 107.138 523.153 107.076 523.217 106.997C523.673 106.398 524.266 105.917 524.945 105.594C525.625 105.27 526.373 105.114 527.125 105.137C527.203 105.146 527.282 105.139 527.357 105.116C527.432 105.094 527.502 105.057 527.562 105.007C527.622 104.957 527.672 104.895 527.708 104.825C527.744 104.756 527.765 104.68 527.771 104.601C527.785 104.446 527.739 104.29 527.642 104.167C527.546 104.045 527.406 103.963 527.251 103.94C526.298 103.905 525.35 104.098 524.486 104.504C523.623 104.91 522.869 105.516 522.287 106.272C522.235 106.333 522.197 106.403 522.173 106.479C522.149 106.555 522.14 106.635 522.148 106.714C522.155 106.793 522.178 106.87 522.215 106.94C522.253 107.011 522.304 107.073 522.366 107.123C522.46 107.183 522.569 107.215 522.681 107.218Z" fill="#263238"/>
<path d="M533.208 557.827C534.325 557.796 535.435 557.642 536.518 557.37C536.578 557.356 536.632 557.324 536.674 557.28C536.716 557.235 536.744 557.179 536.754 557.118C536.759 557.06 536.748 557.002 536.724 556.949C536.699 556.897 536.66 556.852 536.612 556.819C536.155 556.535 532.074 554.029 530.671 554.738C530.516 554.821 530.386 554.943 530.294 555.093C530.203 555.242 530.153 555.414 530.151 555.589C530.122 555.883 530.164 556.18 530.274 556.454C530.384 556.729 530.558 556.973 530.781 557.165C531.493 557.652 532.348 557.885 533.208 557.827ZM535.651 556.945C533.508 557.37 531.853 557.292 531.16 556.708C531.007 556.578 530.89 556.412 530.818 556.225C530.746 556.038 530.723 555.835 530.75 555.637C530.745 555.565 530.76 555.493 530.794 555.429C530.827 555.365 530.877 555.312 530.939 555.274C531.664 554.896 533.996 555.983 535.651 557.008V556.945Z" fill="#8800FF"/>
<path d="M536.455 557.371C536.506 557.385 536.561 557.385 536.612 557.371C536.657 557.342 536.693 557.302 536.718 557.255C536.742 557.208 536.755 557.156 536.754 557.103C536.754 556.945 536.439 553.289 534.958 552.091C534.785 551.939 534.582 551.826 534.361 551.76C534.141 551.695 533.909 551.679 533.681 551.713C533.458 551.712 533.242 551.789 533.07 551.93C532.898 552.07 532.779 552.267 532.735 552.485C532.468 553.903 535.005 556.677 536.313 557.386L536.455 557.371ZM533.902 552.28C534.154 552.279 534.397 552.375 534.579 552.548C535.47 553.683 535.992 555.063 536.077 556.504C534.784 555.511 533.161 553.352 533.319 552.595C533.319 552.517 533.319 552.327 533.76 552.28H533.902Z" fill="#8800FF"/>
<path d="M438.128 543.99C438.183 543.991 438.237 543.977 438.284 543.949C438.332 543.921 438.37 543.881 438.396 543.833C438.43 543.781 438.448 543.721 438.448 543.659C438.448 543.598 438.43 543.538 438.396 543.486C437.955 543.029 433.983 538.916 432.25 539.231C432.09 539.26 431.94 539.329 431.814 539.431C431.687 539.532 431.588 539.664 431.525 539.814C431.398 540.057 431.332 540.328 431.332 540.602C431.332 540.876 431.398 541.147 431.525 541.39C432.439 542.966 436.032 543.722 438.081 544.006L438.128 543.99ZM432.423 539.814C433.432 539.814 435.701 541.705 437.277 543.265C434.488 542.793 432.549 541.989 432.061 541.091C431.975 540.933 431.93 540.757 431.93 540.578C431.93 540.399 431.975 540.223 432.061 540.066C432.078 540.001 432.115 539.943 432.165 539.898C432.215 539.853 432.278 539.824 432.344 539.814H432.423Z" fill="#8800FF"/>
<path d="M438.128 543.99H438.207C438.258 543.973 438.305 543.945 438.343 543.906C438.382 543.868 438.411 543.821 438.428 543.77C438.428 543.628 439.247 540.302 438.16 538.522C438.007 538.265 437.804 538.042 437.563 537.866C437.322 537.689 437.048 537.564 436.757 537.497C435.953 537.308 435.591 537.623 435.433 537.923C434.74 539.199 436.71 542.761 437.923 543.912C437.95 543.938 437.982 543.959 438.017 543.973C438.053 543.986 438.09 543.992 438.128 543.99ZM436.316 538.096H436.615C436.829 538.144 437.031 538.236 437.207 538.366C437.384 538.496 437.531 538.662 437.64 538.853C438.184 540.193 438.294 541.67 437.955 543.076C436.789 541.689 435.543 538.979 435.953 538.222C435.996 538.169 436.052 538.129 436.116 538.107C436.18 538.085 436.25 538.081 436.316 538.096Z" fill="#8800FF"/>
<path d="M563.42 165.608C565.107 167.878 566.572 169.895 567.991 172.086C569.409 174.276 570.828 176.404 572.214 178.595C574.957 182.976 577.536 187.489 579.953 192.132C582.417 196.83 584.631 201.654 586.588 206.584C588.699 211.768 590.313 217.14 591.41 222.628C591.694 224.078 591.915 225.575 592.088 227.088C592.088 227.198 592.088 227.671 592.182 227.971C592.277 228.27 592.182 228.664 592.182 228.964C592.182 229.61 592.182 230.224 592.182 230.792C592.103 231.851 591.955 232.904 591.741 233.944C590.998 237.154 589.827 240.25 588.258 243.148C585.675 247.975 582.652 252.555 579.228 256.827C575.965 260.956 572.577 264.833 569.047 268.537C565.517 272.241 561.892 275.771 557.936 279.191L549.804 271.894C555.115 263.793 560.599 255.566 565.233 247.371C567.498 243.507 569.479 239.483 571.159 235.331C571.79 233.773 572.224 232.142 572.451 230.477C572.479 230.294 572.479 230.108 572.451 229.925C572.246 228.995 572.041 228.05 571.757 227.072C570.531 222.905 568.987 218.837 567.14 214.906C565.201 210.808 563.074 206.663 560.741 202.581C558.409 198.5 556.013 194.449 553.444 190.415C552.184 188.418 550.896 186.422 549.583 184.426L545.69 178.642L563.42 165.608Z" fill="#263238"/>
<path d="M553.176 270.507L540.568 274.352L551.884 286.362C551.884 286.362 561.513 280.625 559.039 275.188L553.176 270.507Z" fill="#FFBE9D"/>
<path d="M535.446 283.477L544.587 292.65L551.947 286.362L540.631 274.368L535.446 283.477Z" fill="#FFBE9D"/>
<path opacity="0.3" d="M507.062 271.594C507.062 271.594 509.474 255.173 513.65 247.182C514.517 254.18 517.448 272.572 517.448 272.572L507.062 271.594Z" fill="white"/>
<path d="M140 108.339L138.424 108.37L139.157 146.187L140.733 146.156L140 108.339Z" fill="#8800FF"/>
<path d="M140.967 158.275L139.392 158.305L139.707 174.566L141.282 174.536L140.967 158.275Z" fill="#8800FF"/>
<path d="M450.925 69.8506H143.18L151.28 490.296H459.026L450.925 69.8506Z" fill="#8800FF"/>
<path opacity="0.8" d="M433.999 83.6879H162.092L169.657 475.434H441.548L433.999 83.6879Z" fill="white"/>
<path d="M433.952 81.7179H162.06L173.108 473.448H445.015L433.952 81.7179Z" fill="white"/>
<path opacity="0.2" d="M240.939 161.921L255.517 118.486C264.523 121.74 272.349 127.617 277.986 135.358C283.623 143.099 286.814 152.35 287.147 161.921C287.492 172.674 283.953 183.192 277.178 191.55C270.403 199.908 260.845 205.547 250.253 207.435L240.939 161.921Z" fill="#8800FF"/>
<path d="M240.939 161.92L250.253 207.435C247.609 207.894 244.93 208.126 242.247 208.129C229.907 208.004 218.089 203.135 209.243 194.532C200.396 185.929 195.199 174.252 194.73 161.92C194.555 155.916 195.588 149.937 197.766 144.338C199.944 138.74 203.224 133.635 207.411 129.328C211.598 125.02 216.607 121.597 222.142 119.261C227.676 116.925 233.623 115.723 239.631 115.728C245.047 115.733 250.422 116.677 255.517 118.517L240.939 161.92Z" fill="#8800FF"/>
<path opacity="0.2" d="M356.176 161.92L355.026 115.728C367.337 115.819 379.135 120.67 387.948 129.266C406.388 147.201 407.223 176.703 389.792 194.622C372.362 212.542 342.875 212.557 324.436 194.622C317.558 187.949 312.846 179.36 310.914 169.974L356.176 161.92Z" fill="#8800FF"/>
<path d="M356.176 161.921L310.897 169.942C309.417 163.107 309.558 156.019 311.31 149.248C313.061 142.477 316.375 136.21 320.985 130.95C325.596 125.69 331.374 121.583 337.857 118.959C344.341 116.335 351.348 115.266 358.319 115.838L356.176 161.921Z" fill="#8800FF"/>
<path d="M413.007 437.326H200.452L197.662 338.921L199.348 338.905L202.075 435.64H412.959L413.007 437.326Z" fill="#8800FF"/>
<path d="M412.912 434.584C413.415 434.588 413.897 434.788 414.256 435.141C414.615 435.494 414.823 435.972 414.835 436.475C414.843 436.722 414.802 436.968 414.713 437.198C414.624 437.428 414.489 437.638 414.317 437.815C414.145 437.991 413.938 438.131 413.71 438.226C413.482 438.321 413.238 438.369 412.991 438.367C412.485 438.367 411.999 438.169 411.637 437.816C411.275 437.462 411.065 436.981 411.053 436.475C411.048 436.229 411.093 435.983 411.185 435.754C411.277 435.525 411.413 435.316 411.586 435.14C411.759 434.964 411.965 434.824 412.193 434.729C412.421 434.633 412.665 434.584 412.912 434.584Z" fill="#8800FF"/>
<path d="M200.404 338.984C200.384 338.48 200.169 338.003 199.805 337.653C199.44 337.303 198.955 337.108 198.45 337.109C198.204 337.111 197.96 337.162 197.734 337.259C197.508 337.357 197.304 337.499 197.133 337.676C196.963 337.854 196.83 338.064 196.742 338.294C196.654 338.524 196.613 338.77 196.622 339.016C196.634 339.52 196.844 339.999 197.207 340.35C197.57 340.701 198.056 340.895 198.56 340.891C198.808 340.891 199.053 340.842 199.281 340.745C199.509 340.648 199.715 340.507 199.887 340.329C200.059 340.151 200.193 339.94 200.282 339.709C200.371 339.478 200.413 339.231 200.404 338.984Z" fill="#8800FF"/>
<path d="M207.922 430.833L206.708 429.651L231.814 403.821H246.818L253.689 396.76H275.296L320.448 350.3H331.102L346.563 365.335H356.176L384.418 336.273H410.154L410.186 337.944H385.159L356.917 367.005H345.901L330.44 351.97H321.173L276.021 398.431H254.414L247.558 405.507H232.539L207.922 430.833Z" fill="#8800FF"/>
<path d="M208.757 431.511C208.492 431.78 208.152 431.964 207.781 432.04C207.411 432.116 207.026 432.079 206.676 431.936C206.326 431.792 206.027 431.548 205.816 431.234C205.606 430.92 205.493 430.55 205.493 430.172C205.493 429.793 205.606 429.424 205.816 429.11C206.027 428.795 206.326 428.551 206.676 428.407C207.026 428.264 207.411 428.228 207.781 428.303C208.152 428.379 208.492 428.563 208.757 428.832C209.11 429.189 209.307 429.67 209.307 430.172C209.307 430.673 209.11 431.154 208.757 431.511Z" fill="#8800FF"/>
<path d="M410.122 339C410.369 339 410.612 338.951 410.839 338.855C411.066 338.76 411.271 338.62 411.443 338.443C411.615 338.267 411.75 338.058 411.84 337.829C411.93 337.6 411.973 337.355 411.966 337.109C411.954 336.606 411.747 336.127 411.388 335.774C411.029 335.421 410.547 335.221 410.044 335.218C409.797 335.217 409.552 335.267 409.324 335.362C409.097 335.457 408.89 335.597 408.717 335.773C408.544 335.949 408.408 336.158 408.316 336.387C408.225 336.617 408.18 336.862 408.184 337.109C408.2 337.613 408.411 338.092 408.772 338.445C409.134 338.797 409.618 338.996 410.122 339Z" fill="#8800FF"/>
<g opacity="0.2">
<path d="M207.654 421.519L206.44 420.337L236.4 389.495H261.002L277.676 405.728H296.32L312.6 388.959H333.529L340.353 381.946H360.542L374.426 367.652H381.235L412.928 398.494L411.777 399.676L380.573 369.338H375.151L361.267 383.632H341.094L334.27 390.645H313.325L297.045 407.398H277.029L260.34 391.181H237.141L207.654 421.519Z" fill="#8800FF"/>
<path d="M208.489 422.181C208.224 422.453 207.885 422.639 207.514 422.716C207.142 422.794 206.757 422.759 206.405 422.616C206.054 422.473 205.754 422.229 205.542 421.914C205.33 421.599 205.217 421.229 205.217 420.85C205.217 420.47 205.33 420.1 205.542 419.785C205.754 419.471 206.054 419.226 206.405 419.083C206.757 418.94 207.142 418.905 207.514 418.983C207.885 419.06 208.224 419.247 208.489 419.518C208.665 419.692 208.805 419.9 208.9 420.128C208.995 420.357 209.044 420.602 209.044 420.85C209.044 421.097 208.995 421.342 208.9 421.571C208.805 421.8 208.665 422.007 208.489 422.181Z" fill="#8800FF"/>
<path d="M410.974 400.369C411.237 400.628 411.572 400.803 411.934 400.872C412.297 400.941 412.672 400.902 413.013 400.759C413.353 400.616 413.644 400.375 413.848 400.068C414.053 399.76 414.162 399.399 414.162 399.03C414.162 398.66 414.053 398.299 413.848 397.992C413.644 397.684 413.353 397.444 413.013 397.301C412.672 397.158 412.297 397.118 411.934 397.188C411.572 397.257 411.237 397.432 410.974 397.69C410.621 398.047 410.424 398.528 410.424 399.03C410.424 399.531 410.621 400.012 410.974 400.369Z" fill="#8800FF"/>
</g>
<path d="M218.796 259.097H196.259L195.613 236.56H218.15L218.796 259.097Z" fill="#8800FF"/>
<path d="M334.837 251.91H232.066L231.83 243.746H334.601L334.837 251.91Z" fill="#E0E0E0"/>
<path d="M404.859 251.91H347.682L347.445 243.746H404.623L404.859 251.91Z" fill="#E0E0E0"/>
<path d="M292.191 287.465H233.059L232.838 279.301H291.954L292.191 287.465Z" fill="#E0E0E0"/>
<path d="M379.485 287.465H305.035L304.798 279.301H379.264L379.485 287.465Z" fill="#E0E0E0"/>
<path opacity="0.2" d="M219.789 294.651H197.252L196.622 272.114H219.159L219.789 294.651Z" fill="#8800FF"/>
<path d="M408.578 203.432L539.134 277L537.495 279.884L407.806 204.804L408.578 203.432Z" fill="#E0E0E0"/>
</svg>
