<svg width="117" height="74" viewBox="0 0 117 74" fill="none" xmlns="http://www.w3.org/2000/svg">
<path fill-rule="evenodd" clip-rule="evenodd" d="M2.56769 16.4273C1.26251 16.9327 0 18.6465 0 19.9129C0 21.7197 5.73597 28.0289 12.2225 33.3572L15.0984 35.7194L8.98716 41.6014C3.38636 46.9927 2.87589 47.6245 2.87589 49.1682C2.87589 51.0913 4.58226 52.7592 6.54985 52.7592C7.63406 52.7592 14.6364 46.9867 19.8182 41.8216L21.6617 39.9836L24.6114 41.5867C26.2334 42.4687 28.9046 43.7765 30.5473 44.4929L33.5339 45.7957L30.3723 51.9218C24.4461 63.4043 24.0262 64.7733 25.883 66.5547C27.2289 67.846 29.9893 67.7867 31.1987 66.4398C31.7096 65.8705 34.0721 61.5769 36.4486 56.8979C40.2155 49.4828 40.9067 48.4012 41.8342 48.4725C42.4199 48.5171 44.8141 48.8794 47.1555 49.2772C49.497 49.6745 52.139 50.0001 53.0271 50.0001H54.642V60.7809C54.642 71.3133 54.6669 71.5883 55.7204 72.7135C56.3133 73.3467 57.1224 73.9004 57.5178 73.9432C59.3186 74.1391 60.4297 73.837 61.3337 72.9058C62.2602 71.952 62.311 71.3331 62.311 61.0172V50.1348L65.903 49.8438C67.8787 49.6837 71.0513 49.2128 72.9528 48.798C75.8171 48.1731 76.447 48.1501 76.6262 48.6656C77.1746 50.2443 85.4902 65.956 86.155 66.6697C87.9174 68.562 92.5079 66.7883 92.5079 64.2155C92.5079 63.6646 90.5666 59.3838 88.194 54.703C85.8214 50.0222 83.8802 46.0426 83.8802 45.8596C83.8802 45.6761 84.7981 45.1901 85.9197 44.7794C87.0417 44.3683 89.6243 43.1216 91.6585 42.0093L95.3579 39.9868L100.756 46.0284C108.062 54.2036 107.988 54.1388 109.981 54.1388C112.196 54.1388 113.598 52.8121 113.598 50.7161C113.598 49.0648 112.436 47.5436 105.111 39.6015C103.452 37.8025 102.094 36.1342 102.094 35.8942C102.094 35.6541 102.736 35.0021 103.522 34.4452C105.986 32.6973 111.239 27.8233 114.153 24.5814C116.928 21.4935 117.467 20.09 116.655 18.0611C116.214 16.9584 113.729 15.8704 112.495 16.2397C111.915 16.4139 109.289 18.7307 106.658 21.3886C86.4066 41.8506 60.0486 48.1989 35.7023 38.4781C26.3715 34.7524 19.1587 29.8991 10.7031 21.6572C7.49505 18.5297 4.58321 15.9844 4.23235 16.0001C3.88197 16.0162 3.1328 16.2084 2.56769 16.4273Z" fill="#BDB7CA"/>
</svg>
