<svg width="117" height="74" viewBox="0 0 117 74" fill="none" xmlns="http://www.w3.org/2000/svg">
<g clip-path="url(#clip0_94_4)">
<path fill-rule="evenodd" clip-rule="evenodd" d="M50.7378 0.517797C37.3703 2.87845 22.695 11.7501 9.89157 25.2112C7.43729 27.7918 4.20734 31.4975 2.71441 33.4459L0 36.989L1.0754 38.5422C3.40574 41.9096 8.80816 47.967 13.6376 52.6289C22.3425 61.0323 30.6997 66.7179 39.6813 70.3477C47.1902 73.3821 50.5106 74.0171 58.767 73.9997C67.8913 73.9803 72.4135 72.8332 81.8583 68.143C93.7673 62.2294 106.535 51.1859 115.722 38.8517L117 37.1365L114.043 33.1986C109.873 27.6453 100.21 18.1184 94.1905 13.6255C82.2457 4.71054 71.4681 0.433466 59.9451 0.0358616C56.5243 -0.0823833 53.1289 0.0952244 50.7378 0.517797ZM53.5832 7.65865C41.7223 9.57224 30.195 16.0833 18.3119 27.5822C16.0193 29.8011 13.0801 32.8377 11.7803 34.3311L9.41702 37.046L11.5292 39.5132C12.6908 40.8699 15.6305 43.9325 18.0612 46.3181C34.4862 62.4395 50.693 69.0876 65.9733 65.9722C77.2315 63.677 88.0128 57.0445 100.142 44.952C106.983 38.1333 107.543 37.4469 107.043 36.5118C106.743 35.9521 103.711 32.6889 100.304 29.2602C86.5062 15.3719 72.9182 8.08217 59.9498 7.6106C57.2255 7.51167 54.3608 7.53334 53.5832 7.65865ZM53.1119 18.3516C46.6129 20.4974 42.0012 25.0326 39.9329 31.3119C38.6742 35.131 39.0799 41.5601 40.8061 45.1592C42.7095 49.1273 46.2369 52.7509 49.9758 54.5792C52.9616 56.0396 53.3716 56.1131 58.5313 56.1131C63.5106 56.1131 64.1684 56.0062 66.6331 54.7964C70.79 52.7556 73.7938 49.7623 75.8423 45.6185C77.5562 42.1522 77.617 41.8583 77.617 37.0484C77.617 32.3572 77.5256 31.8824 76.0492 28.8834C74.0595 24.8437 70.7386 21.5173 66.7222 19.5406C63.9729 18.1876 63.0337 17.9752 59.2863 17.8602C56.6444 17.7792 54.2731 17.9681 53.1119 18.3516ZM53.5799 26.364C51.0092 27.5605 48.4183 30.1855 47.398 32.6267C46.4612 34.8677 46.5903 39.7072 47.6468 41.9803C48.7368 44.3249 51.6101 47.119 53.9216 48.0814C56.4795 49.147 61.0879 49.0264 63.561 47.8294C66.1006 46.6008 69.0308 43.321 69.7584 40.8935C72.7627 30.87 62.9093 22.0209 53.5799 26.364Z" fill="#BDB7CA"/>
</g>
<defs>
<clipPath id="clip0_94_4">
<rect width="117" height="74" fill="white"/>
</clipPath>
</defs>
</svg>
