<svg width="1205" height="241" viewBox="0 0 1205 241" fill="none" xmlns="http://www.w3.org/2000/svg">
<path d="M1121.66 85.2566H1131.18V126.348H1195.48V85.2566H1205V176.379H1195.48V135.143H1131.18V176.379H1121.66V85.2566Z" fill="#11002C"/>
<path d="M1057.38 178.398C1049.12 178.398 1041.67 176.38 1035.04 172.343C1028.5 168.209 1023.36 162.538 1019.61 155.329C1015.86 148.024 1013.99 139.854 1013.99 130.818C1013.99 121.783 1015.86 113.661 1019.61 106.452C1023.36 99.1463 1028.5 93.4752 1035.04 89.4381C1041.67 85.3049 1049.12 83.2383 1057.38 83.2383C1067.67 83.2383 1076.56 86.3142 1084.06 92.4659C1091.65 98.5215 1096.75 106.74 1099.34 117.121H1088.53C1086.22 109.72 1082.23 103.856 1076.56 99.5308C1070.99 95.1092 1064.54 92.8984 1057.24 92.8984C1051.09 92.8984 1045.51 94.5325 1040.51 97.8006C1035.52 101.069 1031.58 105.586 1028.69 111.354C1025.9 117.121 1024.51 123.561 1024.51 130.674C1024.51 137.787 1025.9 144.227 1028.69 149.994C1031.58 155.762 1035.52 160.279 1040.51 163.547C1045.51 166.816 1051.09 168.45 1057.24 168.45C1064.54 168.45 1070.99 166.287 1076.56 161.961C1082.23 157.636 1086.22 151.773 1088.53 144.371H1099.34C1096.75 154.752 1091.65 163.019 1084.06 169.171C1076.56 175.322 1067.67 178.398 1057.38 178.398Z" fill="#11002C"/>
<path d="M916.655 85.2566H997.973V94.0517H926.171V126.348H979.662V135.143H926.171V167.584H997.973V176.379H916.655V85.2566Z" fill="#11002C"/>
<path d="M849.786 94.0517H812.875V85.2566H896.213V94.0517H859.302V176.379H849.786V94.0517Z" fill="#11002C"/>
<path d="M722.988 133.557C720.681 136.633 718.903 139.757 717.654 142.929V143.794V147.255V157.78V174.505V176.379H695.882V174.505V157.78V147.255V143.794V142.929C694.633 139.757 692.854 136.633 690.547 133.557C690.067 132.789 689.25 131.635 688.096 130.097C685.982 127.021 684.588 124.955 683.915 123.897L657.53 81.6521H682.762L700.352 109.912C703.043 114.045 705.206 117.986 706.84 121.735C708.378 118.178 710.493 114.237 713.184 109.912L730.774 81.6521H756.006L729.765 123.897C728.515 125.916 727.218 127.79 725.872 129.52L722.988 133.557Z" fill="#8800FF"/>
<path d="M564.978 164.845C560.652 160.135 558.49 154.224 558.49 147.111V145.236H580.261V147.111C580.261 150.859 582.856 153.695 588.047 155.617C592.18 157.155 597.034 157.924 602.609 157.924C608.857 157.924 613.903 157.203 617.748 155.762C622.65 153.839 625.101 150.811 625.101 146.678C625.101 143.122 622.41 140.719 617.027 139.469C614.913 138.892 612.269 138.508 609.097 138.316C607.271 138.219 604.868 138.171 601.888 138.171C589.296 138.171 579.204 136.249 571.61 132.404C564.017 128.559 560.22 121.158 560.22 110.2C560.22 99.3385 564.209 91.5527 572.187 86.8427C580.261 82.1328 590.402 79.7778 602.609 79.7778C609.818 79.7778 616.643 80.8832 623.083 83.094C629.523 85.3048 634.81 88.7652 638.943 93.4751C643.076 98.0889 645.143 103.856 645.143 110.777V112.795H623.371V110.777C623.371 107.124 621.064 104.337 616.451 102.414C612.414 100.78 607.8 99.9633 602.609 99.9633C596.938 99.9633 592.324 100.636 588.768 101.982C584.346 103.52 582.135 106.259 582.135 110.2C582.135 113.564 584.635 115.775 589.633 116.833C591.651 117.313 594.102 117.65 596.986 117.842C598.62 117.938 600.831 117.986 603.618 117.986C616.691 117.986 627.168 119.956 635.05 123.897C643.028 127.838 647.017 135.432 647.017 146.678C647.017 157.924 642.788 165.998 634.329 170.901C625.967 175.803 615.393 178.254 602.609 178.254C595.4 178.254 588.431 177.197 581.703 175.082C574.974 172.871 569.399 169.459 564.978 164.845Z" fill="#8800FF"/>
<path d="M464.471 176.379H441.257L478.889 81.6521H508.158L545.645 176.379H522.143L513.06 153.166H473.41L464.471 176.379ZM493.019 102.703L480.907 132.981H505.562L493.019 102.703Z" fill="#8800FF"/>
<path d="M335 176.379V81.6521H425.258V101.838H356.916V118.851H407.668V139.036H356.916V156.194H425.258V176.379H335Z" fill="#8800FF"/>
<path d="M241 241H0V0H241V241ZM37.8037 34.0234V207.922H203.196V170.865H77.9629V139.368H170.963V102.312H77.9629V71.0791H203.196V34.0234H37.8037Z" fill="#8800FF"/>
</svg>
